; Drill file
; Format: 2.4 (00.0000)
M48
INCH
T01C0.0157
T02C0.0394
T03C0.0984
T04C0.126
%
G05
G90
T01
X007120Y015150
X013050Y014950
X015160Y016280
X015360Y018870
X011040Y021600
X011140Y023260
X014580Y025440
X015720Y028200
X014090Y028730
X013310Y029220
X015460Y030590
X016410Y030600
X017550Y032200
X017000Y032700
X016690Y033520
X016370Y034390
X017000Y035270
X018000Y035700
X018490Y034530
X018490Y033120
X019790Y030020
X019790Y029470
X019170Y028890
X019170Y028350
X019170Y027830
X019170Y027300
X022570Y027900
X025220Y028640
X025190Y025340
X027910Y025840
X027880Y022540
X032320Y024600
X033270Y023660
X034210Y024600
X033270Y025550
X031520Y018620
X034070Y015290
X022610Y031100
X032290Y036810
X033230Y035860
X034180Y036810
X033230Y037750
X004620Y036810
X003670Y035860
X002730Y036810
X003670Y037750
X006350Y027680
X003660Y025610
X004600Y024670
X003660Y023720
X002710Y024670
T02
X007440Y016530
X008440Y017530
X008440Y015530
X008490Y020190
X007490Y021190
X008490Y022190
X012020Y026900
X013020Y026900
X014020Y026900
X015020Y026900
X016020Y026900
X017020Y026900
X017380Y025440
X017380Y024450
X016490Y022030
X016490Y020260
X016490Y018030
X016490Y016260
X019050Y016260
X020740Y016260
X020740Y018030
X019050Y018030
X019050Y020260
X020740Y020260
X020740Y022030
X019050Y022030
X023300Y022030
X023300Y020260
X023300Y018030
X024910Y018000
X024910Y016230
X023300Y016260
X027470Y016230
X027470Y018000
X027330Y021170
X026340Y022150
X025360Y021170
X030610Y021610
X032580Y021610
X032580Y015710
X031590Y015710
X030610Y015710
X012380Y030120
X012380Y032090
X011930Y036910
X010950Y036910
X009950Y036910
X008950Y036910
X007900Y036910
X006900Y036910
X005900Y036910
X012930Y036910
X013930Y036910
X014930Y036910
X015980Y036910
X016980Y036910
X017980Y036910
X018980Y036910
X019980Y036910
X021030Y036910
T03
X004630Y015360
X005740Y017210
X003050Y017330
X004400Y020120
X004400Y022160
X029130Y018660
X034050Y018660
T04
X003660Y024670
X003670Y036810
X033230Y036810
X033270Y024600
M30
