%FSLAX34Y34*%
%MOMM*%
%LNSILK_TOP*%
G71*
G01*
%ADD10C, 0.20*%
%ADD11C, 0.22*%
%ADD12C, 0.11*%
%LPD*%
G54D10*
X51832Y384789D02*
X51832Y465789D01*
X31032Y465789D01*
X31032Y384789D01*
X51832Y384789D01*
G54D10*
X39032Y389489D02*
X158132Y389489D01*
X158132Y461089D01*
X39032Y461089D01*
X39032Y389489D01*
G54D10*
X76661Y585948D02*
X156661Y585948D01*
X156661Y486748D01*
X76661Y486748D01*
X76661Y585948D01*
G54D10*
X131661Y585948D02*
X131661Y486748D01*
G54D10*
X82961Y535948D02*
X124161Y535948D01*
G54D10*
G75*
G01X141661Y560948D02*
G03X141661Y560948I-2500J0D01*
G01*
G54D10*
G75*
G01X141661Y510948D02*
G03X141661Y510948I-2500J0D01*
G01*
G54D11*
X169832Y524406D02*
X174499Y521294D01*
X162054Y521294D01*
G54D11*
X162054Y511961D02*
X162054Y516938D01*
X162832Y516938D01*
X164388Y516316D01*
X169054Y512583D01*
X170610Y511961D01*
X172165Y511961D01*
X173721Y512583D01*
X174499Y513827D01*
X174499Y515072D01*
X173721Y516316D01*
X172165Y516938D01*
G54D11*
X174499Y507604D02*
X162054Y504493D01*
X174499Y501382D01*
G54D11*
X167918Y570405D02*
X167918Y567916D01*
X164029Y567916D01*
X162473Y568538D01*
X161696Y569782D01*
X161696Y571027D01*
X162473Y572271D01*
X164029Y572894D01*
X171807Y572894D01*
X173362Y572271D01*
X174140Y571027D01*
X174140Y569782D01*
X173362Y568538D01*
X171807Y567916D01*
G54D11*
X161696Y563560D02*
X174140Y563560D01*
X161696Y558582D01*
X174140Y558582D01*
G54D11*
X161696Y554226D02*
X174140Y554226D01*
X174140Y551114D01*
X173362Y549870D01*
X171807Y549248D01*
X164029Y549248D01*
X162473Y549870D01*
X161696Y551114D01*
X161696Y554226D01*
G54D12*
X305295Y558585D02*
X314184Y558585D01*
G54D12*
X309739Y553475D02*
X308628Y551475D01*
X307517Y550808D01*
X305295Y550808D01*
G54D12*
X305295Y556141D02*
X314184Y556141D01*
X314184Y552808D01*
X313628Y551475D01*
X312517Y550808D01*
X311406Y550808D01*
X310295Y551475D01*
X309739Y552808D01*
X309739Y556141D01*
G54D12*
X305295Y548364D02*
X314184Y548364D01*
X314184Y543698D01*
G54D12*
X309739Y548364D02*
X309739Y543698D01*
G54D12*
X314184Y535920D02*
X314184Y541253D01*
X310295Y541253D01*
X310295Y540587D01*
X310850Y539253D01*
X310850Y537920D01*
X310295Y536587D01*
X309184Y535920D01*
X306962Y535920D01*
X305850Y536587D01*
X305295Y537920D01*
X305295Y539253D01*
X305850Y540587D01*
X306962Y541253D01*
G54D12*
X312517Y533476D02*
X313628Y532810D01*
X314184Y531476D01*
X314184Y530143D01*
X313628Y528810D01*
X312517Y528143D01*
X311406Y528143D01*
X310295Y528810D01*
X309739Y530143D01*
X309184Y528810D01*
X308073Y528143D01*
X306962Y528143D01*
X305850Y528810D01*
X305295Y530143D01*
X305295Y531476D01*
X305850Y532810D01*
X306962Y533476D01*
G54D12*
X312517Y520366D02*
X306962Y520366D01*
X305850Y521033D01*
X305295Y522366D01*
X305295Y523699D01*
X305850Y525033D01*
X306962Y525699D01*
X312517Y525699D01*
X313628Y525033D01*
X314184Y523699D01*
X314184Y522366D01*
X313628Y521033D01*
X312517Y520366D01*
G54D12*
X305295Y517922D02*
X314184Y517922D01*
X305295Y512589D01*
X314184Y512589D01*
G54D10*
X526740Y569594D02*
X591741Y569594D01*
X591741Y504594D01*
X526740Y504594D01*
X526740Y569594D01*
G54D10*
G75*
G01X576741Y537094D02*
G03X576741Y537094I-17500J0D01*
G01*
G54D10*
G75*
G01X560741Y537094D02*
G03X560741Y537094I-1500J0D01*
G01*
G54D10*
X418790Y569594D02*
X483791Y569594D01*
X483791Y504594D01*
X418790Y504594D01*
X418790Y569594D01*
G54D10*
G75*
G01X468791Y537094D02*
G03X468791Y537094I-17500J0D01*
G01*
G54D10*
G75*
G01X452791Y537094D02*
G03X452791Y537094I-1500J0D01*
G01*
G54D12*
X659517Y514169D02*
X662850Y517502D01*
X662850Y508614D01*
G54D12*
X670627Y515836D02*
X670627Y510280D01*
X669960Y509169D01*
X668627Y508614D01*
X667294Y508614D01*
X665960Y509169D01*
X665294Y510280D01*
X665294Y515836D01*
X665960Y516947D01*
X667294Y517502D01*
X668627Y517502D01*
X669960Y516947D01*
X670627Y515836D01*
G54D12*
X673071Y508614D02*
X673071Y517502D01*
G54D12*
X673071Y511391D02*
X678404Y517502D01*
G54D12*
X675071Y513058D02*
X678404Y508614D01*
G54D10*
X634131Y572622D02*
X704131Y572622D01*
X704131Y502622D01*
X634131Y502622D01*
X634131Y572622D01*
G54D10*
G75*
G01X683631Y537622D02*
G03X683631Y537622I-14500J0D01*
G01*
G54D10*
X659131Y547622D02*
X679131Y527622D01*
G54D10*
X240882Y582537D02*
X386982Y582537D01*
X386982Y493737D01*
X240882Y493737D01*
X240882Y582537D01*
G54D10*
X329882Y582537D02*
X329882Y493737D01*
G54D10*
G75*
G01X367982Y538137D02*
G03X367982Y538137I-12700J0D01*
G01*
G54D10*
X228382Y563537D02*
X241082Y563537D01*
G54D10*
X241082Y538137D02*
X202982Y538137D01*
G54D10*
X241082Y512737D02*
X228382Y512737D01*
G54D10*
X739978Y548937D02*
X739978Y398937D01*
G54D10*
X739978Y398937D02*
X864978Y398937D01*
G54D10*
X739978Y548937D02*
X864978Y548937D01*
X864978Y398937D01*
G54D10*
G75*
G01X837478Y473937D02*
G03X837478Y473937I-35000J0D01*
G01*
G54D10*
X767478Y473937D02*
X819978Y503937D01*
G54D10*
G75*
G01X812478Y473937D02*
G03X812478Y473937I-10000J0D01*
G01*
G54D10*
G75*
G01X791478Y432886D02*
G03X813478Y432886I11000J41051D01*
G01*
G54D10*
X789978Y433937D02*
X792478Y431437D01*
G54D10*
X789978Y433937D02*
X794978Y433937D01*
G54D10*
X814978Y433937D02*
X812478Y431437D01*
G54D10*
X814978Y433937D02*
X809978Y433937D01*
G54D10*
G75*
G01X804978Y473937D02*
G03X804978Y473937I-2500J0D01*
G01*
G54D10*
X418790Y402994D02*
X483791Y402994D01*
X483791Y467994D01*
X418790Y467994D01*
X418790Y402994D01*
G54D10*
G75*
G01X468791Y435494D02*
G03X468791Y435494I-17500J0D01*
G01*
G54D10*
G75*
G01X452791Y435494D02*
G03X452791Y435494I-1500J0D01*
G01*
G54D12*
X312994Y433629D02*
X304105Y433629D01*
X304105Y428962D01*
G54D12*
X312994Y426518D02*
X312994Y421185D01*
X311882Y421851D01*
X310216Y423185D01*
X307994Y424518D01*
X306327Y425185D01*
X304105Y425185D01*
G54D12*
X308549Y415408D02*
X308549Y416741D01*
X309105Y418074D01*
X310216Y418741D01*
X311327Y418741D01*
X312438Y418074D01*
X312994Y416741D01*
X312994Y415408D01*
X312438Y414074D01*
X311327Y413408D01*
X310216Y413408D01*
X309105Y414074D01*
X308549Y415408D01*
X307994Y414074D01*
X306882Y413408D01*
X305772Y413408D01*
X304660Y414074D01*
X304105Y415408D01*
X304105Y416741D01*
X304660Y418074D01*
X305772Y418741D01*
X306882Y418741D01*
X307994Y418074D01*
X308549Y416741D01*
G54D12*
X311327Y405631D02*
X305772Y405631D01*
X304660Y406297D01*
X304105Y407631D01*
X304105Y408964D01*
X304660Y410297D01*
X305772Y410964D01*
X311327Y410964D01*
X312438Y410297D01*
X312994Y408964D01*
X312994Y407631D01*
X312438Y406297D01*
X311327Y405631D01*
G54D12*
X312994Y397854D02*
X312994Y403187D01*
X309105Y403187D01*
X309105Y402520D01*
X309660Y401187D01*
X309660Y399854D01*
X309105Y398520D01*
X307994Y397854D01*
X305772Y397854D01*
X304660Y398520D01*
X304105Y399854D01*
X304105Y401187D01*
X304660Y402520D01*
X305772Y403187D01*
G54D10*
X239691Y464268D02*
X385791Y464268D01*
X385791Y375468D01*
X239691Y375468D01*
X239691Y464268D01*
G54D10*
X328691Y464268D02*
X328691Y375468D01*
G54D10*
G75*
G01X366791Y419868D02*
G03X366791Y419868I-12700J0D01*
G01*
G54D10*
X227191Y445268D02*
X239891Y445268D01*
G54D10*
X239891Y419868D02*
X201791Y419868D01*
G54D10*
X239891Y394468D02*
X227191Y394468D01*
G54D10*
X60325Y965449D02*
X877094Y966244D01*
X877094Y594372D01*
X60325Y594372D01*
X60341Y965597D01*
G54D10*
X122238Y880916D02*
X821928Y880916D01*
X821928Y640410D01*
X122238Y640410D01*
X122238Y880916D01*
G54D12*
X166056Y918582D02*
X169390Y909693D01*
X172723Y918582D01*
G54D12*
X175167Y909693D02*
X175167Y918582D01*
X178501Y918582D01*
X179834Y918026D01*
X180501Y916915D01*
X180501Y911359D01*
X179834Y910248D01*
X178501Y909693D01*
X175167Y909693D01*
G54D12*
X182944Y909693D02*
X182944Y918582D01*
X186278Y918582D01*
X187611Y918026D01*
X188278Y916915D01*
X188278Y911359D01*
X187611Y910248D01*
X186278Y909693D01*
X182944Y909693D01*
G54D12*
X222922Y914605D02*
X224922Y913493D01*
X225589Y912382D01*
X225589Y910160D01*
G54D12*
X220255Y910160D02*
X220255Y919049D01*
X223589Y919049D01*
X224922Y918493D01*
X225589Y917382D01*
X225589Y916271D01*
X224922Y915160D01*
X223589Y914605D01*
X220255Y914605D01*
G54D12*
X228032Y911827D02*
X228699Y910716D01*
X230032Y910160D01*
X231366Y910160D01*
X232699Y910716D01*
X233366Y911827D01*
X233366Y912938D01*
X232699Y914049D01*
X231366Y914605D01*
X230032Y914605D01*
X228699Y915160D01*
X228032Y916271D01*
X228032Y917382D01*
X228699Y918493D01*
X230032Y919049D01*
X231366Y919049D01*
X232699Y918493D01*
X233366Y917382D01*
G54D12*
X141229Y918138D02*
X144562Y909249D01*
X147896Y918138D01*
G54D12*
X150340Y910916D02*
X151007Y909805D01*
X152340Y909249D01*
X153673Y909249D01*
X155007Y909805D01*
X155673Y910916D01*
X155673Y912027D01*
X155007Y913138D01*
X153673Y913694D01*
X152340Y913694D01*
X151007Y914249D01*
X150340Y915360D01*
X150340Y916471D01*
X151007Y917583D01*
X152340Y918138D01*
X153673Y918138D01*
X155007Y917583D01*
X155673Y916471D01*
G54D12*
X158117Y910916D02*
X158784Y909805D01*
X160117Y909249D01*
X161450Y909249D01*
X162784Y909805D01*
X163450Y910916D01*
X163450Y912027D01*
X162784Y913138D01*
X161450Y913694D01*
X160117Y913694D01*
X158784Y914249D01*
X158117Y915360D01*
X158117Y916471D01*
X158784Y917583D01*
X160117Y918138D01*
X161450Y918138D01*
X162784Y917583D01*
X163450Y916471D01*
G54D12*
X193985Y918741D02*
X197318Y909852D01*
X200652Y918741D01*
G54D12*
X208429Y917074D02*
X208429Y911519D01*
X207763Y910407D01*
X206429Y909852D01*
X205096Y909852D01*
X203763Y910407D01*
X203096Y911519D01*
X203096Y917074D01*
X203763Y918185D01*
X205096Y918741D01*
X206429Y918741D01*
X207763Y918185D01*
X208429Y917074D01*
G54D10*
X149865Y950324D02*
X143465Y950324D01*
X137165Y944024D01*
X137165Y931224D01*
X143465Y924924D01*
X156265Y924924D01*
X162565Y931224D01*
X162565Y944024D01*
X156265Y950324D01*
X149865Y950324D01*
G54D10*
X175265Y950324D02*
X168865Y950324D01*
X162565Y944024D01*
X162565Y931224D01*
X168865Y924924D01*
X181665Y924924D01*
X187965Y931224D01*
X187965Y944024D01*
X181665Y950324D01*
X175265Y950324D01*
G54D10*
X200665Y950324D02*
X194265Y950324D01*
X187965Y944024D01*
X187965Y931224D01*
X194265Y924924D01*
X207065Y924924D01*
X213365Y931224D01*
X213365Y944024D01*
X207065Y950324D01*
X200665Y950324D01*
G54D12*
X248892Y914137D02*
X250892Y913026D01*
X251558Y911915D01*
X251558Y909693D01*
G54D12*
X246225Y909693D02*
X246225Y918582D01*
X249558Y918582D01*
X250892Y918026D01*
X251558Y916915D01*
X251558Y915804D01*
X250892Y914693D01*
X249558Y914137D01*
X246225Y914137D01*
G54D12*
X254002Y918582D02*
X254002Y909693D01*
X257335Y915248D01*
X260669Y909693D01*
X260669Y918582D01*
G54D12*
X280408Y909852D02*
X275741Y909852D01*
X275741Y918741D01*
X280408Y918741D01*
G54D12*
X275741Y914296D02*
X280408Y914296D01*
G54D10*
X227255Y950324D02*
X220855Y950324D01*
X214555Y944024D01*
X214555Y931224D01*
X220855Y924924D01*
X233655Y924924D01*
X239955Y931224D01*
X239955Y944024D01*
X233655Y950324D01*
X227255Y950324D01*
G54D10*
X252655Y950324D02*
X246255Y950324D01*
X239955Y944024D01*
X239955Y931224D01*
X246255Y924924D01*
X259055Y924924D01*
X265355Y931224D01*
X265355Y944024D01*
X259055Y950324D01*
X252655Y950324D01*
G54D10*
X278055Y950324D02*
X271655Y950324D01*
X265355Y944024D01*
X265355Y931224D01*
X271655Y924924D01*
X284455Y924924D01*
X290755Y931224D01*
X290755Y944024D01*
X284455Y950324D01*
X278055Y950324D01*
G54D10*
X303058Y950324D02*
X296658Y950324D01*
X290358Y944024D01*
X290358Y931224D01*
X296658Y924924D01*
X309458Y924924D01*
X315758Y931224D01*
X315758Y944024D01*
X309458Y950324D01*
X303058Y950324D01*
G54D10*
X328458Y950324D02*
X322058Y950324D01*
X315758Y944024D01*
X315758Y931224D01*
X322058Y924924D01*
X334858Y924924D01*
X341158Y931224D01*
X341158Y944024D01*
X334858Y950324D01*
X328458Y950324D01*
G54D10*
X353858Y950324D02*
X347458Y950324D01*
X341158Y944024D01*
X341158Y931224D01*
X347458Y924924D01*
X360258Y924924D01*
X366558Y931224D01*
X366558Y944024D01*
X360258Y950324D01*
X353858Y950324D01*
G54D10*
X379258Y950324D02*
X372858Y950324D01*
X366558Y944024D01*
X366558Y931224D01*
X372858Y924924D01*
X385658Y924924D01*
X391958Y931224D01*
X391958Y944024D01*
X385658Y950324D01*
X379258Y950324D01*
G54D12*
X401403Y909693D02*
X401403Y918582D01*
X404737Y918582D01*
X406070Y918026D01*
X406737Y916915D01*
X406737Y911359D01*
X406070Y910248D01*
X404737Y909693D01*
X401403Y909693D01*
G54D12*
X413180Y909693D02*
X413180Y918582D01*
X409180Y913026D01*
X409180Y911915D01*
X414514Y911915D01*
G54D12*
X424569Y909852D02*
X424569Y918741D01*
X427903Y918741D01*
X429236Y918185D01*
X429903Y917074D01*
X429903Y911519D01*
X429236Y910407D01*
X427903Y909852D01*
X424569Y909852D01*
G54D12*
X437680Y918741D02*
X432346Y918741D01*
X432346Y914852D01*
X433013Y914852D01*
X434346Y915407D01*
X435680Y915407D01*
X437013Y914852D01*
X437680Y913741D01*
X437680Y911519D01*
X437013Y910407D01*
X435680Y909852D01*
X434346Y909852D01*
X433013Y910407D01*
X432346Y911519D01*
G54D10*
X405849Y950324D02*
X399449Y950324D01*
X393149Y944024D01*
X393149Y931224D01*
X399449Y924924D01*
X412249Y924924D01*
X418549Y931224D01*
X418549Y944024D01*
X412249Y950324D01*
X405849Y950324D01*
G54D10*
X431249Y950324D02*
X424849Y950324D01*
X418549Y944024D01*
X418549Y931224D01*
X424849Y924924D01*
X437649Y924924D01*
X443949Y931224D01*
X443949Y944024D01*
X437649Y950324D01*
X431249Y950324D01*
G54D12*
X477603Y909693D02*
X477603Y918582D01*
X480937Y918582D01*
X482270Y918026D01*
X482937Y916915D01*
X482937Y911359D01*
X482270Y910248D01*
X480937Y909693D01*
X477603Y909693D01*
G54D12*
X485380Y918582D02*
X490714Y918582D01*
X490047Y917470D01*
X488714Y915804D01*
X487380Y913582D01*
X486714Y911915D01*
X486714Y909693D01*
G54D12*
X532199Y909366D02*
X532199Y918255D01*
G54D12*
X532199Y912144D02*
X537532Y918255D01*
G54D12*
X534199Y913811D02*
X537532Y909366D01*
G54D12*
X451188Y910043D02*
X451188Y918932D01*
X454522Y918932D01*
X455855Y918376D01*
X456522Y917265D01*
X456522Y911710D01*
X455855Y910599D01*
X454522Y910043D01*
X451188Y910043D01*
G54D12*
X464299Y917265D02*
X463632Y918376D01*
X462299Y918932D01*
X460965Y918932D01*
X459632Y918376D01*
X458965Y917265D01*
X458965Y914487D01*
X458965Y913932D01*
X460965Y915043D01*
X462299Y915043D01*
X463632Y914487D01*
X464299Y913376D01*
X464299Y911710D01*
X463632Y910599D01*
X462299Y910043D01*
X460965Y910043D01*
X459632Y910599D01*
X458965Y911710D01*
X458965Y914487D01*
G54D12*
X503944Y909852D02*
X507278Y918741D01*
X510611Y909852D01*
G54D12*
X505278Y913185D02*
X509278Y913185D01*
G54D10*
X456649Y950324D02*
X450249Y950324D01*
X443949Y944024D01*
X443949Y931224D01*
X450249Y924924D01*
X463049Y924924D01*
X469349Y931224D01*
X469349Y944024D01*
X463049Y950324D01*
X456649Y950324D01*
G54D10*
X482049Y950324D02*
X475649Y950324D01*
X469349Y944024D01*
X469349Y931224D01*
X475649Y924924D01*
X488449Y924924D01*
X494749Y931224D01*
X494749Y944024D01*
X488449Y950324D01*
X482049Y950324D01*
G54D10*
X507449Y950324D02*
X501049Y950324D01*
X494749Y944024D01*
X494749Y931224D01*
X501049Y924924D01*
X513849Y924924D01*
X520149Y931224D01*
X520149Y944024D01*
X513849Y950324D01*
X507449Y950324D01*
G54D10*
X534040Y950324D02*
X527640Y950324D01*
X521340Y944024D01*
X521340Y931224D01*
X527640Y924924D01*
X540440Y924924D01*
X546740Y931224D01*
X546740Y944024D01*
X540440Y950324D01*
X534040Y950324D01*
G54D11*
X768360Y570181D02*
X769294Y568625D01*
X771160Y567847D01*
X773027Y567847D01*
X774894Y568625D01*
X775827Y570181D01*
X775827Y571736D01*
X774894Y573292D01*
X773027Y574070D01*
X771160Y574070D01*
X769294Y574847D01*
X768360Y576403D01*
X768360Y577958D01*
X769294Y579514D01*
X771160Y580292D01*
X773027Y580292D01*
X774894Y579514D01*
X775827Y577958D01*
G54D11*
X786717Y567847D02*
X780183Y567847D01*
X780183Y580292D01*
X786717Y580292D01*
G54D11*
X780183Y574070D02*
X786717Y574070D01*
G54D11*
X791072Y580292D02*
X791072Y567847D01*
X797606Y567847D01*
G54D11*
X808495Y567847D02*
X801961Y567847D01*
X801961Y580292D01*
X808495Y580292D01*
G54D11*
X801961Y574070D02*
X808495Y574070D01*
G54D11*
X820317Y570181D02*
X819384Y568625D01*
X817517Y567847D01*
X815650Y567847D01*
X813784Y568625D01*
X812850Y570181D01*
X812850Y577958D01*
X813784Y579514D01*
X815650Y580292D01*
X817517Y580292D01*
X819384Y579514D01*
X820317Y577958D01*
G54D11*
X828407Y567847D02*
X828407Y580292D01*
G54D11*
X824673Y580292D02*
X832140Y580292D01*
G54D11*
X496269Y534194D02*
X496269Y546638D01*
X499380Y546638D01*
X500624Y545860D01*
X501247Y544305D01*
X501247Y542749D01*
X500624Y541194D01*
X499380Y540416D01*
X496269Y540416D01*
G54D11*
X505603Y541972D02*
X508714Y546638D01*
X508714Y534194D01*
G54D11*
X496269Y432594D02*
X496269Y445038D01*
X499380Y445038D01*
X500624Y444260D01*
X501247Y442705D01*
X501247Y441149D01*
X500624Y439594D01*
X499380Y438816D01*
X496269Y438816D01*
G54D11*
X510581Y432594D02*
X505603Y432594D01*
X505603Y433372D01*
X506225Y434927D01*
X509958Y439594D01*
X510581Y441149D01*
X510581Y442705D01*
X509958Y444260D01*
X508714Y445038D01*
X507470Y445038D01*
X506225Y444260D01*
X505603Y442705D01*
G54D11*
X604219Y534194D02*
X604219Y546638D01*
X607330Y546638D01*
X608574Y545860D01*
X609197Y544305D01*
X609197Y542749D01*
X608574Y541194D01*
X607330Y540416D01*
X604219Y540416D01*
G54D11*
X613553Y544305D02*
X614175Y545860D01*
X615420Y546638D01*
X616664Y546638D01*
X617908Y545860D01*
X618531Y544305D01*
X618531Y542749D01*
X617908Y541194D01*
X616664Y540416D01*
X617908Y539638D01*
X618531Y538083D01*
X618531Y536527D01*
X617908Y534972D01*
X616664Y534194D01*
X615420Y534194D01*
X614175Y534972D01*
X613553Y536527D01*
G54D11*
X128926Y867973D02*
X135593Y874640D01*
X135593Y856862D01*
G54D11*
X151149Y871306D02*
X149815Y873528D01*
X147149Y874640D01*
X144482Y874640D01*
X141815Y873528D01*
X140482Y871306D01*
X140482Y865751D01*
X140482Y864640D01*
X144482Y866862D01*
X147149Y866862D01*
X149815Y865751D01*
X151149Y863528D01*
X151149Y860195D01*
X149815Y857973D01*
X147149Y856862D01*
X144482Y856862D01*
X141815Y857973D01*
X140482Y860195D01*
X140482Y865751D01*
G54D11*
X156038Y866862D02*
X166705Y856862D01*
G54D11*
X156038Y856862D02*
X166705Y866862D01*
G54D11*
X182261Y856862D02*
X171594Y856862D01*
X171594Y857973D01*
X172927Y860195D01*
X180927Y866862D01*
X182261Y869084D01*
X182261Y871306D01*
X180927Y873528D01*
X178261Y874640D01*
X175594Y874640D01*
X172927Y873528D01*
X171594Y871306D01*
G54D11*
X192306Y874640D02*
X192306Y856862D01*
X201639Y856862D01*
G54D11*
X217195Y860195D02*
X215861Y857973D01*
X213195Y856862D01*
X210528Y856862D01*
X207861Y857973D01*
X206528Y860195D01*
X206528Y871306D01*
X207861Y873528D01*
X210528Y874640D01*
X213195Y874640D01*
X215861Y873528D01*
X217195Y871306D01*
G54D11*
X222084Y856862D02*
X222084Y874640D01*
X228751Y874640D01*
X231417Y873528D01*
X232751Y871306D01*
X232751Y860195D01*
X231417Y857973D01*
X228751Y856862D01*
X222084Y856862D01*
G54D11*
X246796Y874640D02*
X244129Y873528D01*
X242796Y871306D01*
X242796Y860195D01*
X244129Y857973D01*
X246796Y856862D01*
G54D11*
X251685Y867973D02*
X258352Y874640D01*
X258352Y856862D01*
G54D11*
X273908Y871306D02*
X272574Y873528D01*
X269908Y874640D01*
X267241Y874640D01*
X264574Y873528D01*
X263241Y871306D01*
X263241Y865751D01*
X263241Y864640D01*
X267241Y866862D01*
X269908Y866862D01*
X272574Y865751D01*
X273908Y863528D01*
X273908Y860195D01*
X272574Y857973D01*
X269908Y856862D01*
X267241Y856862D01*
X264574Y857973D01*
X263241Y860195D01*
X263241Y865751D01*
G54D11*
X289464Y871306D02*
X289464Y860195D01*
X288130Y857973D01*
X285464Y856862D01*
X282797Y856862D01*
X280130Y857973D01*
X278797Y860195D01*
X278797Y871306D01*
X280130Y873528D01*
X282797Y874640D01*
X285464Y874640D01*
X288130Y873528D01*
X289464Y871306D01*
G54D11*
X305020Y856862D02*
X294353Y856862D01*
X294353Y857973D01*
X295686Y860195D01*
X303686Y866862D01*
X305020Y869084D01*
X305020Y871306D01*
X303686Y873528D01*
X301020Y874640D01*
X298353Y874640D01*
X295686Y873528D01*
X294353Y871306D01*
G54D11*
X309909Y856862D02*
X316576Y874640D01*
X323242Y856862D01*
G54D11*
X312576Y863528D02*
X320576Y863528D01*
G54D11*
X328131Y874640D02*
X330798Y873528D01*
X332131Y871306D01*
X332131Y860195D01*
X330798Y857973D01*
X328131Y856862D01*
G54D10*
X526740Y402994D02*
X591741Y402994D01*
X591741Y467994D01*
X526740Y467994D01*
X526740Y402994D01*
G54D10*
G75*
G01X576740Y435494D02*
G03X576740Y435494I-17500J0D01*
G01*
G54D10*
G75*
G01X560740Y435494D02*
G03X560740Y435494I-1500J0D01*
G01*
G54D11*
X604219Y432594D02*
X604219Y445038D01*
X607330Y445038D01*
X608574Y444260D01*
X609197Y442705D01*
X609197Y441149D01*
X608574Y439594D01*
X607330Y438816D01*
X604219Y438816D01*
G54D11*
X617286Y432594D02*
X617286Y445038D01*
X613553Y437260D01*
X613553Y435705D01*
X618531Y435705D01*
G54D11*
X712169Y432594D02*
X712169Y445038D01*
X715280Y445038D01*
X716524Y444260D01*
X717147Y442705D01*
X717147Y441149D01*
X716524Y439594D01*
X715280Y438816D01*
X712169Y438816D01*
G54D11*
X726481Y445038D02*
X721503Y445038D01*
X721503Y439594D01*
X722125Y439594D01*
X723370Y440372D01*
X724614Y440372D01*
X725858Y439594D01*
X726481Y438038D01*
X726481Y434927D01*
X725858Y433372D01*
X724614Y432594D01*
X723370Y432594D01*
X722125Y433372D01*
X721503Y434927D01*
G54D10*
X632706Y402200D02*
X697706Y402200D01*
X697706Y467200D01*
X632706Y467200D01*
X632706Y402200D01*
G54D10*
G75*
G01X682706Y434700D02*
G03X682706Y434700I-17500J0D01*
G01*
G54D10*
G75*
G01X666706Y434700D02*
G03X666706Y434700I-1500J0D01*
G01*
G54D11*
X58111Y562972D02*
X70556Y562972D01*
X62778Y559860D01*
X70556Y556749D01*
X58111Y556749D01*
G54D11*
X58111Y552394D02*
X70556Y549282D01*
X58111Y546171D01*
G54D11*
X62778Y551149D02*
X62778Y547416D01*
G54D11*
X58111Y539327D02*
X70556Y539327D01*
G54D11*
X70556Y541816D02*
X70556Y536838D01*
G54D11*
X64334Y529993D02*
X62778Y528126D01*
X61222Y527504D01*
X58111Y527504D01*
G54D11*
X58111Y532482D02*
X70556Y532482D01*
X70556Y529370D01*
X69778Y528126D01*
X68222Y527504D01*
X66667Y527504D01*
X65111Y528126D01*
X64334Y529370D01*
X64334Y532482D01*
G54D11*
X58111Y523148D02*
X70556Y523148D01*
G54D11*
X70556Y518792D02*
X58111Y512569D01*
G54D11*
X58111Y518792D02*
X70556Y512569D01*
M02*
