%FSLAX34Y34*%
%MOMM*%
%LNCOPPER_BOTTOM*%
G71*
G01*
%ADD10C, 5.30*%
%ADD11C, 4.80*%
%ADD12C, 2.80*%
%ADD13C, 3.30*%
%ADD14C, 7.20*%
%ADD15C, 1.40*%
%ADD16C, 1.80*%
%ADD17R, 2.40X2.40*%
%ADD18C, 1.10*%
%ADD19C, 1.12*%
%ADD20C, 1.00*%
%ADD21R, 2.07X1.36*%
%ADD22R, 1.36X2.07*%
%ADD23C, 2.40*%
%ADD24C, 1.30*%
%ADD25C, 1.20*%
%ADD26R, 2.10X2.40*%
%ADD27C, 1.61*%
%ADD28C, 1.60*%
%ADD29C, 2.37*%
%ADD30C, 0.93*%
%ADD31C, 1.11*%
%ADD32C, 2.00*%
%ADD33C, 1.32*%
%ADD34C, 1.33*%
%ADD35C, 1.13*%
%ADD36C, 1.15*%
%ADD37C, 1.07*%
%ADD38C, 2.13*%
%ADD39C, 0.20*%
%ADD40C, 0.98*%
%ADD41C, 0.84*%
%ADD42C, 0.43*%
%ADD43C, 0.56*%
%ADD44C, 1.16*%
%ADD45C, 1.14*%
%ADD46C, 0.87*%
%ADD47C, 0.53*%
%ADD48C, 1.43*%
%ADD49C, 0.80*%
%ADD50C, 4.50*%
%ADD51C, 4.00*%
%ADD52C, 2.00*%
%ADD53C, 2.50*%
%ADD54C, 6.40*%
%ADD55C, 0.60*%
%ADD56R, 1.60X1.60*%
%ADD57C, 0.30*%
%ADD58C, 0.32*%
%ADD59R, 1.27X0.56*%
%ADD60R, 0.56X1.27*%
%ADD61C, 1.60*%
%ADD62C, 0.50*%
%ADD63C, 0.40*%
%ADD64R, 1.30X1.60*%
%ADD65C, 0.81*%
%ADD66C, 0.80*%
%LPD*%
G36*
X0Y1000000D02*
X1055000Y1000000D01*
X1055000Y302000D01*
X0Y302000D01*
X0Y1000000D01*
G37*
%LPC*%
X145836Y437050D02*
G54D10*
D03*
X77574Y440225D02*
G54D10*
D03*
X111661Y510948D02*
G54D11*
D03*
X111661Y562948D02*
G54D11*
D03*
X591741Y559594D02*
G54D12*
D03*
X526740Y559594D02*
G54D12*
D03*
X526740Y514594D02*
G54D12*
D03*
X591741Y514594D02*
G54D12*
D03*
X483791Y559594D02*
G54D12*
D03*
X418790Y559594D02*
G54D12*
D03*
X418790Y514594D02*
G54D12*
D03*
X483791Y514594D02*
G54D12*
D03*
X117601Y390215D02*
G54D10*
D03*
X669131Y562622D02*
G54D12*
D03*
X644131Y537622D02*
G54D12*
D03*
X694131Y537622D02*
G54D12*
D03*
X215682Y563537D02*
G54D13*
D03*
X190282Y538137D02*
G54D13*
D03*
X215682Y512737D02*
G54D13*
D03*
X777478Y398937D02*
G54D12*
D03*
X827478Y398937D02*
G54D12*
D03*
X802478Y398937D02*
G54D12*
D03*
X777478Y548937D02*
G54D12*
D03*
X827478Y548937D02*
G54D12*
D03*
X739978Y473937D02*
G54D11*
D03*
X864978Y473937D02*
G54D11*
D03*
X483791Y412994D02*
G54D12*
D03*
X418790Y412994D02*
G54D12*
D03*
X418790Y457994D02*
G54D12*
D03*
X483791Y457994D02*
G54D12*
D03*
X214491Y445268D02*
G54D13*
D03*
X189090Y419869D02*
G54D13*
D03*
X214491Y394468D02*
G54D13*
D03*
X149864Y937623D02*
G54D12*
D03*
X175265Y937624D02*
G54D12*
D03*
X200665Y937624D02*
G54D12*
D03*
X227255Y937624D02*
G54D12*
D03*
X252655Y937623D02*
G54D12*
D03*
X278055Y937624D02*
G54D12*
D03*
X405849Y937624D02*
G54D12*
D03*
X431249Y937624D02*
G54D12*
D03*
X456649Y937624D02*
G54D12*
D03*
X482049Y937624D02*
G54D12*
D03*
X507449Y937623D02*
G54D12*
D03*
X534039Y937623D02*
G54D12*
D03*
X844947Y624954D02*
G54D14*
D03*
X868947Y624954D02*
G54D15*
D03*
X861917Y607983D02*
G54D15*
D03*
X844947Y600954D02*
G54D15*
D03*
X827976Y607983D02*
G54D15*
D03*
X820947Y624954D02*
G54D15*
D03*
X827976Y641924D02*
G54D15*
D03*
X844947Y648954D02*
G54D15*
D03*
X861917Y641924D02*
G54D15*
D03*
X844153Y934913D02*
G54D14*
D03*
X868153Y934913D02*
G54D15*
D03*
X861124Y917942D02*
G54D15*
D03*
X844153Y910913D02*
G54D15*
D03*
X827183Y917942D02*
G54D15*
D03*
X820153Y934913D02*
G54D15*
D03*
X827183Y951883D02*
G54D15*
D03*
X844153Y958913D02*
G54D15*
D03*
X861124Y951883D02*
G54D15*
D03*
X93266Y934913D02*
G54D14*
D03*
X117266Y934913D02*
G54D15*
D03*
X110236Y917942D02*
G54D15*
D03*
X93266Y910913D02*
G54D15*
D03*
X76295Y917942D02*
G54D15*
D03*
X69266Y934913D02*
G54D15*
D03*
X76295Y951883D02*
G54D15*
D03*
X93266Y958913D02*
G54D15*
D03*
X110236Y951883D02*
G54D15*
D03*
X92869Y626541D02*
G54D14*
D03*
X116869Y626541D02*
G54D15*
D03*
X109839Y609570D02*
G54D15*
D03*
X92869Y602541D02*
G54D15*
D03*
X75898Y609570D02*
G54D15*
D03*
X68869Y626541D02*
G54D15*
D03*
X75898Y643512D02*
G54D15*
D03*
X92869Y650541D02*
G54D15*
D03*
X109839Y643512D02*
G54D15*
D03*
G54D16*
X214491Y445268D02*
X161198Y445268D01*
X145836Y429907D01*
G54D16*
X111661Y507376D02*
X111661Y475988D01*
X145836Y441813D01*
G54D16*
X190282Y542900D02*
X187747Y542900D01*
X163116Y567531D01*
X111840Y567531D01*
X111661Y567710D01*
X161233Y682991D02*
G54D17*
D03*
X161233Y654991D02*
G54D17*
D03*
X187681Y614337D02*
G54D17*
D03*
X215682Y614337D02*
G54D17*
D03*
G54D18*
X215682Y614337D02*
X215682Y563537D01*
X823498Y517695D02*
G54D17*
D03*
X823498Y489695D02*
G54D17*
D03*
G54D19*
X794064Y951262D02*
X790509Y941262D01*
X786954Y951262D01*
G54D19*
X780732Y955707D02*
X779843Y957929D01*
X778065Y959040D01*
X776287Y959040D01*
X774509Y957929D01*
X773620Y955707D01*
X773620Y953485D01*
X774509Y951262D01*
X776287Y950151D01*
X774509Y949040D01*
X773620Y946818D01*
X773620Y944596D01*
X774509Y942373D01*
X776287Y941262D01*
X778065Y941262D01*
X779843Y942373D01*
X780732Y944596D01*
G54D19*
X767398Y941262D02*
X767398Y941262D01*
G54D19*
X754066Y955707D02*
X754066Y944596D01*
X754954Y942373D01*
X756732Y941262D01*
X758510Y941262D01*
X760288Y942373D01*
X761176Y944596D01*
X761176Y955707D01*
X760288Y957929D01*
X758510Y959040D01*
X756732Y959040D01*
X754954Y957929D01*
X754066Y955707D01*
X264716Y464741D02*
G54D17*
D03*
X292715Y464741D02*
G54D17*
D03*
X264716Y394097D02*
G54D17*
D03*
X292715Y394097D02*
G54D17*
D03*
G54D16*
X264716Y464741D02*
X233963Y464741D01*
X214491Y445268D01*
G54D16*
X264716Y394097D02*
X214491Y394468D01*
G54D20*
X60325Y976959D02*
X877078Y976959D01*
G54D20*
G75*
G01X60325Y976959D02*
G03X48815Y965449I0J-11510D01*
G01*
G54D20*
G75*
G01X888588Y965449D02*
G03X877078Y976959I-11510J0D01*
G01*
G54D20*
X48815Y965449D02*
X48815Y372534D01*
G54D20*
G75*
G01X877078Y361024D02*
G03X888588Y372534I0J11510D01*
G01*
G54D20*
X888588Y965449D02*
X888588Y372534D01*
G54D20*
G75*
G01X48815Y372534D02*
G03X60325Y361024I11510J0D01*
G01*
G54D20*
X877078Y361024D02*
X60325Y361024D01*
X591741Y412994D02*
G54D12*
D03*
X526740Y412994D02*
G54D12*
D03*
X526740Y457994D02*
G54D12*
D03*
X591741Y457994D02*
G54D12*
D03*
X360138Y745355D02*
G54D21*
D03*
X360138Y753356D02*
G54D21*
D03*
X360138Y761357D02*
G54D21*
D03*
X360138Y769358D02*
G54D21*
D03*
X360138Y777359D02*
G54D21*
D03*
X360138Y785360D02*
G54D21*
D03*
X360138Y793361D02*
G54D21*
D03*
X360138Y801362D02*
G54D21*
D03*
X445990Y801362D02*
G54D21*
D03*
X445990Y793361D02*
G54D21*
D03*
X445990Y785360D02*
G54D21*
D03*
X445990Y777359D02*
G54D21*
D03*
X445990Y769358D02*
G54D21*
D03*
X445990Y761357D02*
G54D21*
D03*
X445990Y753356D02*
G54D21*
D03*
X445990Y745355D02*
G54D21*
D03*
X431055Y730420D02*
G54D22*
D03*
X423054Y730420D02*
G54D22*
D03*
X415053Y730420D02*
G54D22*
D03*
X407052Y730420D02*
G54D22*
D03*
X399051Y730420D02*
G54D22*
D03*
X391050Y730420D02*
G54D22*
D03*
X383049Y730420D02*
G54D22*
D03*
X375048Y730420D02*
G54D22*
D03*
X375049Y816271D02*
G54D22*
D03*
X383050Y816271D02*
G54D22*
D03*
X391051Y816271D02*
G54D22*
D03*
X399052Y816271D02*
G54D22*
D03*
X407053Y816271D02*
G54D22*
D03*
X415054Y816271D02*
G54D22*
D03*
X423055Y816271D02*
G54D22*
D03*
X431056Y816271D02*
G54D22*
D03*
G36*
X444401Y695360D02*
X444401Y671360D01*
X420401Y671360D01*
X420401Y695360D01*
X444401Y695360D01*
G37*
X407002Y683360D02*
G54D23*
D03*
X381602Y683360D02*
G54D23*
D03*
X356202Y683360D02*
G54D23*
D03*
X330802Y683360D02*
G54D23*
D03*
X305402Y683360D02*
G54D23*
D03*
G54D24*
X355773Y769358D02*
X349499Y769358D01*
X344438Y774419D01*
X344438Y779514D01*
X350340Y785416D01*
X366612Y785416D01*
X375344Y794148D01*
X469851Y794183D01*
G54D25*
X360138Y777359D02*
X370701Y777359D01*
X373359Y774701D01*
X373359Y764367D01*
X370394Y761401D01*
X360138Y761357D01*
X277265Y813992D02*
G54D26*
D03*
X255884Y813992D02*
G54D26*
D03*
G54D25*
X360138Y777359D02*
X427498Y776962D01*
X435102Y769358D01*
X445990Y769358D01*
X399207Y716396D02*
G54D27*
D03*
G54D18*
X399051Y730420D02*
X399051Y716637D01*
X398810Y716396D01*
G54D18*
X391050Y728435D02*
X391050Y707064D01*
X384075Y700088D01*
X364628Y700088D01*
X356690Y692151D01*
X356690Y682658D01*
X356202Y682169D01*
G54D18*
X383049Y733198D02*
X383049Y710969D01*
X380106Y708026D01*
X339228Y708026D01*
X331290Y700088D01*
X331290Y686627D01*
X330802Y686138D01*
X370235Y646149D02*
G54D27*
D03*
G54D18*
X371822Y646149D02*
X355881Y646149D01*
X349100Y645320D01*
X314568Y765132D02*
G54D12*
D03*
X314568Y815132D02*
G54D12*
D03*
G54D18*
X314568Y815132D02*
X346368Y815132D01*
X360138Y801362D01*
G54D18*
X360138Y793361D02*
X342798Y793361D01*
X314568Y765132D01*
X276868Y763589D02*
G54D26*
D03*
X255487Y763589D02*
G54D26*
D03*
G54D18*
X276868Y763589D02*
X313026Y763589D01*
X314568Y765132D01*
G54D18*
X277265Y813992D02*
X313429Y813992D01*
X314568Y815132D01*
G54D18*
X391051Y816271D02*
X391165Y898767D01*
X409178Y916781D01*
X468312Y916384D01*
X481012Y929084D01*
X482049Y937624D01*
G54D18*
X399052Y816271D02*
X399102Y892417D01*
X413147Y906462D01*
X457200Y906859D01*
X457200Y906859D02*
G54D27*
D03*
G54D18*
X407053Y816271D02*
X407053Y885287D01*
X417512Y895746D01*
X431800Y895746D01*
X431800Y895746D02*
G54D27*
D03*
G54D18*
X415054Y816271D02*
X415925Y873521D01*
X415925Y873521D02*
G54D27*
D03*
X431800Y830659D02*
G54D27*
D03*
G54D18*
X431056Y816271D02*
X431056Y829815D01*
X430212Y830659D01*
X423862Y851296D02*
G54D27*
D03*
G54D18*
X423055Y816271D02*
X423055Y850489D01*
X423862Y851296D01*
G54D24*
X175265Y937624D02*
X175265Y954727D01*
X184150Y963612D01*
X494161Y963612D01*
X507449Y950324D01*
X507449Y937623D01*
X445691Y817959D02*
G54D27*
D03*
G54D25*
X445990Y801362D02*
X445990Y817659D01*
X445691Y817959D01*
X338138Y742156D02*
G54D27*
D03*
X161208Y702960D02*
G54D27*
D03*
G54D18*
X161233Y682991D02*
X161233Y701397D01*
X162795Y702960D01*
G54D18*
X360138Y745355D02*
X341337Y745355D01*
X338138Y742156D01*
X357981Y729853D02*
G54D27*
D03*
G54D18*
X375048Y730420D02*
X358548Y730420D01*
X357981Y729853D01*
G54D24*
X469851Y794183D02*
X481843Y794183D01*
X506016Y818356D01*
X506016Y936983D01*
X507449Y938417D01*
G54D24*
X418790Y514594D02*
X418790Y457994D01*
X349100Y645320D02*
G54D26*
D03*
X327718Y645320D02*
G54D26*
D03*
G54D18*
X305402Y683360D02*
X305402Y667637D01*
X327718Y645320D01*
G54D18*
X161233Y654991D02*
X197496Y654991D01*
X215900Y636587D01*
X215900Y614556D01*
X215682Y614337D01*
G54D24*
X526740Y514594D02*
X526740Y457994D01*
X697706Y412200D02*
G54D12*
D03*
X632706Y412200D02*
G54D12*
D03*
X632706Y457200D02*
G54D12*
D03*
X697706Y457200D02*
G54D12*
D03*
G54D24*
X644131Y537622D02*
X644131Y468625D01*
X632706Y457200D01*
X486916Y733858D02*
G54D27*
D03*
X486916Y719968D02*
G54D27*
D03*
X486916Y706871D02*
G54D27*
D03*
X486916Y693377D02*
G54D27*
D03*
G54D18*
X407052Y730420D02*
X407052Y708154D01*
X411944Y703262D01*
X461169Y703262D01*
X471091Y693340D01*
X486879Y693340D01*
X486916Y693377D01*
G54D18*
X415053Y730420D02*
X415053Y714056D01*
X418306Y710803D01*
X469106Y710803D01*
X474266Y705643D01*
X485689Y705643D01*
X486916Y706871D01*
G54D18*
X423054Y730420D02*
X423054Y721533D01*
X426641Y717946D01*
X484895Y717946D01*
X486916Y719968D01*
G54D18*
X431055Y730420D02*
X483478Y730420D01*
X486916Y733858D01*
X451247Y551259D02*
G54D17*
D03*
X451247Y523259D02*
G54D17*
D03*
X558403Y550068D02*
G54D17*
D03*
X558403Y522068D02*
G54D17*
D03*
X450453Y451643D02*
G54D17*
D03*
X450453Y423643D02*
G54D17*
D03*
X558403Y451643D02*
G54D17*
D03*
X558403Y423643D02*
G54D17*
D03*
X666353Y448468D02*
G54D17*
D03*
X666353Y420468D02*
G54D17*
D03*
G54D24*
X419100Y487362D02*
X644525Y487362D01*
G54D18*
X418790Y559594D02*
X442912Y559594D01*
X451247Y551259D01*
G54D18*
X526740Y559594D02*
X548878Y559594D01*
X558403Y550068D01*
G54D18*
X418790Y412994D02*
X439804Y412994D01*
X450453Y423643D01*
G54D18*
X526740Y412994D02*
X547754Y412994D01*
X558403Y423643D01*
G54D18*
X632706Y412200D02*
X658085Y412200D01*
X666353Y420468D01*
X502791Y762433D02*
G54D27*
D03*
X502791Y748543D02*
G54D27*
D03*
G54D18*
X445990Y745355D02*
X499604Y745355D01*
X502791Y748543D01*
G54D18*
X445990Y753356D02*
X485069Y753356D01*
X495300Y763587D01*
X501638Y763587D01*
X502791Y762433D01*
X779048Y517695D02*
G54D17*
D03*
X779048Y489695D02*
G54D17*
D03*
X823516Y459006D02*
G54D17*
D03*
X823516Y431006D02*
G54D17*
D03*
X779066Y459006D02*
G54D17*
D03*
X779066Y431006D02*
G54D17*
D03*
G54D24*
X644525Y487362D02*
X705644Y487362D01*
X738188Y519906D01*
X821287Y519906D01*
X823498Y517695D01*
G54D18*
X777478Y398937D02*
X770653Y398937D01*
X757634Y411956D01*
X757634Y437575D01*
X779066Y459006D01*
G54D18*
X827087Y399334D02*
X833912Y399334D01*
X846931Y412353D01*
X846931Y437972D01*
X825500Y459403D01*
G54D18*
X779048Y489695D02*
X779048Y459023D01*
X779066Y459006D01*
G54D18*
X823498Y489695D02*
X823498Y459023D01*
X823516Y459006D01*
X341691Y601090D02*
G54D17*
D03*
X369691Y601090D02*
G54D17*
D03*
G54D24*
X381602Y683360D02*
X390525Y674436D01*
X390525Y542859D01*
X418790Y514594D01*
G54D24*
X369691Y601090D02*
X389556Y601090D01*
X389731Y601265D01*
G54D18*
X349100Y645320D02*
X349100Y608498D01*
X341691Y601090D01*
X441325Y646112D02*
G54D12*
D03*
X441325Y621112D02*
G54D12*
D03*
G54D24*
X264716Y400844D02*
X264716Y435371D01*
X275431Y446087D01*
X406883Y446087D01*
X418790Y457994D01*
G54D24*
X506016Y817562D02*
X710406Y817562D01*
X736203Y791765D01*
X736203Y521890D01*
X738188Y519906D01*
X574343Y790057D02*
G54D28*
D03*
X640621Y727351D02*
G54D28*
D03*
X573288Y708767D02*
G54D28*
D03*
X639827Y643610D02*
G54D28*
D03*
X392574Y776960D02*
G54D28*
D03*
X416782Y777359D02*
G54D28*
D03*
X283036Y590826D02*
G54D28*
D03*
X280406Y548626D02*
G54D28*
D03*
X180773Y384766D02*
G54D28*
D03*
X865252Y388420D02*
G54D28*
D03*
X390193Y479304D02*
G54D28*
D03*
X385033Y413423D02*
G54D28*
D03*
X469568Y876973D02*
G54D28*
D03*
X469568Y841254D02*
G54D28*
D03*
X800561Y472954D02*
G54D28*
D03*
X331586Y379607D02*
G54D28*
D03*
X708883Y656310D02*
G54D28*
D03*
X708090Y572570D02*
G54D28*
D03*
%LPD*%
G54D29*
G36*
X65724Y440225D02*
X65724Y467225D01*
X89424Y467225D01*
X89424Y440225D01*
X65724Y440225D01*
G37*
G36*
X77574Y452075D02*
X104574Y452075D01*
X104574Y428375D01*
X77574Y428375D01*
X77574Y452075D01*
G37*
G36*
X89424Y440225D02*
X89424Y413225D01*
X65724Y413225D01*
X65724Y440225D01*
X89424Y440225D01*
G37*
G54D30*
G36*
X698798Y537622D02*
X698798Y523122D01*
X689464Y523122D01*
X689464Y537622D01*
X698798Y537622D01*
G37*
G36*
X694131Y532955D02*
X679631Y532955D01*
X679631Y542288D01*
X694131Y542288D01*
X694131Y532955D01*
G37*
G36*
X689464Y537622D02*
X689464Y552122D01*
X698798Y552122D01*
X698798Y537622D01*
X689464Y537622D01*
G37*
G36*
X694131Y542288D02*
X708631Y542288D01*
X708631Y532955D01*
X694131Y532955D01*
X694131Y542288D01*
G37*
G54D31*
G36*
X215682Y518278D02*
X232682Y518278D01*
X232682Y507195D01*
X215682Y507195D01*
X215682Y518278D01*
G37*
G36*
X221223Y512737D02*
X221223Y495737D01*
X210140Y495737D01*
X210140Y512737D01*
X221223Y512737D01*
G37*
G36*
X215682Y507195D02*
X198682Y507195D01*
X198682Y518278D01*
X215682Y518278D01*
X215682Y507195D01*
G37*
G36*
X210140Y512737D02*
X210140Y529737D01*
X221223Y529737D01*
X221223Y512737D01*
X210140Y512737D01*
G37*
G54D32*
G36*
X792478Y398937D02*
X792478Y413437D01*
X812478Y413437D01*
X812478Y398937D01*
X792478Y398937D01*
G37*
G36*
X812478Y398937D02*
X812478Y384437D01*
X792478Y384437D01*
X792478Y398937D01*
X812478Y398937D01*
G37*
G54D33*
G36*
X820878Y548937D02*
X820878Y563437D01*
X834078Y563437D01*
X834078Y548937D01*
X820878Y548937D01*
G37*
G36*
X827478Y555537D02*
X841978Y555537D01*
X841978Y542337D01*
X827478Y542337D01*
X827478Y555537D01*
G37*
G36*
X834078Y548937D02*
X834078Y534437D01*
X820878Y534437D01*
X820878Y548937D01*
X834078Y548937D01*
G37*
G36*
X827478Y542337D02*
X812978Y542337D01*
X812978Y555537D01*
X827478Y555537D01*
X827478Y542337D01*
G37*
G54D34*
G36*
X733311Y473937D02*
X733311Y498437D01*
X746645Y498437D01*
X746645Y473937D01*
X733311Y473937D01*
G37*
G36*
X739978Y480604D02*
X764478Y480604D01*
X764478Y467270D01*
X739978Y467270D01*
X739978Y480604D01*
G37*
G36*
X746645Y473937D02*
X746645Y449437D01*
X733311Y449437D01*
X733311Y473937D01*
X746645Y473937D01*
G37*
G36*
X739978Y467270D02*
X715478Y467270D01*
X715478Y480604D01*
X739978Y480604D01*
X739978Y467270D01*
G37*
G54D34*
G36*
X858311Y473937D02*
X858311Y498437D01*
X871645Y498437D01*
X871645Y473937D01*
X858311Y473937D01*
G37*
G36*
X871645Y473937D02*
X871645Y449437D01*
X858311Y449437D01*
X858311Y473937D01*
X871645Y473937D01*
G37*
G36*
X864978Y467270D02*
X840478Y467270D01*
X840478Y480604D01*
X864978Y480604D01*
X864978Y467270D01*
G37*
G54D35*
G36*
X189090Y425536D02*
X206090Y425536D01*
X206090Y414202D01*
X189090Y414202D01*
X189090Y425536D01*
G37*
G36*
X194757Y419869D02*
X194757Y402869D01*
X183424Y402869D01*
X183424Y419869D01*
X194757Y419869D01*
G37*
G36*
X189090Y414202D02*
X172090Y414202D01*
X172090Y425536D01*
X189090Y425536D01*
X189090Y414202D01*
G37*
G54D24*
G36*
X143364Y937623D02*
X143364Y952123D01*
X156364Y952123D01*
X156364Y937623D01*
X143364Y937623D01*
G37*
G36*
X156364Y937623D02*
X156364Y923123D01*
X143364Y923123D01*
X143364Y937623D01*
X156364Y937623D01*
G37*
G36*
X149864Y931123D02*
X135364Y931123D01*
X135364Y944123D01*
X149864Y944123D01*
X149864Y931123D01*
G37*
G54D36*
G36*
X246889Y937623D02*
X246889Y952123D01*
X258422Y952123D01*
X258422Y937623D01*
X246889Y937623D01*
G37*
G36*
X258422Y937623D02*
X258422Y923123D01*
X246889Y923123D01*
X246889Y937623D01*
X258422Y937623D01*
G37*
G54D37*
G36*
X528673Y937623D02*
X528673Y952123D01*
X539406Y952123D01*
X539406Y937623D01*
X528673Y937623D01*
G37*
G36*
X534039Y942990D02*
X548539Y942990D01*
X548539Y932256D01*
X534039Y932256D01*
X534039Y942990D01*
G37*
G36*
X539406Y937623D02*
X539406Y923123D01*
X528673Y923123D01*
X528673Y937623D01*
X539406Y937623D01*
G37*
G54D38*
G36*
X834280Y624954D02*
X834280Y661454D01*
X855613Y661454D01*
X855613Y624954D01*
X834280Y624954D01*
G37*
G36*
X844947Y635620D02*
X881447Y635620D01*
X881447Y614287D01*
X844947Y614287D01*
X844947Y635620D01*
G37*
G36*
X855613Y624954D02*
X855613Y588454D01*
X834280Y588454D01*
X834280Y624954D01*
X855613Y624954D01*
G37*
G36*
X844947Y614287D02*
X808447Y614287D01*
X808447Y635620D01*
X844947Y635620D01*
X844947Y614287D01*
G37*
G54D39*
G36*
X867947Y624954D02*
X867947Y632454D01*
X869947Y632454D01*
X869947Y624954D01*
X867947Y624954D01*
G37*
G36*
X868947Y625954D02*
X876447Y625954D01*
X876447Y623954D01*
X868947Y623954D01*
X868947Y625954D01*
G37*
G36*
X869947Y624954D02*
X869947Y617454D01*
X867947Y617454D01*
X867947Y624954D01*
X869947Y624954D01*
G37*
G36*
X868947Y623954D02*
X861447Y623954D01*
X861447Y625954D01*
X868947Y625954D01*
X868947Y623954D01*
G37*
G54D39*
G36*
X860917Y607983D02*
X860917Y615483D01*
X862917Y615483D01*
X862917Y607983D01*
X860917Y607983D01*
G37*
G36*
X861917Y608983D02*
X869417Y608983D01*
X869417Y606983D01*
X861917Y606983D01*
X861917Y608983D01*
G37*
G36*
X862917Y607983D02*
X862917Y600483D01*
X860917Y600483D01*
X860917Y607983D01*
X862917Y607983D01*
G37*
G36*
X861917Y606983D02*
X854417Y606983D01*
X854417Y608983D01*
X861917Y608983D01*
X861917Y606983D01*
G37*
G54D39*
G36*
X843947Y600954D02*
X843947Y608454D01*
X845947Y608454D01*
X845947Y600954D01*
X843947Y600954D01*
G37*
G36*
X844947Y601954D02*
X852447Y601954D01*
X852447Y599954D01*
X844947Y599954D01*
X844947Y601954D01*
G37*
G36*
X845947Y600954D02*
X845947Y593454D01*
X843947Y593454D01*
X843947Y600954D01*
X845947Y600954D01*
G37*
G36*
X844947Y599954D02*
X837447Y599954D01*
X837447Y601954D01*
X844947Y601954D01*
X844947Y599954D01*
G37*
G54D39*
G36*
X826976Y607983D02*
X826976Y615483D01*
X828976Y615483D01*
X828976Y607983D01*
X826976Y607983D01*
G37*
G36*
X827976Y608983D02*
X835476Y608983D01*
X835476Y606983D01*
X827976Y606983D01*
X827976Y608983D01*
G37*
G36*
X828976Y607983D02*
X828976Y600483D01*
X826976Y600483D01*
X826976Y607983D01*
X828976Y607983D01*
G37*
G36*
X827976Y606983D02*
X820476Y606983D01*
X820476Y608983D01*
X827976Y608983D01*
X827976Y606983D01*
G37*
G54D39*
G36*
X819947Y624954D02*
X819947Y632454D01*
X821947Y632454D01*
X821947Y624954D01*
X819947Y624954D01*
G37*
G36*
X820947Y625954D02*
X828447Y625954D01*
X828447Y623954D01*
X820947Y623954D01*
X820947Y625954D01*
G37*
G36*
X821947Y624954D02*
X821947Y617454D01*
X819947Y617454D01*
X819947Y624954D01*
X821947Y624954D01*
G37*
G36*
X820947Y623954D02*
X813447Y623954D01*
X813447Y625954D01*
X820947Y625954D01*
X820947Y623954D01*
G37*
G54D39*
G36*
X826976Y641924D02*
X826976Y649424D01*
X828976Y649424D01*
X828976Y641924D01*
X826976Y641924D01*
G37*
G36*
X827976Y642924D02*
X835476Y642924D01*
X835476Y640924D01*
X827976Y640924D01*
X827976Y642924D01*
G37*
G36*
X828976Y641924D02*
X828976Y634424D01*
X826976Y634424D01*
X826976Y641924D01*
X828976Y641924D01*
G37*
G36*
X827976Y640924D02*
X820476Y640924D01*
X820476Y642924D01*
X827976Y642924D01*
X827976Y640924D01*
G37*
G54D39*
G36*
X843947Y648954D02*
X843947Y656454D01*
X845947Y656454D01*
X845947Y648954D01*
X843947Y648954D01*
G37*
G36*
X844947Y649954D02*
X852447Y649954D01*
X852447Y647954D01*
X844947Y647954D01*
X844947Y649954D01*
G37*
G36*
X845947Y648954D02*
X845947Y641454D01*
X843947Y641454D01*
X843947Y648954D01*
X845947Y648954D01*
G37*
G36*
X844947Y647954D02*
X837447Y647954D01*
X837447Y649954D01*
X844947Y649954D01*
X844947Y647954D01*
G37*
G54D39*
G36*
X860917Y641924D02*
X860917Y649424D01*
X862917Y649424D01*
X862917Y641924D01*
X860917Y641924D01*
G37*
G36*
X861917Y642924D02*
X869417Y642924D01*
X869417Y640924D01*
X861917Y640924D01*
X861917Y642924D01*
G37*
G36*
X862917Y641924D02*
X862917Y634424D01*
X860917Y634424D01*
X860917Y641924D01*
X862917Y641924D01*
G37*
G36*
X861917Y640924D02*
X854417Y640924D01*
X854417Y642924D01*
X861917Y642924D01*
X861917Y640924D01*
G37*
G54D38*
G36*
X833486Y934913D02*
X833486Y971413D01*
X854820Y971413D01*
X854820Y934913D01*
X833486Y934913D01*
G37*
G36*
X844153Y945579D02*
X880653Y945579D01*
X880653Y924246D01*
X844153Y924246D01*
X844153Y945579D01*
G37*
G36*
X854820Y934913D02*
X854820Y898413D01*
X833486Y898413D01*
X833486Y934913D01*
X854820Y934913D01*
G37*
G36*
X844153Y924246D02*
X807653Y924246D01*
X807653Y945579D01*
X844153Y945579D01*
X844153Y924246D01*
G37*
G54D39*
G36*
X867153Y934913D02*
X867153Y942413D01*
X869153Y942413D01*
X869153Y934913D01*
X867153Y934913D01*
G37*
G36*
X868153Y935913D02*
X875653Y935913D01*
X875653Y933913D01*
X868153Y933913D01*
X868153Y935913D01*
G37*
G36*
X869153Y934913D02*
X869153Y927413D01*
X867153Y927413D01*
X867153Y934913D01*
X869153Y934913D01*
G37*
G36*
X868153Y933913D02*
X860653Y933913D01*
X860653Y935913D01*
X868153Y935913D01*
X868153Y933913D01*
G37*
G54D39*
G36*
X860124Y917942D02*
X860124Y925442D01*
X862124Y925442D01*
X862124Y917942D01*
X860124Y917942D01*
G37*
G36*
X861124Y918942D02*
X868624Y918942D01*
X868624Y916942D01*
X861124Y916942D01*
X861124Y918942D01*
G37*
G36*
X862124Y917942D02*
X862124Y910442D01*
X860124Y910442D01*
X860124Y917942D01*
X862124Y917942D01*
G37*
G36*
X861124Y916942D02*
X853624Y916942D01*
X853624Y918942D01*
X861124Y918942D01*
X861124Y916942D01*
G37*
G54D39*
G36*
X843153Y910913D02*
X843153Y918413D01*
X845153Y918413D01*
X845153Y910913D01*
X843153Y910913D01*
G37*
G36*
X844153Y911913D02*
X851653Y911913D01*
X851653Y909913D01*
X844153Y909913D01*
X844153Y911913D01*
G37*
G36*
X845153Y910913D02*
X845153Y903413D01*
X843153Y903413D01*
X843153Y910913D01*
X845153Y910913D01*
G37*
G36*
X844153Y909913D02*
X836653Y909913D01*
X836653Y911913D01*
X844153Y911913D01*
X844153Y909913D01*
G37*
G54D39*
G36*
X826183Y917942D02*
X826183Y925442D01*
X828183Y925442D01*
X828183Y917942D01*
X826183Y917942D01*
G37*
G36*
X827183Y918942D02*
X834683Y918942D01*
X834683Y916942D01*
X827183Y916942D01*
X827183Y918942D01*
G37*
G36*
X828183Y917942D02*
X828183Y910442D01*
X826183Y910442D01*
X826183Y917942D01*
X828183Y917942D01*
G37*
G36*
X827183Y916942D02*
X819683Y916942D01*
X819683Y918942D01*
X827183Y918942D01*
X827183Y916942D01*
G37*
G54D39*
G36*
X819153Y934913D02*
X819153Y942413D01*
X821153Y942413D01*
X821153Y934913D01*
X819153Y934913D01*
G37*
G36*
X820153Y935913D02*
X827653Y935913D01*
X827653Y933913D01*
X820153Y933913D01*
X820153Y935913D01*
G37*
G36*
X821153Y934913D02*
X821153Y927413D01*
X819153Y927413D01*
X819153Y934913D01*
X821153Y934913D01*
G37*
G36*
X820153Y933913D02*
X812653Y933913D01*
X812653Y935913D01*
X820153Y935913D01*
X820153Y933913D01*
G37*
G54D39*
G36*
X826183Y951883D02*
X826183Y959383D01*
X828183Y959383D01*
X828183Y951883D01*
X826183Y951883D01*
G37*
G36*
X827183Y952883D02*
X834683Y952883D01*
X834683Y950883D01*
X827183Y950883D01*
X827183Y952883D01*
G37*
G36*
X828183Y951883D02*
X828183Y944383D01*
X826183Y944383D01*
X826183Y951883D01*
X828183Y951883D01*
G37*
G36*
X827183Y950883D02*
X819683Y950883D01*
X819683Y952883D01*
X827183Y952883D01*
X827183Y950883D01*
G37*
G54D39*
G36*
X843153Y958913D02*
X843153Y966413D01*
X845153Y966413D01*
X845153Y958913D01*
X843153Y958913D01*
G37*
G36*
X844153Y959913D02*
X851653Y959913D01*
X851653Y957913D01*
X844153Y957913D01*
X844153Y959913D01*
G37*
G36*
X845153Y958913D02*
X845153Y951413D01*
X843153Y951413D01*
X843153Y958913D01*
X845153Y958913D01*
G37*
G36*
X844153Y957913D02*
X836653Y957913D01*
X836653Y959913D01*
X844153Y959913D01*
X844153Y957913D01*
G37*
G54D39*
G36*
X860124Y951883D02*
X860124Y959383D01*
X862124Y959383D01*
X862124Y951883D01*
X860124Y951883D01*
G37*
G36*
X861124Y952883D02*
X868624Y952883D01*
X868624Y950883D01*
X861124Y950883D01*
X861124Y952883D01*
G37*
G36*
X862124Y951883D02*
X862124Y944383D01*
X860124Y944383D01*
X860124Y951883D01*
X862124Y951883D01*
G37*
G36*
X861124Y950883D02*
X853624Y950883D01*
X853624Y952883D01*
X861124Y952883D01*
X861124Y950883D01*
G37*
G54D38*
G36*
X82599Y934913D02*
X82599Y971413D01*
X103932Y971413D01*
X103932Y934913D01*
X82599Y934913D01*
G37*
G36*
X93266Y945579D02*
X129766Y945579D01*
X129766Y924246D01*
X93266Y924246D01*
X93266Y945579D01*
G37*
G36*
X103932Y934913D02*
X103932Y898413D01*
X82599Y898413D01*
X82599Y934913D01*
X103932Y934913D01*
G37*
G36*
X93266Y924246D02*
X56766Y924246D01*
X56766Y945579D01*
X93266Y945579D01*
X93266Y924246D01*
G37*
G54D39*
G36*
X116266Y934913D02*
X116266Y942413D01*
X118266Y942413D01*
X118266Y934913D01*
X116266Y934913D01*
G37*
G36*
X117266Y935913D02*
X124766Y935913D01*
X124766Y933913D01*
X117266Y933913D01*
X117266Y935913D01*
G37*
G36*
X118266Y934913D02*
X118266Y927413D01*
X116266Y927413D01*
X116266Y934913D01*
X118266Y934913D01*
G37*
G36*
X117266Y933913D02*
X109766Y933913D01*
X109766Y935913D01*
X117266Y935913D01*
X117266Y933913D01*
G37*
G54D39*
G36*
X109236Y917942D02*
X109236Y925442D01*
X111236Y925442D01*
X111236Y917942D01*
X109236Y917942D01*
G37*
G36*
X110236Y918942D02*
X117736Y918942D01*
X117736Y916942D01*
X110236Y916942D01*
X110236Y918942D01*
G37*
G36*
X111236Y917942D02*
X111236Y910442D01*
X109236Y910442D01*
X109236Y917942D01*
X111236Y917942D01*
G37*
G36*
X110236Y916942D02*
X102736Y916942D01*
X102736Y918942D01*
X110236Y918942D01*
X110236Y916942D01*
G37*
G54D39*
G36*
X92266Y910913D02*
X92266Y918413D01*
X94266Y918413D01*
X94266Y910913D01*
X92266Y910913D01*
G37*
G36*
X93266Y911913D02*
X100766Y911913D01*
X100766Y909913D01*
X93266Y909913D01*
X93266Y911913D01*
G37*
G36*
X94266Y910913D02*
X94266Y903413D01*
X92266Y903413D01*
X92266Y910913D01*
X94266Y910913D01*
G37*
G36*
X93266Y909913D02*
X85766Y909913D01*
X85766Y911913D01*
X93266Y911913D01*
X93266Y909913D01*
G37*
G54D39*
G36*
X75295Y917942D02*
X75295Y925442D01*
X77295Y925442D01*
X77295Y917942D01*
X75295Y917942D01*
G37*
G36*
X76295Y918942D02*
X83795Y918942D01*
X83795Y916942D01*
X76295Y916942D01*
X76295Y918942D01*
G37*
G36*
X77295Y917942D02*
X77295Y910442D01*
X75295Y910442D01*
X75295Y917942D01*
X77295Y917942D01*
G37*
G36*
X76295Y916942D02*
X68795Y916942D01*
X68795Y918942D01*
X76295Y918942D01*
X76295Y916942D01*
G37*
G54D39*
G36*
X68266Y934913D02*
X68266Y942413D01*
X70266Y942413D01*
X70266Y934913D01*
X68266Y934913D01*
G37*
G36*
X69266Y935913D02*
X76766Y935913D01*
X76766Y933913D01*
X69266Y933913D01*
X69266Y935913D01*
G37*
G36*
X70266Y934913D02*
X70266Y927413D01*
X68266Y927413D01*
X68266Y934913D01*
X70266Y934913D01*
G37*
G36*
X69266Y933913D02*
X61766Y933913D01*
X61766Y935913D01*
X69266Y935913D01*
X69266Y933913D01*
G37*
G54D39*
G36*
X75295Y951883D02*
X75295Y959383D01*
X77295Y959383D01*
X77295Y951883D01*
X75295Y951883D01*
G37*
G36*
X76295Y952883D02*
X83795Y952883D01*
X83795Y950883D01*
X76295Y950883D01*
X76295Y952883D01*
G37*
G36*
X77295Y951883D02*
X77295Y944383D01*
X75295Y944383D01*
X75295Y951883D01*
X77295Y951883D01*
G37*
G36*
X76295Y950883D02*
X68795Y950883D01*
X68795Y952883D01*
X76295Y952883D01*
X76295Y950883D01*
G37*
G54D39*
G36*
X92266Y958913D02*
X92266Y966413D01*
X94266Y966413D01*
X94266Y958913D01*
X92266Y958913D01*
G37*
G36*
X93266Y959913D02*
X100766Y959913D01*
X100766Y957913D01*
X93266Y957913D01*
X93266Y959913D01*
G37*
G36*
X94266Y958913D02*
X94266Y951413D01*
X92266Y951413D01*
X92266Y958913D01*
X94266Y958913D01*
G37*
G36*
X93266Y957913D02*
X85766Y957913D01*
X85766Y959913D01*
X93266Y959913D01*
X93266Y957913D01*
G37*
G54D39*
G36*
X109236Y951883D02*
X109236Y959383D01*
X111236Y959383D01*
X111236Y951883D01*
X109236Y951883D01*
G37*
G36*
X110236Y952883D02*
X117736Y952883D01*
X117736Y950883D01*
X110236Y950883D01*
X110236Y952883D01*
G37*
G36*
X111236Y951883D02*
X111236Y944383D01*
X109236Y944383D01*
X109236Y951883D01*
X111236Y951883D01*
G37*
G36*
X110236Y950883D02*
X102736Y950883D01*
X102736Y952883D01*
X110236Y952883D01*
X110236Y950883D01*
G37*
G54D38*
G36*
X82202Y626541D02*
X82202Y663041D01*
X103535Y663041D01*
X103535Y626541D01*
X82202Y626541D01*
G37*
G36*
X92869Y637208D02*
X129369Y637208D01*
X129369Y615874D01*
X92869Y615874D01*
X92869Y637208D01*
G37*
G36*
X103535Y626541D02*
X103535Y590041D01*
X82202Y590041D01*
X82202Y626541D01*
X103535Y626541D01*
G37*
G36*
X92869Y615874D02*
X56369Y615874D01*
X56369Y637208D01*
X92869Y637208D01*
X92869Y615874D01*
G37*
G54D39*
G36*
X115869Y626541D02*
X115869Y634041D01*
X117869Y634041D01*
X117869Y626541D01*
X115869Y626541D01*
G37*
G36*
X116869Y627541D02*
X124369Y627541D01*
X124369Y625541D01*
X116869Y625541D01*
X116869Y627541D01*
G37*
G36*
X117869Y626541D02*
X117869Y619041D01*
X115869Y619041D01*
X115869Y626541D01*
X117869Y626541D01*
G37*
G36*
X116869Y625541D02*
X109369Y625541D01*
X109369Y627541D01*
X116869Y627541D01*
X116869Y625541D01*
G37*
G54D39*
G36*
X108839Y609570D02*
X108839Y617070D01*
X110839Y617070D01*
X110839Y609570D01*
X108839Y609570D01*
G37*
G36*
X109839Y610570D02*
X117339Y610570D01*
X117339Y608570D01*
X109839Y608570D01*
X109839Y610570D01*
G37*
G36*
X110839Y609570D02*
X110839Y602070D01*
X108839Y602070D01*
X108839Y609570D01*
X110839Y609570D01*
G37*
G36*
X109839Y608570D02*
X102339Y608570D01*
X102339Y610570D01*
X109839Y610570D01*
X109839Y608570D01*
G37*
G54D39*
G36*
X91869Y602541D02*
X91869Y610041D01*
X93869Y610041D01*
X93869Y602541D01*
X91869Y602541D01*
G37*
G36*
X92869Y603541D02*
X100369Y603541D01*
X100369Y601541D01*
X92869Y601541D01*
X92869Y603541D01*
G37*
G36*
X93869Y602541D02*
X93869Y595041D01*
X91869Y595041D01*
X91869Y602541D01*
X93869Y602541D01*
G37*
G36*
X92869Y601541D02*
X85369Y601541D01*
X85369Y603541D01*
X92869Y603541D01*
X92869Y601541D01*
G37*
G54D39*
G36*
X74898Y609570D02*
X74898Y617070D01*
X76898Y617070D01*
X76898Y609570D01*
X74898Y609570D01*
G37*
G36*
X75898Y610570D02*
X83398Y610570D01*
X83398Y608570D01*
X75898Y608570D01*
X75898Y610570D01*
G37*
G36*
X76898Y609570D02*
X76898Y602070D01*
X74898Y602070D01*
X74898Y609570D01*
X76898Y609570D01*
G37*
G36*
X75898Y608570D02*
X68398Y608570D01*
X68398Y610570D01*
X75898Y610570D01*
X75898Y608570D01*
G37*
G54D39*
G36*
X67869Y626541D02*
X67869Y634041D01*
X69869Y634041D01*
X69869Y626541D01*
X67869Y626541D01*
G37*
G36*
X68869Y627541D02*
X76369Y627541D01*
X76369Y625541D01*
X68869Y625541D01*
X68869Y627541D01*
G37*
G36*
X69869Y626541D02*
X69869Y619041D01*
X67869Y619041D01*
X67869Y626541D01*
X69869Y626541D01*
G37*
G36*
X68869Y625541D02*
X61369Y625541D01*
X61369Y627541D01*
X68869Y627541D01*
X68869Y625541D01*
G37*
G54D39*
G36*
X74898Y643512D02*
X74898Y651012D01*
X76898Y651012D01*
X76898Y643512D01*
X74898Y643512D01*
G37*
G36*
X75898Y644512D02*
X83398Y644512D01*
X83398Y642512D01*
X75898Y642512D01*
X75898Y644512D01*
G37*
G36*
X76898Y643512D02*
X76898Y636012D01*
X74898Y636012D01*
X74898Y643512D01*
X76898Y643512D01*
G37*
G36*
X75898Y642512D02*
X68398Y642512D01*
X68398Y644512D01*
X75898Y644512D01*
X75898Y642512D01*
G37*
G54D39*
G36*
X91869Y650541D02*
X91869Y658041D01*
X93869Y658041D01*
X93869Y650541D01*
X91869Y650541D01*
G37*
G36*
X92869Y651541D02*
X100369Y651541D01*
X100369Y649541D01*
X92869Y649541D01*
X92869Y651541D01*
G37*
G36*
X93869Y650541D02*
X93869Y643041D01*
X91869Y643041D01*
X91869Y650541D01*
X93869Y650541D01*
G37*
G36*
X92869Y649541D02*
X85369Y649541D01*
X85369Y651541D01*
X92869Y651541D01*
X92869Y649541D01*
G37*
G54D39*
G36*
X108839Y643512D02*
X108839Y651012D01*
X110839Y651012D01*
X110839Y643512D01*
X108839Y643512D01*
G37*
G36*
X109839Y644512D02*
X117339Y644512D01*
X117339Y642512D01*
X109839Y642512D01*
X109839Y644512D01*
G37*
G36*
X110839Y643512D02*
X110839Y636012D01*
X108839Y636012D01*
X108839Y643512D01*
X110839Y643512D01*
G37*
G36*
X109839Y642512D02*
X102339Y642512D01*
X102339Y644512D01*
X109839Y644512D01*
X109839Y642512D01*
G37*
G54D40*
G36*
X182801Y614337D02*
X182801Y626837D01*
X192561Y626837D01*
X192561Y614337D01*
X182801Y614337D01*
G37*
G36*
X187681Y619217D02*
X200181Y619217D01*
X200181Y609457D01*
X187681Y609457D01*
X187681Y619217D01*
G37*
G36*
X192561Y614337D02*
X192561Y601837D01*
X182801Y601837D01*
X182801Y614337D01*
X192561Y614337D01*
G37*
G36*
X187681Y609457D02*
X175181Y609457D01*
X175181Y619217D01*
X187681Y619217D01*
X187681Y609457D01*
G37*
G54D41*
G36*
X288502Y464741D02*
X288502Y477241D01*
X296929Y477241D01*
X296929Y464741D01*
X288502Y464741D01*
G37*
G36*
X292715Y468954D02*
X305215Y468954D01*
X305215Y460527D01*
X292715Y460527D01*
X292715Y468954D01*
G37*
G36*
X296929Y464741D02*
X296929Y452241D01*
X288502Y452241D01*
X288502Y464741D01*
X296929Y464741D01*
G37*
G36*
X292715Y460527D02*
X280215Y460527D01*
X280215Y468954D01*
X292715Y468954D01*
X292715Y460527D01*
G37*
G54D41*
G36*
X288502Y394097D02*
X288502Y406597D01*
X296929Y406597D01*
X296929Y394097D01*
X288502Y394097D01*
G37*
G36*
X292715Y398310D02*
X305215Y398310D01*
X305215Y389883D01*
X292715Y389883D01*
X292715Y398310D01*
G37*
G36*
X296929Y394097D02*
X296929Y381597D01*
X288502Y381597D01*
X288502Y394097D01*
X296929Y394097D01*
G37*
G36*
X292715Y389883D02*
X280215Y389883D01*
X280215Y398310D01*
X292715Y398310D01*
X292715Y389883D01*
G37*
G54D42*
G36*
X360138Y759224D02*
X349288Y759224D01*
X349288Y763490D01*
X360138Y763490D01*
X360138Y759224D01*
G37*
G54D43*
G36*
X445990Y772152D02*
X456840Y772152D01*
X456840Y766564D01*
X445990Y766564D01*
X445990Y772152D01*
G37*
G54D44*
G36*
X432401Y689147D02*
X444901Y689147D01*
X444901Y677573D01*
X432401Y677573D01*
X432401Y689147D01*
G37*
G36*
X438188Y683360D02*
X438188Y670860D01*
X426614Y670860D01*
X426614Y683360D01*
X438188Y683360D01*
G37*
G36*
X432401Y677573D02*
X419901Y677573D01*
X419901Y689147D01*
X432401Y689147D01*
X432401Y677573D01*
G37*
G36*
X426614Y683360D02*
X426614Y695860D01*
X438188Y695860D01*
X438188Y683360D01*
X426614Y683360D01*
G37*
G54D45*
G36*
X407002Y689066D02*
X419502Y689066D01*
X419502Y677653D01*
X407002Y677653D01*
X407002Y689066D01*
G37*
G36*
X412708Y683360D02*
X412708Y670860D01*
X401295Y670860D01*
X401295Y683360D01*
X412708Y683360D01*
G37*
G36*
X401295Y683360D02*
X401295Y695860D01*
X412708Y695860D01*
X412708Y683360D01*
X401295Y683360D01*
G37*
G54D46*
G36*
X260239Y813992D02*
X260239Y801492D01*
X251529Y801492D01*
X251529Y813992D01*
X260239Y813992D01*
G37*
G36*
X255884Y809637D02*
X244884Y809637D01*
X244884Y818347D01*
X255884Y818347D01*
X255884Y809637D01*
G37*
G36*
X251529Y813992D02*
X251529Y826492D01*
X260239Y826492D01*
X260239Y813992D01*
X251529Y813992D01*
G37*
G54D46*
G36*
X259842Y763589D02*
X259842Y751089D01*
X251132Y751089D01*
X251132Y763589D01*
X259842Y763589D01*
G37*
G36*
X255487Y759234D02*
X244487Y759234D01*
X244487Y767944D01*
X255487Y767944D01*
X255487Y759234D01*
G37*
G36*
X251132Y763589D02*
X251132Y776089D01*
X259842Y776089D01*
X259842Y763589D01*
X251132Y763589D01*
G37*
G54D47*
G36*
X451247Y525926D02*
X463747Y525926D01*
X463747Y520592D01*
X451247Y520592D01*
X451247Y525926D01*
G37*
G36*
X453914Y523259D02*
X453914Y510759D01*
X448580Y510759D01*
X448580Y523259D01*
X453914Y523259D01*
G37*
G36*
X451247Y520592D02*
X438747Y520592D01*
X438747Y525926D01*
X451247Y525926D01*
X451247Y520592D01*
G37*
G36*
X448580Y523259D02*
X448580Y535759D01*
X453914Y535759D01*
X453914Y523259D01*
X448580Y523259D01*
G37*
G54D47*
G36*
X558403Y524734D02*
X570903Y524734D01*
X570903Y519402D01*
X558403Y519402D01*
X558403Y524734D01*
G37*
G36*
X561070Y522068D02*
X561070Y509568D01*
X555736Y509568D01*
X555736Y522068D01*
X561070Y522068D01*
G37*
G36*
X558403Y519402D02*
X545903Y519402D01*
X545903Y524734D01*
X558403Y524734D01*
X558403Y519402D01*
G37*
G36*
X555736Y522068D02*
X555736Y534568D01*
X561070Y534568D01*
X561070Y522068D01*
X555736Y522068D01*
G37*
G54D40*
G36*
X450453Y456523D02*
X462953Y456523D01*
X462953Y446763D01*
X450453Y446763D01*
X450453Y456523D01*
G37*
G36*
X455333Y451643D02*
X455333Y439143D01*
X445573Y439143D01*
X445573Y451643D01*
X455333Y451643D01*
G37*
G36*
X450453Y446763D02*
X437953Y446763D01*
X437953Y456523D01*
X450453Y456523D01*
X450453Y446763D01*
G37*
G36*
X445573Y451643D02*
X445573Y464143D01*
X455333Y464143D01*
X455333Y451643D01*
X445573Y451643D01*
G37*
G54D40*
G36*
X558403Y456523D02*
X570903Y456523D01*
X570903Y446763D01*
X558403Y446763D01*
X558403Y456523D01*
G37*
G36*
X563283Y451643D02*
X563283Y439143D01*
X553523Y439143D01*
X553523Y451643D01*
X563283Y451643D01*
G37*
G36*
X558403Y446763D02*
X545903Y446763D01*
X545903Y456523D01*
X558403Y456523D01*
X558403Y446763D01*
G37*
G36*
X553523Y451643D02*
X553523Y464143D01*
X563283Y464143D01*
X563283Y451643D01*
X553523Y451643D01*
G37*
G54D40*
G36*
X666353Y453348D02*
X678853Y453348D01*
X678853Y443588D01*
X666353Y443588D01*
X666353Y453348D01*
G37*
G36*
X671233Y448468D02*
X671233Y435968D01*
X661473Y435968D01*
X661473Y448468D01*
X671233Y448468D01*
G37*
G36*
X666353Y443588D02*
X653853Y443588D01*
X653853Y453348D01*
X666353Y453348D01*
X666353Y443588D01*
G37*
G36*
X661473Y448468D02*
X661473Y460968D01*
X671233Y460968D01*
X671233Y448468D01*
X661473Y448468D01*
G37*
G54D41*
G36*
X823516Y435220D02*
X836016Y435220D01*
X836016Y426793D01*
X823516Y426793D01*
X823516Y435220D01*
G37*
G36*
X827729Y431006D02*
X827729Y418506D01*
X819302Y418506D01*
X819302Y431006D01*
X827729Y431006D01*
G37*
G36*
X823516Y426793D02*
X811016Y426793D01*
X811016Y435220D01*
X823516Y435220D01*
X823516Y426793D01*
G37*
G36*
X819302Y431006D02*
X819302Y443506D01*
X827729Y443506D01*
X827729Y431006D01*
X819302Y431006D01*
G37*
G54D41*
G36*
X779066Y435220D02*
X791566Y435220D01*
X791566Y426793D01*
X779066Y426793D01*
X779066Y435220D01*
G37*
G36*
X783279Y431006D02*
X783279Y418506D01*
X774852Y418506D01*
X774852Y431006D01*
X783279Y431006D01*
G37*
G36*
X779066Y426793D02*
X766566Y426793D01*
X766566Y435220D01*
X779066Y435220D01*
X779066Y426793D01*
G37*
G36*
X774852Y431006D02*
X774852Y443506D01*
X783279Y443506D01*
X783279Y431006D01*
X774852Y431006D01*
G37*
G54D48*
G36*
X441325Y613979D02*
X426825Y613979D01*
X426825Y628245D01*
X441325Y628245D01*
X441325Y613979D01*
G37*
G36*
X441325Y628245D02*
X455825Y628245D01*
X455825Y613979D01*
X441325Y613979D01*
X441325Y628245D01*
G37*
G36*
X448458Y621112D02*
X448458Y606612D01*
X434192Y606612D01*
X434192Y621112D01*
X448458Y621112D01*
G37*
G54D49*
G36*
X574343Y794057D02*
X582843Y794057D01*
X582843Y786057D01*
X574343Y786057D01*
X574343Y794057D01*
G37*
G36*
X578343Y790057D02*
X578343Y781557D01*
X570343Y781557D01*
X570343Y790057D01*
X578343Y790057D01*
G37*
G36*
X574343Y786057D02*
X565843Y786057D01*
X565843Y794057D01*
X574343Y794057D01*
X574343Y786057D01*
G37*
G36*
X570343Y790057D02*
X570343Y798557D01*
X578343Y798557D01*
X578343Y790057D01*
X570343Y790057D01*
G37*
G54D49*
G36*
X640621Y731351D02*
X649121Y731351D01*
X649121Y723351D01*
X640621Y723351D01*
X640621Y731351D01*
G37*
G36*
X644621Y727351D02*
X644621Y718851D01*
X636621Y718851D01*
X636621Y727351D01*
X644621Y727351D01*
G37*
G36*
X640621Y723351D02*
X632121Y723351D01*
X632121Y731351D01*
X640621Y731351D01*
X640621Y723351D01*
G37*
G36*
X636621Y727351D02*
X636621Y735851D01*
X644621Y735851D01*
X644621Y727351D01*
X636621Y727351D01*
G37*
G54D49*
G36*
X573288Y712767D02*
X581788Y712767D01*
X581788Y704767D01*
X573288Y704767D01*
X573288Y712767D01*
G37*
G36*
X577288Y708767D02*
X577288Y700267D01*
X569288Y700267D01*
X569288Y708767D01*
X577288Y708767D01*
G37*
G36*
X573288Y704767D02*
X564788Y704767D01*
X564788Y712767D01*
X573288Y712767D01*
X573288Y704767D01*
G37*
G36*
X569288Y708767D02*
X569288Y717267D01*
X577288Y717267D01*
X577288Y708767D01*
X569288Y708767D01*
G37*
G54D49*
G36*
X639827Y647610D02*
X648327Y647610D01*
X648327Y639610D01*
X639827Y639610D01*
X639827Y647610D01*
G37*
G36*
X643827Y643610D02*
X643827Y635110D01*
X635827Y635110D01*
X635827Y643610D01*
X643827Y643610D01*
G37*
G36*
X639827Y639610D02*
X631327Y639610D01*
X631327Y647610D01*
X639827Y647610D01*
X639827Y639610D01*
G37*
G36*
X635827Y643610D02*
X635827Y652110D01*
X643827Y652110D01*
X643827Y643610D01*
X635827Y643610D01*
G37*
G54D49*
G36*
X396574Y776960D02*
X396574Y768460D01*
X388574Y768460D01*
X388574Y776960D01*
X396574Y776960D01*
G37*
G36*
X388574Y776960D02*
X388574Y785460D01*
X396574Y785460D01*
X396574Y776960D01*
X388574Y776960D01*
G37*
G54D49*
G36*
X420782Y777359D02*
X420782Y768859D01*
X412782Y768859D01*
X412782Y777359D01*
X420782Y777359D01*
G37*
G36*
X412782Y777359D02*
X412782Y785859D01*
X420782Y785859D01*
X420782Y777359D01*
X412782Y777359D01*
G37*
G54D49*
G36*
X283036Y594826D02*
X291536Y594826D01*
X291536Y586826D01*
X283036Y586826D01*
X283036Y594826D01*
G37*
G36*
X287036Y590826D02*
X287036Y582326D01*
X279036Y582326D01*
X279036Y590826D01*
X287036Y590826D01*
G37*
G36*
X283036Y586826D02*
X274536Y586826D01*
X274536Y594826D01*
X283036Y594826D01*
X283036Y586826D01*
G37*
G36*
X279036Y590826D02*
X279036Y599326D01*
X287036Y599326D01*
X287036Y590826D01*
X279036Y590826D01*
G37*
G54D49*
G36*
X280406Y552626D02*
X288906Y552626D01*
X288906Y544626D01*
X280406Y544626D01*
X280406Y552626D01*
G37*
G36*
X284406Y548626D02*
X284406Y540126D01*
X276406Y540126D01*
X276406Y548626D01*
X284406Y548626D01*
G37*
G36*
X280406Y544626D02*
X271906Y544626D01*
X271906Y552626D01*
X280406Y552626D01*
X280406Y544626D01*
G37*
G36*
X276406Y548626D02*
X276406Y557126D01*
X284406Y557126D01*
X284406Y548626D01*
X276406Y548626D01*
G37*
G54D49*
G36*
X180773Y388766D02*
X189273Y388766D01*
X189273Y380766D01*
X180773Y380766D01*
X180773Y388766D01*
G37*
G36*
X184773Y384766D02*
X184773Y376266D01*
X176773Y376266D01*
X176773Y384766D01*
X184773Y384766D01*
G37*
G36*
X180773Y380766D02*
X172273Y380766D01*
X172273Y388766D01*
X180773Y388766D01*
X180773Y380766D01*
G37*
G36*
X176773Y384766D02*
X176773Y393266D01*
X184773Y393266D01*
X184773Y384766D01*
X176773Y384766D01*
G37*
G54D49*
G36*
X865252Y392420D02*
X873752Y392420D01*
X873752Y384420D01*
X865252Y384420D01*
X865252Y392420D01*
G37*
G36*
X869252Y388420D02*
X869252Y379920D01*
X861252Y379920D01*
X861252Y388420D01*
X869252Y388420D01*
G37*
G36*
X865252Y384420D02*
X856752Y384420D01*
X856752Y392420D01*
X865252Y392420D01*
X865252Y384420D01*
G37*
G36*
X861252Y388420D02*
X861252Y396920D01*
X869252Y396920D01*
X869252Y388420D01*
X861252Y388420D01*
G37*
G54D49*
G36*
X390193Y483304D02*
X398693Y483304D01*
X398693Y475304D01*
X390193Y475304D01*
X390193Y483304D01*
G37*
G36*
X394193Y479304D02*
X394193Y470804D01*
X386193Y470804D01*
X386193Y479304D01*
X394193Y479304D01*
G37*
G36*
X390193Y475304D02*
X381693Y475304D01*
X381693Y483304D01*
X390193Y483304D01*
X390193Y475304D01*
G37*
G36*
X386193Y479304D02*
X386193Y487804D01*
X394193Y487804D01*
X394193Y479304D01*
X386193Y479304D01*
G37*
G54D49*
G36*
X385033Y417423D02*
X393533Y417423D01*
X393533Y409423D01*
X385033Y409423D01*
X385033Y417423D01*
G37*
G36*
X389033Y413423D02*
X389033Y404923D01*
X381033Y404923D01*
X381033Y413423D01*
X389033Y413423D01*
G37*
G36*
X385033Y409423D02*
X376533Y409423D01*
X376533Y417423D01*
X385033Y417423D01*
X385033Y409423D01*
G37*
G36*
X381033Y413423D02*
X381033Y421923D01*
X389033Y421923D01*
X389033Y413423D01*
X381033Y413423D01*
G37*
G54D49*
G36*
X469568Y880973D02*
X478068Y880973D01*
X478068Y872973D01*
X469568Y872973D01*
X469568Y880973D01*
G37*
G36*
X473568Y876973D02*
X473568Y868473D01*
X465568Y868473D01*
X465568Y876973D01*
X473568Y876973D01*
G37*
G36*
X469568Y872973D02*
X461068Y872973D01*
X461068Y880973D01*
X469568Y880973D01*
X469568Y872973D01*
G37*
G36*
X465568Y876973D02*
X465568Y885473D01*
X473568Y885473D01*
X473568Y876973D01*
X465568Y876973D01*
G37*
G54D49*
G36*
X469568Y845254D02*
X478068Y845254D01*
X478068Y837254D01*
X469568Y837254D01*
X469568Y845254D01*
G37*
G36*
X473568Y841254D02*
X473568Y832754D01*
X465568Y832754D01*
X465568Y841254D01*
X473568Y841254D01*
G37*
G36*
X469568Y837254D02*
X461068Y837254D01*
X461068Y845254D01*
X469568Y845254D01*
X469568Y837254D01*
G37*
G36*
X465568Y841254D02*
X465568Y849754D01*
X473568Y849754D01*
X473568Y841254D01*
X465568Y841254D01*
G37*
G54D49*
G36*
X800561Y476954D02*
X809061Y476954D01*
X809061Y468954D01*
X800561Y468954D01*
X800561Y476954D01*
G37*
G36*
X804561Y472954D02*
X804561Y464454D01*
X796561Y464454D01*
X796561Y472954D01*
X804561Y472954D01*
G37*
G36*
X800561Y468954D02*
X792061Y468954D01*
X792061Y476954D01*
X800561Y476954D01*
X800561Y468954D01*
G37*
G36*
X796561Y472954D02*
X796561Y481454D01*
X804561Y481454D01*
X804561Y472954D01*
X796561Y472954D01*
G37*
G54D49*
G36*
X331586Y383607D02*
X340086Y383607D01*
X340086Y375607D01*
X331586Y375607D01*
X331586Y383607D01*
G37*
G36*
X335586Y379607D02*
X335586Y371107D01*
X327586Y371107D01*
X327586Y379607D01*
X335586Y379607D01*
G37*
G36*
X331586Y375607D02*
X323086Y375607D01*
X323086Y383607D01*
X331586Y383607D01*
X331586Y375607D01*
G37*
G36*
X327586Y379607D02*
X327586Y388107D01*
X335586Y388107D01*
X335586Y379607D01*
X327586Y379607D01*
G37*
G54D49*
G36*
X708883Y660310D02*
X717383Y660310D01*
X717383Y652310D01*
X708883Y652310D01*
X708883Y660310D01*
G37*
G36*
X712883Y656310D02*
X712883Y647810D01*
X704883Y647810D01*
X704883Y656310D01*
X712883Y656310D01*
G37*
G36*
X708883Y652310D02*
X700383Y652310D01*
X700383Y660310D01*
X708883Y660310D01*
X708883Y652310D01*
G37*
G36*
X704883Y656310D02*
X704883Y664810D01*
X712883Y664810D01*
X712883Y656310D01*
X704883Y656310D01*
G37*
G54D49*
G36*
X708090Y576570D02*
X716590Y576570D01*
X716590Y568570D01*
X708090Y568570D01*
X708090Y576570D01*
G37*
G36*
X712090Y572570D02*
X712090Y564070D01*
X704090Y564070D01*
X704090Y572570D01*
X712090Y572570D01*
G37*
G36*
X708090Y568570D02*
X699590Y568570D01*
X699590Y576570D01*
X708090Y576570D01*
X708090Y568570D01*
G37*
G36*
X704090Y572570D02*
X704090Y581070D01*
X712090Y581070D01*
X712090Y572570D01*
X704090Y572570D01*
G37*
X145836Y437050D02*
G54D50*
D03*
X77574Y440225D02*
G54D50*
D03*
X111661Y510948D02*
G54D51*
D03*
X111661Y562948D02*
G54D51*
D03*
X591741Y559594D02*
G54D52*
D03*
X526740Y559594D02*
G54D52*
D03*
X526740Y514594D02*
G54D52*
D03*
X591741Y514594D02*
G54D52*
D03*
X483791Y559594D02*
G54D52*
D03*
X418790Y559594D02*
G54D52*
D03*
X418790Y514594D02*
G54D52*
D03*
X483791Y514594D02*
G54D52*
D03*
X117601Y390215D02*
G54D50*
D03*
X669131Y562622D02*
G54D52*
D03*
X644131Y537622D02*
G54D52*
D03*
X694131Y537622D02*
G54D52*
D03*
X215682Y563537D02*
G54D53*
D03*
X190282Y538137D02*
G54D53*
D03*
X215682Y512737D02*
G54D53*
D03*
X777478Y398937D02*
G54D52*
D03*
X827478Y398937D02*
G54D52*
D03*
X802478Y398937D02*
G54D52*
D03*
X777478Y548937D02*
G54D52*
D03*
X827478Y548937D02*
G54D52*
D03*
X739978Y473937D02*
G54D51*
D03*
X864978Y473937D02*
G54D51*
D03*
X483791Y412994D02*
G54D52*
D03*
X418790Y412994D02*
G54D52*
D03*
X418790Y457994D02*
G54D52*
D03*
X483791Y457994D02*
G54D52*
D03*
X214491Y445268D02*
G54D53*
D03*
X189090Y419869D02*
G54D53*
D03*
X214491Y394468D02*
G54D53*
D03*
X149864Y937623D02*
G54D52*
D03*
X175265Y937624D02*
G54D52*
D03*
X200665Y937624D02*
G54D52*
D03*
X227255Y937624D02*
G54D52*
D03*
X252655Y937623D02*
G54D52*
D03*
X278055Y937624D02*
G54D52*
D03*
X405849Y937624D02*
G54D52*
D03*
X431249Y937624D02*
G54D52*
D03*
X456649Y937624D02*
G54D52*
D03*
X482049Y937624D02*
G54D52*
D03*
X507449Y937623D02*
G54D52*
D03*
X534039Y937623D02*
G54D52*
D03*
X844947Y624954D02*
G54D54*
D03*
X868947Y624954D02*
G54D55*
D03*
X861917Y607983D02*
G54D55*
D03*
X844947Y600954D02*
G54D55*
D03*
X827976Y607983D02*
G54D55*
D03*
X820947Y624954D02*
G54D55*
D03*
X827976Y641924D02*
G54D55*
D03*
X844947Y648954D02*
G54D55*
D03*
X861917Y641924D02*
G54D55*
D03*
X844153Y934913D02*
G54D54*
D03*
X868153Y934913D02*
G54D55*
D03*
X861124Y917942D02*
G54D55*
D03*
X844153Y910913D02*
G54D55*
D03*
X827183Y917942D02*
G54D55*
D03*
X820153Y934913D02*
G54D55*
D03*
X827183Y951883D02*
G54D55*
D03*
X844153Y958913D02*
G54D55*
D03*
X861124Y951883D02*
G54D55*
D03*
X93266Y934913D02*
G54D54*
D03*
X117266Y934913D02*
G54D55*
D03*
X110236Y917942D02*
G54D55*
D03*
X93266Y910913D02*
G54D55*
D03*
X76295Y917942D02*
G54D55*
D03*
X69266Y934913D02*
G54D55*
D03*
X76295Y951883D02*
G54D55*
D03*
X93266Y958913D02*
G54D55*
D03*
X110236Y951883D02*
G54D55*
D03*
X92869Y626541D02*
G54D54*
D03*
X116869Y626541D02*
G54D55*
D03*
X109839Y609570D02*
G54D55*
D03*
X92869Y602541D02*
G54D55*
D03*
X75898Y609570D02*
G54D55*
D03*
X68869Y626541D02*
G54D55*
D03*
X75898Y643512D02*
G54D55*
D03*
X92869Y650541D02*
G54D55*
D03*
X109839Y643512D02*
G54D55*
D03*
G54D20*
X214491Y445268D02*
X161198Y445268D01*
X145836Y429907D01*
G54D20*
X111661Y507376D02*
X111661Y475988D01*
X145836Y441813D01*
G54D20*
X190282Y542900D02*
X187747Y542900D01*
X163116Y567531D01*
X111840Y567531D01*
X111661Y567710D01*
X161233Y682991D02*
G54D56*
D03*
X161233Y654991D02*
G54D56*
D03*
X187681Y614337D02*
G54D56*
D03*
X215682Y614337D02*
G54D56*
D03*
G54D57*
X215682Y614337D02*
X215682Y563537D01*
X823498Y517695D02*
G54D56*
D03*
X823498Y489695D02*
G54D56*
D03*
G54D58*
X794064Y951262D02*
X790509Y941262D01*
X786954Y951262D01*
G54D58*
X780732Y955707D02*
X779843Y957929D01*
X778065Y959040D01*
X776287Y959040D01*
X774509Y957929D01*
X773620Y955707D01*
X773620Y953485D01*
X774509Y951262D01*
X776287Y950151D01*
X774509Y949040D01*
X773620Y946818D01*
X773620Y944596D01*
X774509Y942373D01*
X776287Y941262D01*
X778065Y941262D01*
X779843Y942373D01*
X780732Y944596D01*
G54D58*
X767398Y941262D02*
X767398Y941262D01*
G54D58*
X754066Y955707D02*
X754066Y944596D01*
X754954Y942373D01*
X756732Y941262D01*
X758510Y941262D01*
X760288Y942373D01*
X761176Y944596D01*
X761176Y955707D01*
X760288Y957929D01*
X758510Y959040D01*
X756732Y959040D01*
X754954Y957929D01*
X754066Y955707D01*
X264716Y464741D02*
G54D56*
D03*
X292715Y464741D02*
G54D56*
D03*
X264716Y394097D02*
G54D56*
D03*
X292715Y394097D02*
G54D56*
D03*
G54D20*
X264716Y464741D02*
X233963Y464741D01*
X214491Y445268D01*
G54D20*
X264716Y394097D02*
X214491Y394468D01*
G54D39*
X60325Y976959D02*
X877078Y976959D01*
G54D39*
G75*
G01X60325Y976959D02*
G03X48815Y965449I0J-11510D01*
G01*
G54D39*
G75*
G01X888588Y965449D02*
G03X877078Y976959I-11510J0D01*
G01*
G54D39*
X48815Y965449D02*
X48815Y372534D01*
G54D39*
G75*
G01X877078Y361024D02*
G03X888588Y372534I0J11510D01*
G01*
G54D39*
X888588Y965449D02*
X888588Y372534D01*
G54D39*
G75*
G01X48815Y372534D02*
G03X60325Y361024I11510J0D01*
G01*
G54D39*
X877078Y361024D02*
X60325Y361024D01*
X591741Y412994D02*
G54D52*
D03*
X526740Y412994D02*
G54D52*
D03*
X526740Y457994D02*
G54D52*
D03*
X591741Y457994D02*
G54D52*
D03*
X360138Y745355D02*
G54D59*
D03*
X360138Y753356D02*
G54D59*
D03*
X360138Y761357D02*
G54D59*
D03*
X360138Y769358D02*
G54D59*
D03*
X360138Y777359D02*
G54D59*
D03*
X360138Y785360D02*
G54D59*
D03*
X360138Y793361D02*
G54D59*
D03*
X360138Y801362D02*
G54D59*
D03*
X445990Y801362D02*
G54D59*
D03*
X445990Y793361D02*
G54D59*
D03*
X445990Y785360D02*
G54D59*
D03*
X445990Y777359D02*
G54D59*
D03*
X445990Y769358D02*
G54D59*
D03*
X445990Y761357D02*
G54D59*
D03*
X445990Y753356D02*
G54D59*
D03*
X445990Y745355D02*
G54D59*
D03*
X431055Y730420D02*
G54D60*
D03*
X423054Y730420D02*
G54D60*
D03*
X415053Y730420D02*
G54D60*
D03*
X407052Y730420D02*
G54D60*
D03*
X399051Y730420D02*
G54D60*
D03*
X391050Y730420D02*
G54D60*
D03*
X383049Y730420D02*
G54D60*
D03*
X375048Y730420D02*
G54D60*
D03*
X375049Y816271D02*
G54D60*
D03*
X383050Y816271D02*
G54D60*
D03*
X391051Y816271D02*
G54D60*
D03*
X399052Y816271D02*
G54D60*
D03*
X407053Y816271D02*
G54D60*
D03*
X415054Y816271D02*
G54D60*
D03*
X423055Y816271D02*
G54D60*
D03*
X431056Y816271D02*
G54D60*
D03*
G36*
X440401Y691360D02*
X440401Y675360D01*
X424401Y675360D01*
X424401Y691360D01*
X440401Y691360D01*
G37*
X407002Y683360D02*
G54D61*
D03*
X381602Y683360D02*
G54D61*
D03*
X356202Y683360D02*
G54D61*
D03*
X330802Y683360D02*
G54D61*
D03*
X305402Y683360D02*
G54D61*
D03*
G54D62*
X355773Y769358D02*
X349499Y769358D01*
X344438Y774419D01*
X344438Y779514D01*
X350340Y785416D01*
X366612Y785416D01*
X375344Y794148D01*
X469851Y794183D01*
G54D63*
X360138Y777359D02*
X370701Y777359D01*
X373359Y774701D01*
X373359Y764367D01*
X370394Y761401D01*
X360138Y761357D01*
X277265Y813992D02*
G54D64*
D03*
X255884Y813992D02*
G54D64*
D03*
G54D63*
X360138Y777359D02*
X427498Y776962D01*
X435102Y769358D01*
X445990Y769358D01*
X399207Y716396D02*
G54D65*
D03*
G54D57*
X399051Y730420D02*
X399051Y716637D01*
X398810Y716396D01*
G54D57*
X391050Y728435D02*
X391050Y707064D01*
X384075Y700088D01*
X364628Y700088D01*
X356690Y692151D01*
X356690Y682658D01*
X356202Y682169D01*
G54D57*
X383049Y733198D02*
X383049Y710969D01*
X380106Y708026D01*
X339228Y708026D01*
X331290Y700088D01*
X331290Y686627D01*
X330802Y686138D01*
X370235Y646149D02*
G54D65*
D03*
G54D57*
X371822Y646149D02*
X355881Y646149D01*
X349100Y645320D01*
X314568Y765132D02*
G54D52*
D03*
X314568Y815132D02*
G54D52*
D03*
G54D57*
X314568Y815132D02*
X346368Y815132D01*
X360138Y801362D01*
G54D57*
X360138Y793361D02*
X342798Y793361D01*
X314568Y765132D01*
X276868Y763589D02*
G54D64*
D03*
X255487Y763589D02*
G54D64*
D03*
G54D57*
X276868Y763589D02*
X313026Y763589D01*
X314568Y765132D01*
G54D57*
X277265Y813992D02*
X313429Y813992D01*
X314568Y815132D01*
G54D57*
X391051Y816271D02*
X391165Y898767D01*
X409178Y916781D01*
X468312Y916384D01*
X481012Y929084D01*
X482049Y937624D01*
G54D57*
X399052Y816271D02*
X399102Y892417D01*
X413147Y906462D01*
X457200Y906859D01*
X457200Y906859D02*
G54D65*
D03*
G54D57*
X407053Y816271D02*
X407053Y885287D01*
X417512Y895746D01*
X431800Y895746D01*
X431800Y895746D02*
G54D65*
D03*
G54D57*
X415054Y816271D02*
X415925Y873521D01*
X415925Y873521D02*
G54D65*
D03*
X431800Y830659D02*
G54D65*
D03*
G54D57*
X431056Y816271D02*
X431056Y829815D01*
X430212Y830659D01*
X423862Y851296D02*
G54D65*
D03*
G54D57*
X423055Y816271D02*
X423055Y850489D01*
X423862Y851296D01*
G54D62*
X175265Y937624D02*
X175265Y954727D01*
X184150Y963612D01*
X494161Y963612D01*
X507449Y950324D01*
X507449Y937623D01*
X445691Y817959D02*
G54D65*
D03*
G54D63*
X445990Y801362D02*
X445990Y817659D01*
X445691Y817959D01*
X338138Y742156D02*
G54D65*
D03*
X161208Y702960D02*
G54D65*
D03*
G54D57*
X161233Y682991D02*
X161233Y701397D01*
X162795Y702960D01*
G54D57*
X360138Y745355D02*
X341337Y745355D01*
X338138Y742156D01*
X357981Y729853D02*
G54D65*
D03*
G54D57*
X375048Y730420D02*
X358548Y730420D01*
X357981Y729853D01*
G54D62*
X469851Y794183D02*
X481843Y794183D01*
X506016Y818356D01*
X506016Y936983D01*
X507449Y938417D01*
G54D62*
X418790Y514594D02*
X418790Y457994D01*
X349100Y645320D02*
G54D64*
D03*
X327718Y645320D02*
G54D64*
D03*
G54D57*
X305402Y683360D02*
X305402Y667637D01*
X327718Y645320D01*
G54D57*
X161233Y654991D02*
X197496Y654991D01*
X215900Y636587D01*
X215900Y614556D01*
X215682Y614337D01*
G54D62*
X526740Y514594D02*
X526740Y457994D01*
X697706Y412200D02*
G54D52*
D03*
X632706Y412200D02*
G54D52*
D03*
X632706Y457200D02*
G54D52*
D03*
X697706Y457200D02*
G54D52*
D03*
G54D62*
X644131Y537622D02*
X644131Y468625D01*
X632706Y457200D01*
X486916Y733858D02*
G54D65*
D03*
X486916Y719968D02*
G54D65*
D03*
X486916Y706871D02*
G54D65*
D03*
X486916Y693377D02*
G54D65*
D03*
G54D57*
X407052Y730420D02*
X407052Y708154D01*
X411944Y703262D01*
X461169Y703262D01*
X471091Y693340D01*
X486879Y693340D01*
X486916Y693377D01*
G54D57*
X415053Y730420D02*
X415053Y714056D01*
X418306Y710803D01*
X469106Y710803D01*
X474266Y705643D01*
X485689Y705643D01*
X486916Y706871D01*
G54D57*
X423054Y730420D02*
X423054Y721533D01*
X426641Y717946D01*
X484895Y717946D01*
X486916Y719968D01*
G54D57*
X431055Y730420D02*
X483478Y730420D01*
X486916Y733858D01*
X451247Y551259D02*
G54D56*
D03*
X451247Y523259D02*
G54D56*
D03*
X558403Y550068D02*
G54D56*
D03*
X558403Y522068D02*
G54D56*
D03*
X450453Y451643D02*
G54D56*
D03*
X450453Y423643D02*
G54D56*
D03*
X558403Y451643D02*
G54D56*
D03*
X558403Y423643D02*
G54D56*
D03*
X666353Y448468D02*
G54D56*
D03*
X666353Y420468D02*
G54D56*
D03*
G54D62*
X419100Y487362D02*
X644525Y487362D01*
G54D57*
X418790Y559594D02*
X442912Y559594D01*
X451247Y551259D01*
G54D57*
X526740Y559594D02*
X548878Y559594D01*
X558403Y550068D01*
G54D57*
X418790Y412994D02*
X439804Y412994D01*
X450453Y423643D01*
G54D57*
X526740Y412994D02*
X547754Y412994D01*
X558403Y423643D01*
G54D57*
X632706Y412200D02*
X658085Y412200D01*
X666353Y420468D01*
X502791Y762433D02*
G54D65*
D03*
X502791Y748543D02*
G54D65*
D03*
G54D57*
X445990Y745355D02*
X499604Y745355D01*
X502791Y748543D01*
G54D57*
X445990Y753356D02*
X485069Y753356D01*
X495300Y763587D01*
X501638Y763587D01*
X502791Y762433D01*
X779048Y517695D02*
G54D56*
D03*
X779048Y489695D02*
G54D56*
D03*
X823516Y459006D02*
G54D56*
D03*
X823516Y431006D02*
G54D56*
D03*
X779066Y459006D02*
G54D56*
D03*
X779066Y431006D02*
G54D56*
D03*
G54D62*
X644525Y487362D02*
X705644Y487362D01*
X738188Y519906D01*
X821287Y519906D01*
X823498Y517695D01*
G54D57*
X777478Y398937D02*
X770653Y398937D01*
X757634Y411956D01*
X757634Y437575D01*
X779066Y459006D01*
G54D57*
X827087Y399334D02*
X833912Y399334D01*
X846931Y412353D01*
X846931Y437972D01*
X825500Y459403D01*
G54D57*
X779048Y489695D02*
X779048Y459023D01*
X779066Y459006D01*
G54D57*
X823498Y489695D02*
X823498Y459023D01*
X823516Y459006D01*
X341691Y601090D02*
G54D56*
D03*
X369691Y601090D02*
G54D56*
D03*
G54D62*
X381602Y683360D02*
X390525Y674436D01*
X390525Y542859D01*
X418790Y514594D01*
G54D62*
X369691Y601090D02*
X389556Y601090D01*
X389731Y601265D01*
G54D57*
X349100Y645320D02*
X349100Y608498D01*
X341691Y601090D01*
X441325Y646112D02*
G54D52*
D03*
X441325Y621112D02*
G54D52*
D03*
G54D62*
X264716Y400844D02*
X264716Y435371D01*
X275431Y446087D01*
X406883Y446087D01*
X418790Y457994D01*
G54D62*
X506016Y817562D02*
X710406Y817562D01*
X736203Y791765D01*
X736203Y521890D01*
X738188Y519906D01*
X574343Y790057D02*
G54D66*
D03*
X640621Y727351D02*
G54D66*
D03*
X573288Y708767D02*
G54D66*
D03*
X639827Y643610D02*
G54D66*
D03*
X392574Y776960D02*
G54D66*
D03*
X416782Y777359D02*
G54D66*
D03*
X283036Y590826D02*
G54D66*
D03*
X280406Y548626D02*
G54D66*
D03*
X180773Y384766D02*
G54D66*
D03*
X865252Y388420D02*
G54D66*
D03*
X390193Y479304D02*
G54D66*
D03*
X385033Y413423D02*
G54D66*
D03*
X469568Y876973D02*
G54D66*
D03*
X469568Y841254D02*
G54D66*
D03*
X800561Y472954D02*
G54D66*
D03*
X331586Y379607D02*
G54D66*
D03*
X708883Y656310D02*
G54D66*
D03*
X708090Y572570D02*
G54D66*
D03*
M02*
