%FSLAX34Y34*%
%MOMM*%
%LNCOPPER_TOP*%
G71*
G01*
%ADD10C, 4.50*%
%ADD11C, 4.00*%
%ADD12C, 2.00*%
%ADD13C, 2.50*%
%ADD14C, 6.40*%
%ADD15C, 0.60*%
%ADD16C, 1.60*%
%ADD17C, 0.81*%
%ADD18C, 0.30*%
%ADD19C, 0.80*%
%ADD20C, 0.20*%
%LPD*%
X145836Y437050D02*
G54D10*
D03*
X77574Y440225D02*
G54D10*
D03*
X111661Y510948D02*
G54D11*
D03*
X111661Y562948D02*
G54D11*
D03*
X591741Y559594D02*
G54D12*
D03*
X526740Y559594D02*
G54D12*
D03*
X526740Y514594D02*
G54D12*
D03*
X591741Y514594D02*
G54D12*
D03*
X483791Y559594D02*
G54D12*
D03*
X418790Y559594D02*
G54D12*
D03*
X418790Y514594D02*
G54D12*
D03*
X483791Y514594D02*
G54D12*
D03*
X117601Y390215D02*
G54D10*
D03*
X669131Y562622D02*
G54D12*
D03*
X644131Y537622D02*
G54D12*
D03*
X694131Y537622D02*
G54D12*
D03*
X215682Y563537D02*
G54D13*
D03*
X190282Y538137D02*
G54D13*
D03*
X215682Y512737D02*
G54D13*
D03*
X777478Y398937D02*
G54D12*
D03*
X827478Y398937D02*
G54D12*
D03*
X802478Y398937D02*
G54D12*
D03*
X777478Y548937D02*
G54D12*
D03*
X827478Y548937D02*
G54D12*
D03*
X739978Y473937D02*
G54D11*
D03*
X864978Y473937D02*
G54D11*
D03*
X483791Y412994D02*
G54D12*
D03*
X418790Y412994D02*
G54D12*
D03*
X418790Y457994D02*
G54D12*
D03*
X483791Y457994D02*
G54D12*
D03*
X214491Y445268D02*
G54D13*
D03*
X189090Y419869D02*
G54D13*
D03*
X214491Y394468D02*
G54D13*
D03*
X149864Y937623D02*
G54D12*
D03*
X175265Y937624D02*
G54D12*
D03*
X200665Y937624D02*
G54D12*
D03*
X227255Y937624D02*
G54D12*
D03*
X252655Y937623D02*
G54D12*
D03*
X278055Y937624D02*
G54D12*
D03*
X405849Y937624D02*
G54D12*
D03*
X431249Y937624D02*
G54D12*
D03*
X456649Y937624D02*
G54D12*
D03*
X482049Y937624D02*
G54D12*
D03*
X507449Y937623D02*
G54D12*
D03*
X534039Y937623D02*
G54D12*
D03*
X844947Y624954D02*
G54D14*
D03*
X868947Y624954D02*
G54D15*
D03*
X861917Y607983D02*
G54D15*
D03*
X844947Y600954D02*
G54D15*
D03*
X827976Y607983D02*
G54D15*
D03*
X820947Y624954D02*
G54D15*
D03*
X827976Y641924D02*
G54D15*
D03*
X844947Y648954D02*
G54D15*
D03*
X861917Y641924D02*
G54D15*
D03*
X844153Y934913D02*
G54D14*
D03*
X868153Y934913D02*
G54D15*
D03*
X861124Y917942D02*
G54D15*
D03*
X844153Y910913D02*
G54D15*
D03*
X827183Y917942D02*
G54D15*
D03*
X820153Y934913D02*
G54D15*
D03*
X827183Y951883D02*
G54D15*
D03*
X844153Y958913D02*
G54D15*
D03*
X861124Y951883D02*
G54D15*
D03*
X93266Y934913D02*
G54D14*
D03*
X117266Y934913D02*
G54D15*
D03*
X110236Y917942D02*
G54D15*
D03*
X93266Y910913D02*
G54D15*
D03*
X76295Y917942D02*
G54D15*
D03*
X69266Y934913D02*
G54D15*
D03*
X76295Y951883D02*
G54D15*
D03*
X93266Y958913D02*
G54D15*
D03*
X110236Y951883D02*
G54D15*
D03*
X92869Y626541D02*
G54D14*
D03*
X116869Y626541D02*
G54D15*
D03*
X109839Y609570D02*
G54D15*
D03*
X92869Y602541D02*
G54D15*
D03*
X75898Y609570D02*
G54D15*
D03*
X68869Y626541D02*
G54D15*
D03*
X75898Y643512D02*
G54D15*
D03*
X92869Y650541D02*
G54D15*
D03*
X109839Y643512D02*
G54D15*
D03*
X591741Y412994D02*
G54D12*
D03*
X526740Y412994D02*
G54D12*
D03*
X526740Y457994D02*
G54D12*
D03*
X591741Y457994D02*
G54D12*
D03*
G36*
X440401Y691360D02*
X440401Y675360D01*
X424401Y675360D01*
X424401Y691360D01*
X440401Y691360D01*
G37*
X407002Y683360D02*
G54D16*
D03*
X381602Y683360D02*
G54D16*
D03*
X356202Y683360D02*
G54D16*
D03*
X330802Y683360D02*
G54D16*
D03*
X305402Y683360D02*
G54D16*
D03*
X399207Y716396D02*
G54D17*
D03*
X370235Y646149D02*
G54D17*
D03*
X314568Y765132D02*
G54D12*
D03*
X314568Y815132D02*
G54D12*
D03*
X457200Y906859D02*
G54D17*
D03*
G54D18*
X457200Y905271D02*
X456649Y937624D01*
X431800Y895746D02*
G54D17*
D03*
G54D18*
X431800Y895746D02*
X431249Y937624D01*
X415925Y873521D02*
G54D17*
D03*
G54D18*
X405849Y937624D02*
X405849Y883597D01*
X415925Y873521D01*
X431800Y830659D02*
G54D17*
D03*
X423862Y851296D02*
G54D17*
D03*
X445691Y817959D02*
G54D17*
D03*
X338138Y742156D02*
G54D17*
D03*
X161208Y702960D02*
G54D17*
D03*
X357981Y729853D02*
G54D17*
D03*
G54D18*
X278055Y937624D02*
X278452Y921300D01*
X290512Y909240D01*
X365125Y910034D01*
X423862Y851296D01*
G54D18*
X430212Y830659D02*
X360362Y899715D01*
X239712Y899715D01*
X227652Y911775D01*
X227652Y935639D01*
X227255Y936036D01*
G54D18*
X445691Y817959D02*
X428625Y817959D01*
X356394Y890190D01*
X173831Y889947D01*
X161771Y877887D01*
X161925Y703677D01*
X161208Y702960D01*
G54D18*
X368300Y646112D02*
X441325Y646112D01*
X457200Y661987D01*
X456803Y690805D01*
X444743Y702865D01*
X411944Y703262D01*
X398810Y716396D01*
X697706Y412200D02*
G54D12*
D03*
X632706Y412200D02*
G54D12*
D03*
X632706Y457200D02*
G54D12*
D03*
X697706Y457200D02*
G54D12*
D03*
X486916Y733858D02*
G54D17*
D03*
X486916Y719968D02*
G54D17*
D03*
X486916Y706871D02*
G54D17*
D03*
X486916Y693377D02*
G54D17*
D03*
X502791Y762433D02*
G54D17*
D03*
X502791Y748543D02*
G54D17*
D03*
G54D18*
X502791Y762433D02*
X522251Y762433D01*
X545306Y739378D01*
X545306Y644524D01*
X618331Y571896D01*
X618971Y515937D01*
X631031Y503877D01*
X696119Y503634D01*
X742950Y550862D01*
X775553Y550862D01*
X777478Y548937D01*
G54D18*
X502791Y748543D02*
X520943Y748506D01*
X534591Y735255D01*
X534591Y641350D01*
X590550Y585390D01*
X590947Y560387D01*
X591741Y559594D01*
G54D18*
X200665Y937624D02*
X200665Y948774D01*
X213916Y962024D01*
X541338Y962024D01*
X555625Y947737D01*
X555228Y649287D01*
X637778Y566737D01*
X665016Y566737D01*
X669131Y562622D01*
G54D18*
X827478Y398937D02*
X827478Y387740D01*
X819150Y379412D01*
G54D18*
X777478Y398937D02*
X768668Y390128D01*
X376634Y389974D01*
X365522Y400843D01*
X365125Y620955D01*
X348699Y636984D01*
X298450Y637381D01*
X287338Y648493D01*
X286941Y718740D01*
X298053Y729853D01*
X357981Y729853D01*
G54D18*
X827478Y398937D02*
X827478Y387740D01*
X819150Y379412D01*
X371872Y379412D01*
X355997Y395287D01*
X355997Y614605D01*
X344334Y626665D01*
X293688Y626665D01*
X277416Y642937D01*
X277416Y724296D01*
X294878Y741759D01*
X337741Y741759D01*
X338138Y742156D01*
G54D18*
X697706Y412200D02*
X697706Y418306D01*
X635000Y481012D01*
X579438Y481012D01*
X566340Y494109D01*
X567134Y595709D01*
X526256Y635793D01*
X526256Y702865D01*
X495263Y733858D01*
X486916Y733858D01*
G54D18*
X486916Y719968D02*
X494866Y719968D01*
X515541Y699293D01*
X515541Y632221D01*
X558006Y589756D01*
X557609Y446881D01*
X591741Y412994D01*
G54D18*
X487313Y706871D02*
X492882Y706871D01*
X504428Y695324D01*
X504428Y579834D01*
X484188Y559594D01*
G54D18*
X486916Y693377D02*
X486916Y689421D01*
X497284Y679053D01*
X497284Y602456D01*
X459184Y564356D01*
X459184Y437600D01*
X483791Y412994D01*
X441325Y646112D02*
G54D12*
D03*
X441325Y621112D02*
G54D12*
D03*
X574343Y790057D02*
G54D19*
D03*
X640621Y727351D02*
G54D19*
D03*
X573288Y708767D02*
G54D19*
D03*
X639827Y643610D02*
G54D19*
D03*
X392574Y776960D02*
G54D19*
D03*
X416782Y777359D02*
G54D19*
D03*
X283036Y590826D02*
G54D19*
D03*
X280406Y548626D02*
G54D19*
D03*
X180773Y384766D02*
G54D19*
D03*
X865252Y388420D02*
G54D19*
D03*
X390193Y479304D02*
G54D19*
D03*
X385033Y413423D02*
G54D19*
D03*
X469568Y876973D02*
G54D19*
D03*
X469568Y841254D02*
G54D19*
D03*
X800561Y472954D02*
G54D19*
D03*
X331586Y379607D02*
G54D19*
D03*
X708883Y656310D02*
G54D19*
D03*
X708090Y572570D02*
G54D19*
D03*
G54D20*
X60325Y976959D02*
X877078Y976959D01*
G54D20*
G75*
G01X60325Y976959D02*
G03X48815Y965449I0J-11510D01*
G01*
G54D20*
G75*
G01X888588Y965449D02*
G03X877078Y976959I-11510J0D01*
G01*
G54D20*
X48815Y965449D02*
X48815Y372534D01*
G54D20*
G75*
G01X877078Y361024D02*
G03X888588Y372534I0J11510D01*
G01*
G54D20*
X888588Y965449D02*
X888588Y372534D01*
G54D20*
G75*
G01X48815Y372534D02*
G03X60325Y361024I11510J0D01*
G01*
G54D20*
X877078Y361024D02*
X60325Y361024D01*
M02*
