%FSLAX34Y34*%
%MOMM*%
%LNSILK_BOTTOM*%
G71*
G01*
%ADD10C, 0.15*%
%ADD11C, 0.10*%
%ADD12C, 0.11*%
%ADD13C, 0.17*%
%ADD14C, 0.20*%
%ADD15C, 0.40*%
%LPD*%
G54D10*
X172233Y693991D02*
X150233Y693991D01*
X150233Y643991D01*
X172233Y643991D01*
X172233Y693991D01*
G54D11*
X161511Y676031D02*
X161511Y672831D01*
X163111Y672831D01*
X163111Y664931D01*
X159911Y664931D01*
X159911Y672831D01*
X161511Y672831D01*
G54D11*
X161511Y664931D02*
X161511Y661731D01*
G54D12*
X182409Y660138D02*
X185742Y663472D01*
X176853Y663472D01*
G54D12*
X184076Y671249D02*
X178520Y671249D01*
X177409Y670582D01*
X176853Y669249D01*
X176853Y667916D01*
X177409Y666582D01*
X178520Y665916D01*
X184076Y665916D01*
X185187Y666582D01*
X185742Y667916D01*
X185742Y669249D01*
X185187Y670582D01*
X184076Y671249D01*
G54D12*
X184076Y679026D02*
X178520Y679026D01*
X177409Y678359D01*
X176853Y677026D01*
X176853Y675692D01*
X177409Y674359D01*
X178520Y673692D01*
X184076Y673692D01*
X185187Y674359D01*
X185742Y675692D01*
X185742Y677026D01*
X185187Y678359D01*
X184076Y679026D01*
G54D10*
X176682Y603337D02*
X176682Y625337D01*
X226682Y625337D01*
X226682Y603337D01*
X176682Y603337D01*
G54D11*
X194641Y614058D02*
X197842Y614058D01*
X197842Y612458D01*
X205741Y612458D01*
X205742Y615658D01*
X197842Y615658D01*
X197842Y614058D01*
G54D11*
X205742Y614058D02*
X208941Y614058D01*
G54D12*
X206642Y629911D02*
X211976Y629911D01*
X211976Y630467D01*
X211309Y631578D01*
X207309Y634911D01*
X206642Y636022D01*
X206642Y637134D01*
X207309Y638245D01*
X208642Y638800D01*
X209976Y638800D01*
X211309Y638245D01*
X211976Y637134D01*
G54D12*
X198865Y629911D02*
X204198Y629911D01*
X204198Y630467D01*
X203532Y631578D01*
X199532Y634911D01*
X198865Y636022D01*
X198865Y637134D01*
X199532Y638245D01*
X200865Y638800D01*
X202198Y638800D01*
X203532Y638245D01*
X204198Y637134D01*
G54D12*
X196422Y629911D02*
X196422Y638800D01*
G54D12*
X194422Y633245D02*
X192422Y629911D01*
G54D12*
X196422Y632134D02*
X192422Y634911D01*
G54D10*
X812498Y528695D02*
X834498Y528695D01*
X834498Y478695D01*
X812498Y478695D01*
X812498Y528695D01*
G54D11*
X823220Y510735D02*
X823220Y507535D01*
X821620Y507535D01*
X821620Y499635D01*
X824820Y499635D01*
X824820Y507535D01*
X823220Y507535D01*
G54D11*
X823220Y499635D02*
X823220Y496435D01*
G54D12*
X845422Y496179D02*
X848756Y499512D01*
X839867Y499512D01*
G54D12*
X847089Y507289D02*
X841533Y507289D01*
X840422Y506623D01*
X839867Y505289D01*
X839867Y503956D01*
X840422Y502623D01*
X841533Y501956D01*
X847089Y501956D01*
X848200Y502623D01*
X848756Y503956D01*
X848756Y505289D01*
X848200Y506623D01*
X847089Y507289D01*
G54D12*
X839867Y509733D02*
X848756Y509733D01*
G54D12*
X843200Y511733D02*
X839867Y513733D01*
G54D12*
X842089Y509733D02*
X844867Y513733D01*
G54D11*
X288376Y464736D02*
X280376Y464736D01*
X280376Y469736D01*
X280376Y459736D01*
G54D11*
X278376Y469736D02*
X278376Y459736D01*
G54D11*
X278376Y464736D02*
X270376Y464736D01*
G54D10*
X253716Y475741D02*
X253716Y453741D01*
X303716Y453741D01*
X303716Y475741D01*
X253716Y475741D01*
G54D12*
X288200Y487187D02*
X288200Y481632D01*
X288867Y480520D01*
X290200Y479965D01*
X291533Y479965D01*
X292867Y480520D01*
X293533Y481632D01*
X293533Y487187D01*
X292867Y488298D01*
X291533Y488854D01*
X290200Y488854D01*
X288867Y488298D01*
X288200Y487187D01*
G54D12*
X285756Y479965D02*
X285756Y479965D01*
G54D12*
X283312Y487187D02*
X282646Y488298D01*
X281312Y488854D01*
X279979Y488854D01*
X278646Y488298D01*
X277979Y487187D01*
X277979Y486076D01*
X278646Y484965D01*
X279979Y484409D01*
X278646Y483854D01*
X277979Y482743D01*
X277979Y481632D01*
X278646Y480520D01*
X279979Y479965D01*
X281312Y479965D01*
X282646Y480520D01*
X283312Y481632D01*
G54D12*
X275535Y487187D02*
X274869Y488298D01*
X273535Y488854D01*
X272202Y488854D01*
X270869Y488298D01*
X270202Y487187D01*
X270202Y486076D01*
X270869Y484965D01*
X272202Y484409D01*
X270869Y483854D01*
X270202Y482743D01*
X270202Y481632D01*
X270869Y480520D01*
X272202Y479965D01*
X273535Y479965D01*
X274869Y480520D01*
X275535Y481632D01*
G54D12*
X263758Y484965D02*
X263758Y479965D01*
G54D12*
X263758Y481076D02*
X264425Y480187D01*
X265758Y479965D01*
X267092Y480187D01*
X267758Y481076D01*
X267758Y484965D01*
G54D11*
X288376Y394093D02*
X280376Y394093D01*
X280376Y399093D01*
X280376Y389093D01*
G54D11*
X278376Y399093D02*
X278376Y389093D01*
G54D11*
X278376Y394093D02*
X270376Y394093D01*
G54D10*
X253716Y405097D02*
X253716Y383097D01*
X303716Y383097D01*
X303716Y405097D01*
X253716Y405097D01*
G54D12*
X282644Y416940D02*
X282644Y411385D01*
X283310Y410274D01*
X284644Y409718D01*
X285977Y409718D01*
X287310Y410274D01*
X287977Y411385D01*
X287977Y416940D01*
X287310Y418051D01*
X285977Y418607D01*
X284644Y418607D01*
X283310Y418051D01*
X282644Y416940D01*
G54D12*
X280200Y409718D02*
X280200Y409718D01*
G54D12*
X277756Y415274D02*
X274423Y418607D01*
X274423Y409718D01*
G54D12*
X267979Y414718D02*
X267979Y409718D01*
G54D12*
X267979Y410829D02*
X268646Y409940D01*
X269979Y409718D01*
X271312Y409940D01*
X271979Y410829D01*
X271979Y414718D01*
G54D13*
X787158Y735870D02*
X796936Y735870D01*
X796936Y739537D01*
X796325Y741004D01*
X795103Y741737D01*
X788992Y741737D01*
X787769Y741004D01*
X787158Y739537D01*
X787158Y735870D01*
G54D13*
X787769Y749559D02*
X787158Y748386D01*
X787158Y746919D01*
X787769Y745453D01*
X788992Y745159D01*
X791069Y745159D01*
X792292Y745893D01*
X792658Y747359D01*
X792292Y748826D01*
X791436Y749559D01*
X790214Y749559D01*
X790214Y745159D01*
G54D13*
X787158Y752981D02*
X792658Y752981D01*
G54D13*
X791680Y752981D02*
X792658Y754448D01*
X792292Y755915D01*
X791436Y756648D01*
X787158Y756648D01*
G54D13*
X791680Y756648D02*
X792658Y758114D01*
X792292Y759581D01*
X791436Y760314D01*
X787158Y760314D01*
G54D13*
X787769Y768136D02*
X787158Y766963D01*
X787158Y765496D01*
X787769Y764030D01*
X788992Y763736D01*
X791069Y763736D01*
X792292Y764470D01*
X792658Y765936D01*
X792292Y767403D01*
X791436Y768136D01*
X790214Y768136D01*
X790214Y763736D01*
G54D13*
X787158Y771558D02*
X792658Y771558D01*
G54D13*
X791436Y771558D02*
X792292Y772292D01*
X792658Y773758D01*
X792292Y775225D01*
X791436Y775958D01*
X787158Y775958D01*
G54D13*
X796936Y780847D02*
X787769Y780847D01*
X787158Y781580D01*
X787403Y782314D01*
G54D13*
X792658Y779380D02*
X792658Y782314D01*
G54D13*
X787158Y785735D02*
X792658Y785735D01*
G54D13*
X794492Y785735D02*
X794492Y785735D01*
G54D13*
X787769Y793557D02*
X787158Y792384D01*
X787158Y790917D01*
X787769Y789451D01*
X788992Y789157D01*
X791069Y789157D01*
X792292Y789891D01*
X792658Y791357D01*
X792292Y792824D01*
X791436Y793557D01*
X790214Y793557D01*
X790214Y789157D01*
G54D13*
X792658Y796979D02*
X787158Y799913D01*
X792658Y802846D01*
G54D11*
G75*
G01X746500Y782241D02*
G03X746500Y752796I8500J-14723D01*
G01*
G36*
G75*
G01X746500Y782241D02*
G03X746500Y752796I8500J-14723D01*
G01*
G37*
X746500Y782241D01*
G36*
X746499Y782241D02*
X765258Y782241D01*
X765271Y782228D01*
X765271Y776671D01*
X761302Y778259D01*
X764874Y773496D01*
X764874Y766749D01*
X758524Y770321D01*
X764874Y763178D01*
X764874Y759209D01*
X759318Y761193D01*
X759318Y758018D01*
X764477Y754446D01*
X764477Y752065D01*
X747230Y752065D01*
X746499Y752796D01*
X746499Y782241D01*
G37*
G54D11*
X746499Y782241D02*
X765258Y782241D01*
X765271Y782228D01*
X765271Y776671D01*
X761302Y778259D01*
X764874Y773496D01*
X764874Y766749D01*
X758524Y770321D01*
X764874Y763178D01*
X764874Y759209D01*
X759318Y761193D01*
X759318Y758018D01*
X764477Y754446D01*
X764477Y752065D01*
X747230Y752065D01*
X746499Y752796D01*
X746499Y782241D01*
G36*
X756937Y802071D02*
X749793Y803262D01*
X743840Y802071D01*
X745824Y806437D01*
X756937Y802071D01*
G37*
G54D11*
X756937Y802071D02*
X749793Y803262D01*
X743840Y802071D01*
X745824Y806437D01*
X756937Y802071D01*
G54D11*
G75*
G01X756959Y802030D02*
G03X734445Y738101I-5159J-34112D01*
G01*
G36*
X743840Y802071D02*
X738284Y805643D01*
X735108Y802071D01*
X737887Y799690D01*
X743840Y802071D01*
G37*
G54D11*
X743840Y802071D02*
X738284Y805643D01*
X735108Y802071D01*
X737887Y799690D01*
X743840Y802071D01*
G36*
X735902Y798896D02*
X728362Y804056D01*
X725584Y800087D01*
X729949Y794928D01*
X716058Y802865D01*
X714074Y797706D01*
X725187Y790562D01*
X729552Y795324D01*
X735902Y798896D01*
G37*
G54D11*
X735902Y798896D02*
X728362Y804056D01*
X725584Y800087D01*
X729949Y794928D01*
X716058Y802865D01*
X714074Y797706D01*
X725187Y790562D01*
X729552Y795324D01*
X735902Y798896D01*
G36*
X723202Y788181D02*
X719234Y781037D01*
X717646Y773496D01*
X715265Y777862D01*
X717249Y782624D01*
X720027Y783021D01*
X714074Y788181D01*
X716455Y792943D01*
X723202Y788181D01*
G37*
G54D11*
X723202Y788181D02*
X719234Y781037D01*
X717646Y773496D01*
X715265Y777862D01*
X717249Y782624D01*
X720027Y783021D01*
X714074Y788181D01*
X716455Y792943D01*
X723202Y788181D01*
G36*
X716852Y768337D02*
X713280Y770718D01*
X711296Y765162D01*
X717249Y761987D01*
X716852Y768337D01*
G37*
G54D11*
X716852Y768337D02*
X713280Y770718D01*
X711296Y765162D01*
X717249Y761987D01*
X716852Y768337D01*
G36*
X734445Y738101D02*
X730743Y739762D01*
X724790Y744921D01*
X720027Y752859D01*
X718440Y758812D01*
X716058Y753256D01*
X718440Y751271D01*
X716058Y746509D01*
X718440Y745715D01*
X717249Y744524D01*
X717249Y737381D01*
X734445Y738101D01*
G37*
G54D11*
X734445Y738101D02*
X730743Y739762D01*
X724790Y744921D01*
X720027Y752859D01*
X718440Y758812D01*
X716058Y753256D01*
X718440Y751271D01*
X716058Y746509D01*
X718440Y745715D01*
X717249Y744524D01*
X717249Y737381D01*
X734445Y738101D01*
G54D14*
X445102Y677010D02*
X445102Y689710D01*
X438752Y696060D01*
X426052Y696060D01*
X419702Y689710D01*
X413352Y696060D01*
X400652Y696060D01*
X394302Y689710D01*
X394302Y677010D01*
X400652Y670660D01*
X413352Y670660D01*
X419702Y677010D01*
X426052Y670660D01*
X438752Y670660D01*
X445102Y677010D01*
G54D14*
X419702Y689710D02*
X419702Y677010D01*
G54D14*
X394302Y677010D02*
X387952Y670660D01*
X375252Y670660D01*
X368902Y677010D01*
X362552Y670660D01*
X349852Y670660D01*
X343502Y677010D01*
X337152Y670660D01*
X324452Y670660D01*
X318102Y677010D01*
X311752Y670660D01*
X299052Y670660D01*
X292702Y677010D01*
X292702Y689710D01*
X299052Y696060D01*
X311752Y696060D01*
X318102Y689710D01*
X318102Y677010D01*
G54D14*
X318102Y689710D02*
X324452Y696060D01*
X337152Y696060D01*
X343502Y689710D01*
X343502Y677010D01*
G54D14*
X343502Y689710D02*
X349852Y696060D01*
X362552Y696060D01*
X368902Y689710D01*
X368902Y677010D01*
G54D14*
X368902Y689313D02*
X375252Y695663D01*
X387952Y695663D01*
X394302Y689313D01*
G54D14*
X438116Y738294D02*
X438116Y808398D01*
X368012Y808398D01*
X368012Y741850D01*
X371568Y738294D01*
X438116Y738294D01*
G54D14*
X376217Y749444D02*
X375632Y749495D01*
X375048Y749444D01*
X374464Y749292D01*
X373931Y749063D01*
X373423Y748733D01*
X372991Y748327D01*
X372635Y747870D01*
X372356Y747362D01*
X372153Y746803D01*
X372051Y746218D01*
X372051Y745609D01*
X372153Y745025D01*
X372356Y744466D01*
X372635Y743958D01*
X372991Y743501D01*
X373423Y743094D01*
X373931Y742764D01*
X374464Y742536D01*
X375048Y742383D01*
X375632Y742332D01*
X376217Y742383D01*
X376801Y742536D01*
X377334Y742764D01*
X377842Y743094D01*
X378274Y743501D01*
X378630Y743958D01*
X378909Y744466D01*
X379112Y745025D01*
X379214Y745609D01*
X379214Y746218D01*
X379112Y746803D01*
X378909Y747362D01*
X378630Y747870D01*
X378274Y748327D01*
X377842Y748733D01*
X377334Y749063D01*
X376801Y749292D01*
X376217Y749444D01*
G54D12*
X477098Y680022D02*
X477098Y688911D01*
X472431Y688911D01*
G54D12*
X477098Y684467D02*
X472431Y684467D01*
G54D12*
X467320Y680022D02*
X467320Y688911D01*
G54D12*
X469986Y688911D02*
X464653Y688911D01*
G54D12*
X462210Y680022D02*
X462210Y688911D01*
X458876Y688911D01*
X457543Y688356D01*
X456876Y687245D01*
X456876Y681689D01*
X457543Y680578D01*
X458876Y680022D01*
X462210Y680022D01*
G54D12*
X454432Y680022D02*
X454432Y688911D01*
G54D14*
X285574Y802992D02*
X285574Y824992D01*
X247574Y824992D01*
X247574Y802992D01*
X285574Y802992D01*
G54D11*
X270271Y813299D02*
X267431Y813299D01*
X267431Y818299D01*
X267431Y808299D01*
G54D11*
X265431Y818299D02*
X265431Y808299D01*
G54D11*
X265431Y813299D02*
X262987Y813299D01*
G54D12*
X438885Y831582D02*
X435552Y840471D01*
X432219Y831582D01*
G54D12*
X437552Y834916D02*
X433552Y834916D01*
G54D12*
X427108Y831582D02*
X427108Y840471D01*
G54D12*
X429774Y840471D02*
X424441Y840471D01*
G54D12*
X421997Y831582D02*
X421997Y836582D01*
G54D12*
X421997Y835693D02*
X420664Y836582D01*
X419331Y836249D01*
X418664Y835471D01*
X418664Y831582D01*
G54D12*
X418664Y835693D02*
X417331Y836582D01*
X415997Y836249D01*
X415331Y835471D01*
X415331Y831582D01*
G54D12*
X408886Y832138D02*
X409953Y831582D01*
X411286Y831582D01*
X412620Y832138D01*
X412886Y833249D01*
X412886Y835138D01*
X412220Y836249D01*
X410886Y836582D01*
X409553Y836249D01*
X408886Y835471D01*
X408886Y834360D01*
X412886Y834360D01*
G54D12*
X406442Y829916D02*
X405109Y829360D01*
X404176Y829360D01*
X402842Y829916D01*
X402442Y831027D01*
X402442Y836582D01*
G54D12*
X402442Y835138D02*
X403109Y836249D01*
X404442Y836582D01*
X405776Y836249D01*
X406442Y835138D01*
X406442Y832916D01*
X405776Y831804D01*
X404442Y831582D01*
X403109Y831804D01*
X402442Y832916D01*
G54D12*
X399998Y836027D02*
X398665Y836582D01*
X397065Y836582D01*
X395998Y835471D01*
X395998Y831582D01*
G54D12*
X395998Y833249D02*
X396665Y834360D01*
X397998Y834582D01*
X399332Y834360D01*
X399998Y833249D01*
X399732Y832138D01*
X398665Y831582D01*
X397998Y831582D01*
X397732Y831582D01*
X396665Y832138D01*
X395998Y833249D01*
G54D12*
X393554Y838804D02*
X392888Y839916D01*
X391554Y840471D01*
X390221Y840471D01*
X388888Y839916D01*
X388221Y838804D01*
X388221Y837693D01*
X388888Y836582D01*
X390221Y836027D01*
X388888Y835471D01*
X388221Y834360D01*
X388221Y833249D01*
X388888Y832138D01*
X390221Y831582D01*
X391554Y831582D01*
X392888Y832138D01*
X393554Y833249D01*
G54D12*
X380444Y831582D02*
X385777Y831582D01*
X385777Y832138D01*
X385111Y833249D01*
X381111Y836582D01*
X380444Y837693D01*
X380444Y838804D01*
X381111Y839916D01*
X382444Y840471D01*
X383777Y840471D01*
X385111Y839916D01*
X385777Y838804D01*
G54D12*
X374667Y836027D02*
X376000Y836027D01*
X377334Y836582D01*
X378000Y837693D01*
X378000Y838804D01*
X377334Y839916D01*
X376000Y840471D01*
X374667Y840471D01*
X373334Y839916D01*
X372667Y838804D01*
X372667Y837693D01*
X373334Y836582D01*
X374667Y836027D01*
X373334Y835471D01*
X372667Y834360D01*
X372667Y833249D01*
X373334Y832138D01*
X374667Y831582D01*
X376000Y831582D01*
X377334Y832138D01*
X378000Y833249D01*
X378000Y834360D01*
X377334Y835471D01*
X376000Y836027D01*
G54D12*
X332274Y837859D02*
X328940Y841192D01*
X328940Y832303D01*
G54D12*
X321163Y839525D02*
X321830Y840636D01*
X323163Y841192D01*
X324497Y841192D01*
X325830Y840636D01*
X326497Y839525D01*
X326497Y836748D01*
X326497Y836192D01*
X324497Y837303D01*
X323163Y837303D01*
X321830Y836748D01*
X321163Y835636D01*
X321163Y833970D01*
X321830Y832859D01*
X323163Y832303D01*
X324497Y832303D01*
X325830Y832859D01*
X326497Y833970D01*
X326497Y836748D01*
G54D12*
X318720Y832303D02*
X318720Y841192D01*
X315386Y835636D01*
X312053Y841192D01*
X312053Y832303D01*
G54D12*
X309609Y832303D02*
X309609Y841192D01*
G54D12*
X304275Y832303D02*
X304275Y841192D01*
G54D12*
X309609Y836748D02*
X304275Y836748D01*
G54D12*
X301832Y837303D02*
X297832Y837303D01*
X301832Y832303D01*
X297832Y832303D01*
G54D14*
G75*
G01X301768Y765532D02*
G03X326768Y765532I12500J0D01*
G01*
G54D14*
G75*
G01X327168Y814732D02*
G03X302168Y814732I-12500J0D01*
G01*
G54D14*
X301968Y765632D02*
X302068Y814732D01*
G54D14*
X327068Y765632D02*
X327468Y815132D01*
G54D14*
X324468Y787732D02*
X305368Y787732D01*
X305368Y794132D01*
X324468Y794132D01*
X324468Y787732D01*
G54D14*
X321268Y784632D02*
X308568Y784632D01*
G54D14*
X321268Y797232D02*
X308568Y797232D01*
G54D14*
X314868Y797232D02*
X314868Y816332D01*
G54D14*
X314868Y765532D02*
X314868Y784632D01*
G54D14*
X285178Y752589D02*
X285178Y774589D01*
X247178Y774589D01*
X247178Y752589D01*
X285178Y752589D01*
G54D11*
X269874Y762896D02*
X267034Y762896D01*
X267034Y767896D01*
X267034Y757896D01*
G54D11*
X265034Y767896D02*
X265034Y757896D01*
G54D11*
X265034Y762896D02*
X262590Y762896D01*
G54D12*
X270584Y831907D02*
X275917Y831907D01*
X275917Y832462D01*
X275250Y833574D01*
X271250Y836907D01*
X270584Y838018D01*
X270584Y839129D01*
X271250Y840240D01*
X272584Y840796D01*
X273917Y840796D01*
X275250Y840240D01*
X275917Y839129D01*
G54D12*
X262806Y831907D02*
X268140Y831907D01*
X268140Y832462D01*
X267473Y833574D01*
X263473Y836907D01*
X262806Y838018D01*
X262806Y839129D01*
X263473Y840240D01*
X264806Y840796D01*
X266140Y840796D01*
X267473Y840240D01*
X268140Y839129D01*
G54D12*
X260363Y836907D02*
X260363Y829685D01*
G54D12*
X260363Y833574D02*
X259696Y832129D01*
X258363Y831907D01*
X257030Y832129D01*
X256363Y833240D01*
X256363Y835462D01*
X257030Y836574D01*
X258363Y836907D01*
X259696Y836574D01*
X260363Y835240D01*
G54D12*
X268599Y737848D02*
X273932Y737848D01*
X273932Y738403D01*
X273266Y739514D01*
X269266Y742848D01*
X268599Y743959D01*
X268599Y745070D01*
X269266Y746181D01*
X270599Y746736D01*
X271932Y746736D01*
X273266Y746181D01*
X273932Y745070D01*
G54D12*
X260822Y737848D02*
X266156Y737848D01*
X266156Y738403D01*
X265489Y739514D01*
X261489Y742848D01*
X260822Y743959D01*
X260822Y745070D01*
X261489Y746181D01*
X262822Y746736D01*
X264156Y746736D01*
X265489Y746181D01*
X266156Y745070D01*
G54D12*
X258378Y742848D02*
X258378Y735625D01*
G54D12*
X258378Y739514D02*
X257712Y738070D01*
X256378Y737848D01*
X255045Y738070D01*
X254378Y739181D01*
X254378Y741403D01*
X255045Y742514D01*
X256378Y742848D01*
X257712Y742514D01*
X258378Y741181D01*
G54D14*
X357409Y634320D02*
X357409Y656320D01*
X319409Y656320D01*
X319409Y634320D01*
X357409Y634320D01*
G54D11*
X342106Y644627D02*
X339265Y644627D01*
X339265Y649627D01*
X339265Y639627D01*
G54D11*
X337265Y649627D02*
X337265Y639627D01*
G54D11*
X337265Y644627D02*
X334821Y644627D01*
G54D12*
X342841Y628599D02*
X342841Y623043D01*
X343508Y621932D01*
X344841Y621377D01*
X346174Y621377D01*
X347508Y621932D01*
X348174Y623043D01*
X348174Y628599D01*
X347508Y629710D01*
X346174Y630265D01*
X344841Y630265D01*
X343508Y629710D01*
X342841Y628599D01*
G54D12*
X340397Y621377D02*
X340397Y621377D01*
G54D12*
X337953Y626932D02*
X334620Y630265D01*
X334620Y621377D01*
G54D12*
X328176Y626377D02*
X328176Y621377D01*
G54D12*
X328176Y622488D02*
X328843Y621599D01*
X330176Y621377D01*
X331510Y621599D01*
X332176Y622488D01*
X332176Y626377D01*
G54D10*
X440247Y562259D02*
X462247Y562259D01*
X462247Y512259D01*
X440247Y512259D01*
X440247Y562259D01*
G54D11*
X450968Y544299D02*
X450968Y541099D01*
X449368Y541099D01*
X449368Y533199D01*
X452568Y533199D01*
X452568Y541099D01*
X450968Y541099D01*
G54D11*
X450968Y533199D02*
X450968Y529999D01*
G54D12*
X473171Y528155D02*
X476504Y531489D01*
X467615Y531489D01*
G54D12*
X474837Y539266D02*
X469282Y539266D01*
X468171Y538599D01*
X467615Y537266D01*
X467615Y535932D01*
X468171Y534599D01*
X469282Y533932D01*
X474837Y533932D01*
X475948Y534599D01*
X476504Y535932D01*
X476504Y537266D01*
X475948Y538599D01*
X474837Y539266D01*
G54D12*
X467615Y541709D02*
X476504Y541709D01*
G54D12*
X470948Y543709D02*
X467615Y545709D01*
G54D12*
X469837Y541709D02*
X472615Y545709D01*
G54D10*
X547403Y561068D02*
X569403Y561068D01*
X569403Y511068D01*
X547403Y511068D01*
X547403Y561068D01*
G54D11*
X558125Y543108D02*
X558125Y539908D01*
X556524Y539908D01*
X556525Y532008D01*
X559724Y532008D01*
X559725Y539908D01*
X558125Y539908D01*
G54D11*
X558124Y532008D02*
X558125Y528808D01*
G54D12*
X580327Y526965D02*
X583660Y530298D01*
X574771Y530298D01*
G54D12*
X581994Y538075D02*
X576438Y538075D01*
X575327Y537408D01*
X574771Y536075D01*
X574771Y534742D01*
X575327Y533408D01*
X576438Y532742D01*
X581994Y532742D01*
X583105Y533408D01*
X583660Y534742D01*
X583660Y536075D01*
X583105Y537408D01*
X581994Y538075D01*
G54D12*
X574771Y540519D02*
X583660Y540519D01*
G54D12*
X578105Y542519D02*
X574771Y544519D01*
G54D12*
X576994Y540519D02*
X579771Y544519D01*
G54D10*
X439453Y462643D02*
X461453Y462643D01*
X461453Y412643D01*
X439453Y412643D01*
X439453Y462643D01*
G54D11*
X450175Y444683D02*
X450175Y441483D01*
X448574Y441483D01*
X448575Y433583D01*
X451774Y433583D01*
X451775Y441483D01*
X450175Y441483D01*
G54D11*
X450174Y433583D02*
X450175Y430383D01*
G54D12*
X471980Y428540D02*
X475313Y431873D01*
X466424Y431873D01*
G54D12*
X473647Y439650D02*
X468091Y439650D01*
X466980Y438984D01*
X466424Y437650D01*
X466424Y436317D01*
X466980Y434984D01*
X468091Y434317D01*
X473647Y434317D01*
X474758Y434984D01*
X475313Y436317D01*
X475313Y437650D01*
X474758Y438984D01*
X473647Y439650D01*
G54D12*
X466424Y442094D02*
X475313Y442094D01*
G54D12*
X469758Y444094D02*
X466424Y446094D01*
G54D12*
X468647Y442094D02*
X471424Y446094D01*
G54D10*
X547403Y462643D02*
X569403Y462643D01*
X569403Y412643D01*
X547403Y412643D01*
X547403Y462643D01*
G54D11*
X558125Y444683D02*
X558125Y441483D01*
X556524Y441483D01*
X556525Y433583D01*
X559724Y433583D01*
X559725Y441483D01*
X558125Y441483D01*
G54D11*
X558124Y433583D02*
X558125Y430383D01*
G54D12*
X579930Y428540D02*
X583263Y431873D01*
X574374Y431873D01*
G54D12*
X581597Y439650D02*
X576041Y439650D01*
X574930Y438984D01*
X574374Y437650D01*
X574374Y436317D01*
X574930Y434984D01*
X576041Y434317D01*
X581597Y434317D01*
X582708Y434984D01*
X583263Y436317D01*
X583263Y437650D01*
X582708Y438984D01*
X581597Y439650D01*
G54D12*
X574374Y442094D02*
X583263Y442094D01*
G54D12*
X577708Y444094D02*
X574374Y446094D01*
G54D12*
X576597Y442094D02*
X579374Y446094D01*
G54D10*
X655353Y459468D02*
X677353Y459468D01*
X677353Y409468D01*
X655353Y409468D01*
X655353Y459468D01*
G54D11*
X666075Y441508D02*
X666075Y438308D01*
X664474Y438308D01*
X664475Y430408D01*
X667674Y430408D01*
X667675Y438308D01*
X666075Y438308D01*
G54D11*
X666074Y430408D02*
X666075Y427208D01*
G54D12*
X687880Y425365D02*
X691213Y428698D01*
X682324Y428698D01*
G54D12*
X689547Y436475D02*
X683991Y436475D01*
X682880Y435808D01*
X682324Y434475D01*
X682324Y433142D01*
X682880Y431808D01*
X683991Y431142D01*
X689547Y431142D01*
X690658Y431808D01*
X691213Y433142D01*
X691213Y434475D01*
X690658Y435808D01*
X689547Y436475D01*
G54D12*
X682324Y438919D02*
X691213Y438919D01*
G54D12*
X685658Y440919D02*
X682324Y442919D01*
G54D12*
X684547Y438919D02*
X687324Y442919D01*
G54D10*
X768048Y528695D02*
X790048Y528695D01*
X790048Y478695D01*
X768048Y478695D01*
X768048Y528695D01*
G54D11*
X778770Y510735D02*
X778770Y507535D01*
X777170Y507535D01*
X777170Y499635D01*
X780370Y499635D01*
X780370Y507535D01*
X778770Y507535D01*
G54D11*
X778770Y499635D02*
X778770Y496435D01*
G54D12*
X800178Y493798D02*
X803512Y497131D01*
X794623Y497131D01*
G54D12*
X801845Y504908D02*
X796290Y504908D01*
X795178Y504242D01*
X794623Y502908D01*
X794623Y501575D01*
X795178Y500242D01*
X796290Y499575D01*
X801845Y499575D01*
X802956Y500242D01*
X803512Y501575D01*
X803512Y502908D01*
X802956Y504242D01*
X801845Y504908D01*
G54D12*
X794623Y507352D02*
X803512Y507352D01*
G54D12*
X797956Y509352D02*
X794623Y511352D01*
G54D12*
X796845Y507352D02*
X799623Y511352D01*
G54D11*
X823520Y454667D02*
X823520Y446667D01*
X818520Y446667D01*
X828520Y446667D01*
G54D11*
X818520Y444667D02*
X828520Y444667D01*
G54D11*
X823520Y444667D02*
X823520Y436667D01*
G54D10*
X812516Y420006D02*
X834516Y420006D01*
X834516Y470006D01*
X812516Y470006D01*
X812516Y420006D01*
G54D12*
X847900Y435612D02*
X842344Y435612D01*
X841233Y434945D01*
X840678Y433612D01*
X840678Y432279D01*
X841233Y430945D01*
X842344Y430279D01*
X847900Y430279D01*
X849011Y430945D01*
X849566Y432279D01*
X849566Y433612D01*
X849011Y434945D01*
X847900Y435612D01*
G54D12*
X840678Y438056D02*
X840678Y438056D01*
G54D12*
X846233Y440500D02*
X849566Y443833D01*
X840678Y443833D01*
G54D12*
X845678Y450277D02*
X840678Y450277D01*
G54D12*
X841789Y450277D02*
X840900Y449610D01*
X840678Y448277D01*
X840900Y446943D01*
X841789Y446277D01*
X845678Y446277D01*
G54D11*
X779070Y454667D02*
X779070Y446667D01*
X774070Y446667D01*
X784070Y446667D01*
G54D11*
X774070Y444667D02*
X784070Y444667D01*
G54D11*
X779070Y444667D02*
X779070Y436667D01*
G54D10*
X768066Y420006D02*
X790066Y420006D01*
X790066Y470006D01*
X768066Y470006D01*
X768066Y420006D01*
G54D12*
X802656Y440771D02*
X797100Y440771D01*
X795989Y440105D01*
X795434Y438771D01*
X795434Y437438D01*
X795989Y436105D01*
X797100Y435438D01*
X802656Y435438D01*
X803767Y436105D01*
X804323Y437438D01*
X804323Y438771D01*
X803767Y440105D01*
X802656Y440771D01*
G54D12*
X795434Y443215D02*
X795434Y443215D01*
G54D12*
X800989Y445659D02*
X804323Y448992D01*
X795434Y448992D01*
G54D12*
X800434Y455436D02*
X795434Y455436D01*
G54D12*
X796545Y455436D02*
X795656Y454769D01*
X795434Y453436D01*
X795656Y452103D01*
X796545Y451436D01*
X800434Y451436D01*
G54D10*
X330692Y590090D02*
X330692Y612090D01*
X380692Y612090D01*
X380692Y590090D01*
X330692Y590090D01*
G54D12*
X365192Y581738D02*
X361858Y585072D01*
X361858Y576183D01*
G54D12*
X354081Y583405D02*
X354081Y577850D01*
X354748Y576738D01*
X356081Y576183D01*
X357415Y576183D01*
X358748Y576738D01*
X359415Y577850D01*
X359415Y583405D01*
X358748Y584516D01*
X357415Y585072D01*
X356081Y585072D01*
X354748Y584516D01*
X354081Y583405D01*
G54D12*
X351638Y576183D02*
X351638Y585072D01*
G54D12*
X349638Y579516D02*
X347638Y576183D01*
G54D12*
X351638Y578405D02*
X347638Y581183D01*
G54D14*
X434783Y607954D02*
X447483Y607954D01*
X453833Y614304D01*
X453833Y627004D01*
X447483Y633354D01*
X453833Y639704D01*
X453833Y652404D01*
X447483Y658754D01*
X434783Y658754D01*
X428433Y652404D01*
X428433Y639704D01*
X434783Y633354D01*
X428433Y627004D01*
X428433Y614304D01*
X434783Y607954D01*
G54D12*
X464270Y623514D02*
X463158Y625514D01*
X462047Y626181D01*
X459825Y626181D01*
G54D12*
X459825Y620848D02*
X468714Y620848D01*
X468714Y624181D01*
X468158Y625514D01*
X467047Y626181D01*
X465936Y626181D01*
X464825Y625514D01*
X464270Y624181D01*
X464270Y620848D01*
G54D12*
X460381Y632625D02*
X459825Y631558D01*
X459825Y630225D01*
X460381Y628892D01*
X461492Y628625D01*
X463381Y628625D01*
X464492Y629292D01*
X464825Y630625D01*
X464492Y631958D01*
X463714Y632625D01*
X462603Y632625D01*
X462603Y628625D01*
G54D12*
X460381Y635069D02*
X459825Y636402D01*
X459825Y637736D01*
X460381Y639069D01*
X461492Y639069D01*
X462047Y638402D01*
X462603Y635736D01*
X463158Y635069D01*
X464270Y635069D01*
X464825Y636402D01*
X464825Y637736D01*
X464270Y639069D01*
G54D12*
X460381Y645513D02*
X459825Y644446D01*
X459825Y643113D01*
X460381Y641780D01*
X461492Y641513D01*
X463381Y641513D01*
X464492Y642180D01*
X464825Y643513D01*
X464492Y644846D01*
X463714Y645513D01*
X462603Y645513D01*
X462603Y641513D01*
G54D12*
X468714Y649290D02*
X460381Y649290D01*
X459825Y649957D01*
X460047Y650624D01*
G54D12*
X464825Y647957D02*
X464825Y650624D01*
G54D15*
X845466Y871999D02*
X845466Y849777D01*
X833799Y849777D01*
G54D15*
X814354Y849777D02*
X826021Y849777D01*
X826021Y871999D01*
X814354Y871999D01*
G54D15*
X826021Y860888D02*
X814354Y860888D01*
G54D15*
X806576Y849777D02*
X806576Y871999D01*
X798242Y871999D01*
X794909Y870610D01*
X793242Y867832D01*
X793242Y853943D01*
X794909Y851166D01*
X798242Y849777D01*
X806576Y849777D01*
G54D15*
X777354Y849777D02*
X777354Y871999D01*
X769020Y871999D01*
X765687Y870610D01*
X764020Y867832D01*
X764020Y865054D01*
X765687Y862277D01*
X769020Y860888D01*
X777354Y860888D01*
G54D15*
X756243Y849777D02*
X756243Y871999D01*
G54D15*
X756243Y858666D02*
X754576Y861443D01*
X751243Y862277D01*
X747909Y861443D01*
X746243Y858666D01*
X746243Y849777D01*
G54D15*
X728465Y853110D02*
X728465Y858666D01*
X730131Y861443D01*
X733465Y862277D01*
X736798Y861443D01*
X738465Y858666D01*
X738465Y853110D01*
X736798Y850332D01*
X733465Y849777D01*
X730131Y850332D01*
X728465Y853110D01*
G54D15*
X717353Y871999D02*
X717353Y851166D01*
X715687Y849777D01*
X714020Y850332D01*
G54D15*
X720687Y862277D02*
X714020Y862277D01*
G54D15*
X696242Y853110D02*
X696242Y858666D01*
X697908Y861443D01*
X701242Y862277D01*
X704575Y861443D01*
X706242Y858666D01*
X706242Y853110D01*
X704575Y850332D01*
X701242Y849777D01*
X697908Y850332D01*
X696242Y853110D01*
G54D15*
X688464Y849777D02*
X688464Y862277D01*
G54D15*
X688464Y859499D02*
X685130Y862277D01*
X681797Y862277D01*
G54D15*
X664019Y851166D02*
X666685Y849777D01*
X670019Y849777D01*
X673352Y851166D01*
X674019Y853943D01*
X674019Y858666D01*
X672352Y861443D01*
X669019Y862277D01*
X665685Y861443D01*
X664019Y859499D01*
X664019Y856721D01*
X674019Y856721D01*
G54D15*
X656241Y851166D02*
X652907Y849777D01*
X649574Y849777D01*
X646241Y851166D01*
X646241Y853943D01*
X647907Y855332D01*
X654574Y856721D01*
X656241Y858110D01*
X656241Y860888D01*
X652907Y862277D01*
X649574Y862277D01*
X646241Y860888D01*
G54D15*
X638463Y849777D02*
X638463Y862277D01*
G54D15*
X638463Y866443D02*
X638463Y866443D01*
G54D15*
X630685Y851166D02*
X627351Y849777D01*
X624018Y849777D01*
X620685Y851166D01*
X620685Y853943D01*
X622351Y855332D01*
X629018Y856721D01*
X630685Y858110D01*
X630685Y860888D01*
X627351Y862277D01*
X624018Y862277D01*
X620685Y860888D01*
G54D15*
X609573Y871999D02*
X609573Y851166D01*
X607907Y849777D01*
X606240Y850332D01*
G54D15*
X612907Y862277D02*
X606240Y862277D01*
G54D15*
X583684Y849777D02*
X583684Y871999D01*
G54D15*
X590351Y871999D02*
X577017Y871999D01*
G54D15*
X569240Y849777D02*
X569240Y862277D01*
G54D15*
X569240Y866443D02*
X569240Y866443D01*
G54D15*
X561462Y849777D02*
X561462Y862277D01*
G54D15*
X561462Y860054D02*
X558128Y862277D01*
X554795Y861443D01*
X553128Y859499D01*
X553128Y849777D01*
G54D15*
X553128Y860054D02*
X549795Y862277D01*
X546462Y861443D01*
X544795Y859499D01*
X544795Y849777D01*
G54D15*
X527017Y851166D02*
X529683Y849777D01*
X533017Y849777D01*
X536350Y851166D01*
X537017Y853943D01*
X537017Y858666D01*
X535350Y861443D01*
X532017Y862277D01*
X528683Y861443D01*
X527017Y859499D01*
X527017Y856721D01*
X537017Y856721D01*
G54D15*
X519239Y849777D02*
X519239Y862277D01*
G54D15*
X519239Y859499D02*
X515905Y862277D01*
X512572Y862277D01*
M02*
