; Drill file
; Format: 2.4 (00.0000)
M48
INCH
T01C0.0157
T02C0.0315
T03C0.126
%
G05
G90
T01
X007250Y006260
X008190Y007210
X007250Y008150
X006300Y007210
X001800Y014160
X001800Y014980
X000920Y014980
X000920Y014160
X014340Y001750
X015170Y001750
X015170Y000870
X014340Y000870
X026090Y007210
X027030Y006270
X027980Y007210
X027030Y008160
X037450Y014090
X037450Y014920
X038330Y014920
X038330Y014090
X031930Y030870
X032880Y031820
X031930Y032760
X030990Y031820
X015090Y037280
X014270Y037280
X014270Y038160
X015090Y038160
X012150Y032760
X013090Y031810
X012150Y030870
X011200Y031810
T02
X007330Y001750
X007330Y002750
X012200Y006750
X012200Y007750
X007330Y011630
X007330Y012620
X012200Y016560
X012200Y017560
X007330Y021500
X007330Y022500
X012200Y026380
X012200Y027370
X007330Y031310
X007330Y032310
X012200Y036250
X012200Y037250
X017140Y032310
X017140Y031310
X022080Y027370
X022080Y026380
X017140Y022500
X017140Y021500
X022080Y017560
X022080Y016560
X017140Y012620
X017140Y011630
X022080Y007750
X022080Y006750
X017140Y002750
X017140Y001750
X027020Y001750
X027020Y002750
X031890Y006750
X031890Y007750
X027020Y011630
X027020Y012620
X031890Y016560
X031890Y017560
X027020Y021500
X027020Y022500
X031890Y026380
X031890Y027370
X027020Y031310
X027020Y032310
X031890Y036250
X031890Y037250
X036830Y032310
X036830Y031310
X036830Y022500
X036830Y021500
X036830Y012620
X036830Y011630
X036830Y002750
X036830Y001750
X002390Y006750
X002390Y007750
X002390Y016560
X002390Y017560
X002390Y026380
X002390Y027370
X002390Y036250
X002390Y037250
X022080Y037250
X022080Y036250
T03
X007250Y007210
X027030Y007210
X031930Y031820
X012150Y031810
M30
