; Drill file
; Format: 2.4 (00.0000)
M48
INCH
T01C0.0197
T02C0.0394
T03C0.0787
T04C0.0984
T05C0.126
%
G05
G90
T01
X001730Y009570
X002680Y010520
X001730Y011460
X000790Y010520
X001750Y021710
X002690Y022660
X001750Y023600
X000810Y022660
X006500Y020570
X018000Y020580
X026020Y011790
X030400Y010450
X031340Y009510
X032290Y010450
X031340Y011400
X026530Y003410
X031310Y021710
X032260Y022660
X031310Y023600
X030370Y022660
T02
X005520Y002360
X006520Y003360
X006520Y001360
X006570Y006040
X005570Y007040
X006570Y008040
X015720Y007800
X016700Y007800
X017700Y007800
X018660Y007820
X019640Y007820
X020640Y007820
X021590Y007820
X022590Y007820
X023580Y007820
X024560Y007820
X025550Y007820
X026530Y007820
X027520Y007820
X028500Y007820
X029480Y007820
X033500Y007570
X034480Y007570
X035470Y007570
X036500Y009550
X036500Y011320
X036500Y013550
X036500Y015320
X036500Y017550
X036500Y019320
X033940Y019320
X033940Y017550
X033940Y015320
X033940Y013550
X033940Y011320
X033940Y009550
X033500Y001660
X035470Y001660
X029480Y001910
X028500Y001910
X027520Y001910
X026530Y001910
X025550Y001910
X024560Y001910
X023580Y001910
X022590Y001910
X021610Y001910
X020630Y001910
X019640Y001910
X018660Y001910
X017720Y001910
X016740Y001910
X015750Y001910
X016060Y022760
X015060Y022760
X014060Y022760
X013010Y022760
X012010Y022760
X011010Y022760
X010010Y022760
X009030Y022760
X008030Y022760
X007030Y022760
X005980Y022760
X004980Y022760
X003980Y022760
X017060Y022760
X018060Y022760
X019100Y022760
X034130Y021950
X035110Y022940
X036090Y021950
T03
X002470Y005950
X002470Y008000
T04
X002710Y001230
X003820Y003070
X001130Y003200
X032020Y004610
X036940Y004610
T05
X001730Y010520
X001750Y022660
X031310Y022660
X031340Y010450
M30
