%FSLAX34Y34*%
%MOMM*%
%LNSOLDERMASK_TOP*%
G71*
G01*
%ADD10C, 4.90*%
%ADD11C, 2.40*%
%ADD12C, 4.40*%
%ADD13C, 2.90*%
%ADD14C, 4.40*%
%ADD15C, 6.80*%
%ADD16C, 1.00*%
%LPD*%
X97020Y78004D02*
G54D10*
D03*
X28758Y81179D02*
G54D10*
D03*
X673900Y198563D02*
G54D11*
D03*
X648900Y198562D02*
G54D11*
D03*
X623900Y198562D02*
G54D11*
D03*
X498900Y198562D02*
G54D11*
D03*
X473900Y198562D02*
G54D11*
D03*
X473900Y48562D02*
G54D11*
D03*
X673900Y48562D02*
G54D11*
D03*
X723900Y48562D02*
G54D11*
D03*
X62845Y151107D02*
G54D12*
D03*
X62845Y203107D02*
G54D12*
D03*
X598891Y198562D02*
G54D11*
D03*
X573888Y198562D02*
G54D11*
D03*
X548488Y198562D02*
G54D11*
D03*
X524278Y198562D02*
G54D11*
D03*
X424288Y198166D02*
G54D11*
D03*
X399288Y198165D02*
G54D11*
D03*
X449666Y198166D02*
G54D11*
D03*
X400082Y48562D02*
G54D11*
D03*
X927100Y287462D02*
G54D11*
D03*
X862100Y287462D02*
G54D11*
D03*
X862100Y242462D02*
G54D11*
D03*
X927100Y242462D02*
G54D11*
D03*
X927100Y490662D02*
G54D11*
D03*
X862100Y490662D02*
G54D11*
D03*
X862100Y445662D02*
G54D11*
D03*
X927100Y445662D02*
G54D11*
D03*
X68786Y31168D02*
G54D10*
D03*
X891778Y582591D02*
G54D11*
D03*
X866778Y557591D02*
G54D11*
D03*
X916778Y557590D02*
G54D11*
D03*
X166866Y204093D02*
G54D13*
D03*
X141466Y178693D02*
G54D13*
D03*
X166866Y153293D02*
G54D13*
D03*
X900900Y192212D02*
G54D11*
D03*
X850900Y192212D02*
G54D11*
D03*
X875900Y192212D02*
G54D11*
D03*
X900900Y42212D02*
G54D11*
D03*
X850900Y42212D02*
G54D11*
D03*
X938400Y117212D02*
G54D14*
D03*
X813400Y117212D02*
G54D14*
D03*
X927100Y389062D02*
G54D11*
D03*
X862100Y389062D02*
G54D11*
D03*
X862100Y344062D02*
G54D11*
D03*
X927100Y344062D02*
G54D11*
D03*
X165675Y85428D02*
G54D13*
D03*
X140275Y60028D02*
G54D13*
D03*
X165675Y34628D02*
G54D13*
D03*
X101049Y578179D02*
G54D11*
D03*
X126449Y578180D02*
G54D11*
D03*
X151849Y578180D02*
G54D11*
D03*
X178440Y578180D02*
G54D11*
D03*
X203840Y578179D02*
G54D11*
D03*
X229240Y578180D02*
G54D11*
D03*
X357034Y578180D02*
G54D11*
D03*
X382434Y578180D02*
G54D11*
D03*
X407834Y578180D02*
G54D11*
D03*
X433234Y578180D02*
G54D11*
D03*
X458634Y578179D02*
G54D11*
D03*
X485224Y578179D02*
G54D11*
D03*
X796131Y265510D02*
G54D15*
D03*
X820131Y265510D02*
G54D16*
D03*
X813102Y248539D02*
G54D16*
D03*
X796131Y241510D02*
G54D16*
D03*
X779161Y248539D02*
G54D16*
D03*
X772131Y265510D02*
G54D16*
D03*
X779161Y282480D02*
G54D16*
D03*
X796131Y289510D02*
G54D16*
D03*
X813102Y282480D02*
G54D16*
D03*
X795338Y575469D02*
G54D15*
D03*
X819338Y575469D02*
G54D16*
D03*
X812308Y558498D02*
G54D16*
D03*
X795338Y551469D02*
G54D16*
D03*
X778367Y558498D02*
G54D16*
D03*
X771338Y575469D02*
G54D16*
D03*
X778367Y592440D02*
G54D16*
D03*
X795338Y599469D02*
G54D16*
D03*
X812308Y592440D02*
G54D16*
D03*
X44450Y575469D02*
G54D15*
D03*
X68450Y575469D02*
G54D16*
D03*
X61421Y558498D02*
G54D16*
D03*
X44450Y551469D02*
G54D16*
D03*
X27480Y558498D02*
G54D16*
D03*
X20450Y575469D02*
G54D16*
D03*
X27480Y592440D02*
G54D16*
D03*
X44450Y599469D02*
G54D16*
D03*
X61421Y592440D02*
G54D16*
D03*
X44053Y267097D02*
G54D15*
D03*
X68053Y267097D02*
G54D16*
D03*
X61024Y250127D02*
G54D16*
D03*
X44053Y243097D02*
G54D16*
D03*
X27083Y250127D02*
G54D16*
D03*
X20053Y267097D02*
G54D16*
D03*
X27083Y284068D02*
G54D16*
D03*
X44053Y291097D02*
G54D16*
D03*
X61024Y284068D02*
G54D16*
D03*
M02*
