%FSLAX34Y34*%
%MOMM*%
%LNSILK_BOTTOM*%
G71*
G01*
%ADD10C, 0.15*%
%ADD11C, 0.10*%
%ADD12C, 0.11*%
%ADD13C, 0.17*%
%ADD14C, 0.40*%
%LPD*%
G54D10*
X254706Y192596D02*
X254706Y214596D01*
X204706Y214596D01*
X204706Y192596D01*
X254706Y192596D01*
G54D11*
X236746Y203318D02*
X233546Y203318D01*
X233546Y201718D01*
X225646Y201718D01*
X225646Y204918D01*
X233546Y204918D01*
X233546Y203318D01*
G54D11*
X225646Y203318D02*
X222446Y203318D01*
G54D12*
X240953Y225123D02*
X237620Y228456D01*
X237620Y219567D01*
G54D12*
X229842Y226789D02*
X229842Y221234D01*
X230509Y220123D01*
X231842Y219567D01*
X233176Y219567D01*
X234509Y220123D01*
X235176Y221234D01*
X235176Y226789D01*
X234509Y227900D01*
X233176Y228456D01*
X231842Y228456D01*
X230509Y227900D01*
X229842Y226789D01*
G54D12*
X222066Y226789D02*
X222066Y221234D01*
X222732Y220123D01*
X224066Y219567D01*
X225399Y219567D01*
X226732Y220123D01*
X227399Y221234D01*
X227399Y226789D01*
X226732Y227900D01*
X225399Y228456D01*
X224066Y228456D01*
X222732Y227900D01*
X222066Y226789D01*
G54D10*
X127866Y243893D02*
X127866Y265893D01*
X177866Y265893D01*
X177866Y243893D01*
X127866Y243893D01*
G54D11*
X145826Y254615D02*
X149026Y254615D01*
X149026Y253015D01*
X156926Y253015D01*
X156926Y256215D01*
X149026Y256215D01*
X149026Y254615D01*
G54D11*
X156926Y254615D02*
X160126Y254615D01*
G54D12*
X157430Y271261D02*
X162763Y271261D01*
X162763Y271817D01*
X162096Y272928D01*
X158096Y276261D01*
X157430Y277372D01*
X157430Y278484D01*
X158096Y279595D01*
X159430Y280150D01*
X160763Y280150D01*
X162096Y279595D01*
X162763Y278484D01*
G54D12*
X149653Y271261D02*
X154986Y271261D01*
X154986Y271817D01*
X154319Y272928D01*
X150319Y276261D01*
X149653Y277372D01*
X149653Y278484D01*
X150319Y279595D01*
X151653Y280150D01*
X152986Y280150D01*
X154319Y279595D01*
X154986Y278484D01*
G54D12*
X147209Y271261D02*
X147209Y280150D01*
G54D12*
X145209Y274595D02*
X143209Y271261D01*
G54D12*
X147209Y273484D02*
X143209Y276261D01*
G54D10*
X781916Y448681D02*
X781916Y470681D01*
X831916Y470681D01*
X831916Y448681D01*
X781916Y448681D01*
G54D11*
X799876Y459402D02*
X803076Y459402D01*
X803076Y457802D01*
X810976Y457802D01*
X810976Y461002D01*
X803076Y461002D01*
X803076Y459402D01*
G54D11*
X810976Y459402D02*
X814176Y459402D01*
G54D12*
X816813Y482001D02*
X813480Y485335D01*
X813480Y476446D01*
G54D12*
X805703Y483668D02*
X805703Y478112D01*
X806370Y477001D01*
X807703Y476446D01*
X809036Y476446D01*
X810370Y477001D01*
X811036Y478112D01*
X811036Y483668D01*
X810370Y484779D01*
X809036Y485335D01*
X807703Y485335D01*
X806370Y484779D01*
X805703Y483668D01*
G54D12*
X803259Y476446D02*
X803259Y485335D01*
G54D12*
X801259Y479779D02*
X799259Y476446D01*
G54D12*
X803259Y478668D02*
X799259Y481446D01*
G54D10*
X781916Y404231D02*
X781916Y426231D01*
X831916Y426231D01*
X831916Y404231D01*
X781916Y404231D01*
G54D11*
X799876Y414952D02*
X803076Y414952D01*
X803076Y413352D01*
X810976Y413352D01*
X810976Y416552D01*
X803076Y416552D01*
X803076Y414952D01*
G54D11*
X810976Y414952D02*
X814176Y414952D01*
G54D12*
X816813Y436758D02*
X813480Y440091D01*
X813480Y431202D01*
G54D12*
X805703Y438424D02*
X805703Y432869D01*
X806370Y431758D01*
X807703Y431202D01*
X809036Y431202D01*
X810370Y431758D01*
X811036Y432869D01*
X811036Y438424D01*
X810370Y439535D01*
X809036Y440091D01*
X807703Y440091D01*
X806370Y439535D01*
X805703Y438424D01*
G54D12*
X803259Y431202D02*
X803259Y440091D01*
G54D12*
X801259Y434535D02*
X799259Y431202D01*
G54D12*
X803259Y433424D02*
X799259Y436202D01*
G54D10*
X781916Y347081D02*
X781916Y369081D01*
X831916Y369081D01*
X831916Y347081D01*
X781916Y347081D01*
G54D11*
X799876Y357802D02*
X803076Y357802D01*
X803076Y356202D01*
X810976Y356202D01*
X810976Y359402D01*
X803076Y359402D01*
X803076Y357802D01*
G54D11*
X810976Y357802D02*
X814176Y357802D01*
G54D12*
X816813Y379608D02*
X813480Y382941D01*
X813480Y374052D01*
G54D12*
X805703Y381274D02*
X805703Y375719D01*
X806370Y374608D01*
X807703Y374052D01*
X809036Y374052D01*
X810370Y374608D01*
X811036Y375719D01*
X811036Y381274D01*
X810370Y382385D01*
X809036Y382941D01*
X807703Y382941D01*
X806370Y382385D01*
X805703Y381274D01*
G54D12*
X803259Y374052D02*
X803259Y382941D01*
G54D12*
X801259Y377385D02*
X799259Y374052D01*
G54D12*
X803259Y376274D02*
X799259Y379052D01*
G54D10*
X649400Y171462D02*
X671400Y171462D01*
X671400Y121462D01*
X649400Y121462D01*
X649400Y171462D01*
G54D11*
X660122Y153502D02*
X660122Y150302D01*
X658522Y150302D01*
X658522Y142402D01*
X661722Y142402D01*
X661722Y150302D01*
X660122Y150302D01*
G54D11*
X660122Y142402D02*
X660122Y139202D01*
G54D12*
X682324Y136565D02*
X685657Y139898D01*
X676768Y139898D01*
G54D12*
X683990Y147675D02*
X678435Y147675D01*
X677324Y147008D01*
X676768Y145675D01*
X676768Y144342D01*
X677324Y143008D01*
X678435Y142342D01*
X683990Y142342D01*
X685102Y143008D01*
X685657Y144342D01*
X685657Y145675D01*
X685102Y147008D01*
X683990Y147675D01*
G54D12*
X676768Y150119D02*
X685657Y150119D01*
G54D12*
X680102Y152119D02*
X676768Y154119D01*
G54D12*
X678990Y150119D02*
X681768Y154119D01*
G54D11*
X239561Y104896D02*
X231561Y104896D01*
X231561Y109896D01*
X231561Y99896D01*
G54D11*
X229561Y109896D02*
X229561Y99896D01*
G54D11*
X229561Y104896D02*
X221561Y104896D01*
G54D10*
X204900Y115900D02*
X204900Y93900D01*
X254900Y93900D01*
X254900Y115900D01*
X204900Y115900D01*
G54D12*
X239781Y129331D02*
X239781Y123775D01*
X240448Y122664D01*
X241781Y122109D01*
X243115Y122109D01*
X244448Y122664D01*
X245115Y123775D01*
X245115Y129331D01*
X244448Y130442D01*
X243115Y130998D01*
X241781Y130998D01*
X240448Y130442D01*
X239781Y129331D01*
G54D12*
X236004Y122109D02*
X236004Y120998D01*
X236671Y119886D01*
X237338Y119886D01*
G54D12*
X233561Y129331D02*
X232894Y130442D01*
X231561Y130998D01*
X230227Y130998D01*
X228894Y130442D01*
X228227Y129331D01*
X228227Y128220D01*
X228894Y127109D01*
X230227Y126553D01*
X228894Y125998D01*
X228227Y124886D01*
X228227Y123775D01*
X228894Y122664D01*
X230227Y122109D01*
X231561Y122109D01*
X232894Y122664D01*
X233561Y123775D01*
G54D12*
X225784Y129331D02*
X225117Y130442D01*
X223784Y130998D01*
X222450Y130998D01*
X221117Y130442D01*
X220450Y129331D01*
X220450Y128220D01*
X221117Y127109D01*
X222450Y126553D01*
X221117Y125998D01*
X220450Y124886D01*
X220450Y123775D01*
X221117Y122664D01*
X222450Y122109D01*
X223784Y122109D01*
X225117Y122664D01*
X225784Y123775D01*
G54D12*
X214007Y127109D02*
X214007Y122109D01*
G54D12*
X214007Y123220D02*
X214673Y122331D01*
X216007Y122109D01*
X217340Y122331D01*
X218007Y123220D01*
X218007Y127109D01*
G54D11*
X239561Y60446D02*
X231561Y60446D01*
X231561Y65446D01*
X231561Y55446D01*
G54D11*
X229561Y65446D02*
X229561Y55446D01*
G54D11*
X229561Y60446D02*
X221561Y60446D01*
G54D10*
X204900Y71450D02*
X204900Y49450D01*
X254900Y49450D01*
X254900Y71450D01*
X204900Y71450D01*
G54D12*
X233828Y84087D02*
X233828Y78532D01*
X234495Y77420D01*
X235828Y76865D01*
X237162Y76865D01*
X238495Y77420D01*
X239162Y78532D01*
X239162Y84087D01*
X238495Y85198D01*
X237162Y85754D01*
X235828Y85754D01*
X234495Y85198D01*
X233828Y84087D01*
G54D12*
X230051Y76865D02*
X230051Y75754D01*
X230718Y74643D01*
X231385Y74643D01*
G54D12*
X227608Y82420D02*
X224274Y85754D01*
X224274Y76865D01*
G54D12*
X217831Y81865D02*
X217831Y76865D01*
G54D12*
X217831Y77976D02*
X218497Y77087D01*
X219831Y76865D01*
X221164Y77087D01*
X221831Y77976D01*
X221831Y81865D01*
G54D11*
X704846Y136802D02*
X704846Y144802D01*
X709846Y144802D01*
X699846Y144802D01*
G54D11*
X709846Y146802D02*
X699846Y146802D01*
G54D11*
X704846Y146802D02*
X704846Y154802D01*
G54D10*
X715850Y171462D02*
X693850Y171462D01*
X693850Y121462D01*
X715850Y121462D01*
X715850Y171462D01*
G54D12*
X729678Y142533D02*
X724122Y142533D01*
X723011Y141866D01*
X722456Y140533D01*
X722456Y139199D01*
X723011Y137866D01*
X724122Y137199D01*
X729678Y137199D01*
X730789Y137866D01*
X731344Y139199D01*
X731344Y140533D01*
X730789Y141866D01*
X729678Y142533D01*
G54D12*
X722456Y146310D02*
X721344Y146310D01*
X720233Y145643D01*
X720233Y144976D01*
G54D12*
X728011Y148753D02*
X731344Y152087D01*
X722456Y152087D01*
G54D12*
X727456Y158530D02*
X722456Y158530D01*
G54D12*
X723567Y158530D02*
X722678Y157864D01*
X722456Y156530D01*
X722678Y155197D01*
X723567Y154530D01*
X727456Y154530D01*
G54D11*
X704854Y260323D02*
X704854Y252323D01*
X699854Y252323D01*
X709854Y252323D01*
G54D11*
X699854Y250323D02*
X709854Y250323D01*
G54D11*
X704854Y250323D02*
X704854Y242323D01*
G54D10*
X693850Y225662D02*
X715850Y225662D01*
X715850Y275662D01*
X693850Y275662D01*
X693850Y225662D01*
G54D12*
X730028Y246428D02*
X724472Y246428D01*
X723361Y245761D01*
X722806Y244428D01*
X722806Y243094D01*
X723361Y241761D01*
X724472Y241094D01*
X730028Y241094D01*
X731139Y241761D01*
X731695Y243094D01*
X731695Y244428D01*
X731139Y245761D01*
X730028Y246428D01*
G54D12*
X722806Y250205D02*
X721695Y250205D01*
X720584Y249538D01*
X720584Y248871D01*
G54D12*
X728361Y252648D02*
X731695Y255982D01*
X722806Y255982D01*
G54D12*
X727806Y262425D02*
X722806Y262425D01*
G54D12*
X723917Y262425D02*
X723028Y261759D01*
X722806Y260425D01*
X723028Y259092D01*
X723917Y258425D01*
X727806Y258425D01*
G54D10*
X649400Y276237D02*
X671400Y276237D01*
X671400Y226237D01*
X649400Y226237D01*
X649400Y276237D01*
G54D11*
X660122Y258277D02*
X660122Y255077D01*
X658522Y255077D01*
X658522Y247177D01*
X661722Y247177D01*
X661722Y255077D01*
X660122Y255077D01*
G54D11*
X660122Y247177D02*
X660122Y243977D01*
G54D12*
X681530Y241340D02*
X684863Y244673D01*
X675974Y244673D01*
G54D12*
X683197Y252450D02*
X677641Y252450D01*
X676530Y251783D01*
X675974Y250450D01*
X675974Y249117D01*
X676530Y247783D01*
X677641Y247117D01*
X683197Y247117D01*
X684308Y247783D01*
X684863Y249117D01*
X684863Y250450D01*
X684308Y251783D01*
X683197Y252450D01*
G54D12*
X675974Y254894D02*
X684863Y254894D01*
G54D12*
X679308Y256894D02*
X675974Y258894D01*
G54D12*
X678197Y254894D02*
X680974Y258894D01*
G54D13*
X215262Y355392D02*
X225039Y355392D01*
X225039Y359059D01*
X224428Y360525D01*
X223206Y361259D01*
X217095Y361259D01*
X215873Y360525D01*
X215262Y359059D01*
X215262Y355392D01*
G54D13*
X215873Y369081D02*
X215262Y367908D01*
X215262Y366441D01*
X215873Y364974D01*
X217095Y364681D01*
X219173Y364681D01*
X220395Y365414D01*
X220762Y366881D01*
X220395Y368348D01*
X219539Y369081D01*
X218317Y369081D01*
X218317Y364681D01*
G54D13*
X215262Y372503D02*
X220762Y372503D01*
G54D13*
X219784Y372503D02*
X220762Y373970D01*
X220395Y375436D01*
X219539Y376170D01*
X215262Y376170D01*
G54D13*
X219784Y376170D02*
X220762Y377636D01*
X220395Y379103D01*
X219539Y379836D01*
X215262Y379836D01*
G54D13*
X215873Y387658D02*
X215262Y386485D01*
X215262Y385018D01*
X215873Y383551D01*
X217095Y383258D01*
X219173Y383258D01*
X220395Y383991D01*
X220762Y385458D01*
X220395Y386925D01*
X219539Y387658D01*
X218317Y387658D01*
X218317Y383258D01*
G54D13*
X215262Y391080D02*
X220762Y391080D01*
G54D13*
X219539Y391080D02*
X220395Y391813D01*
X220762Y393280D01*
X220395Y394747D01*
X219539Y395480D01*
X215262Y395480D01*
G54D13*
X225039Y400369D02*
X215873Y400369D01*
X215262Y401102D01*
X215506Y401835D01*
G54D13*
X220762Y398902D02*
X220762Y401835D01*
G54D13*
X215262Y405257D02*
X220762Y405257D01*
G54D13*
X222595Y405257D02*
X222595Y405257D01*
G54D13*
X215873Y413079D02*
X215262Y411906D01*
X215262Y410439D01*
X215873Y408972D01*
X217095Y408679D01*
X219173Y408679D01*
X220395Y409412D01*
X220762Y410879D01*
X220395Y412346D01*
X219539Y413079D01*
X218317Y413079D01*
X218317Y408679D01*
G54D13*
X220762Y416501D02*
X215262Y419434D01*
X220762Y422368D01*
G54D11*
G75*
G01X174603Y401762D02*
G03X174603Y372318I8500J-14722D01*
G01*
G36*
G75*
G01X174603Y401762D02*
G03X174603Y372318I8500J-14722D01*
G01*
G37*
X174603Y401762D01*
G36*
X174602Y401762D02*
X193361Y401762D01*
X193374Y401749D01*
X193374Y396193D01*
X189406Y397781D01*
X192977Y393018D01*
X192977Y386271D01*
X186627Y389843D01*
X192977Y382699D01*
X192977Y378731D01*
X187421Y380715D01*
X187421Y377540D01*
X192580Y373968D01*
X192580Y371587D01*
X175333Y371587D01*
X174602Y372318D01*
X174602Y401762D01*
G37*
G54D11*
X174602Y401762D02*
X193361Y401762D01*
X193374Y401749D01*
X193374Y396193D01*
X189406Y397781D01*
X192977Y393018D01*
X192977Y386271D01*
X186627Y389843D01*
X192977Y382699D01*
X192977Y378731D01*
X187421Y380715D01*
X187421Y377540D01*
X192580Y373968D01*
X192580Y371587D01*
X175333Y371587D01*
X174602Y372318D01*
X174602Y401762D01*
G36*
X185040Y421593D02*
X177896Y422784D01*
X171943Y421593D01*
X173927Y425959D01*
X185040Y421593D01*
G37*
G54D11*
X185040Y421593D02*
X177896Y422784D01*
X171943Y421593D01*
X173927Y425959D01*
X185040Y421593D01*
G54D11*
G75*
G01X185062Y421552D02*
G03X162549Y357623I-5159J-34112D01*
G01*
G36*
X171943Y421593D02*
X166387Y425165D01*
X163212Y421593D01*
X165990Y419212D01*
X171943Y421593D01*
G37*
G54D11*
X171943Y421593D02*
X166387Y425165D01*
X163212Y421593D01*
X165990Y419212D01*
X171943Y421593D01*
G36*
X164006Y418418D02*
X156465Y423578D01*
X153687Y419609D01*
X158052Y414449D01*
X144162Y422387D01*
X142177Y417228D01*
X153290Y410084D01*
X157656Y414846D01*
X164006Y418418D01*
G37*
G54D11*
X164006Y418418D02*
X156465Y423578D01*
X153687Y419609D01*
X158052Y414449D01*
X144162Y422387D01*
X142177Y417228D01*
X153290Y410084D01*
X157656Y414846D01*
X164006Y418418D01*
G36*
X151306Y407703D02*
X147337Y400559D01*
X145749Y393018D01*
X143368Y397384D01*
X145352Y402146D01*
X148130Y402543D01*
X142177Y407703D01*
X144559Y412465D01*
X151306Y407703D01*
G37*
G54D11*
X151306Y407703D02*
X147337Y400559D01*
X145749Y393018D01*
X143368Y397384D01*
X145352Y402146D01*
X148130Y402543D01*
X142177Y407703D01*
X144559Y412465D01*
X151306Y407703D01*
G36*
X144956Y387859D02*
X141384Y390240D01*
X139399Y384684D01*
X145352Y381509D01*
X144956Y387859D01*
G37*
G54D11*
X144956Y387859D02*
X141384Y390240D01*
X139399Y384684D01*
X145352Y381509D01*
X144956Y387859D01*
G36*
X162548Y357623D02*
X158846Y359284D01*
X152893Y364443D01*
X148130Y372381D01*
X146543Y378334D01*
X144162Y372778D01*
X146543Y370793D01*
X144162Y366031D01*
X146543Y365237D01*
X145352Y364046D01*
X145352Y356903D01*
X162548Y357623D01*
G37*
G54D11*
X162548Y357623D02*
X158846Y359284D01*
X152893Y364443D01*
X148130Y372381D01*
X146543Y378334D01*
X144162Y372778D01*
X146543Y370793D01*
X144162Y366031D01*
X146543Y365237D01*
X145352Y364046D01*
X145352Y356903D01*
X162548Y357623D01*
G54D14*
X366834Y485568D02*
X366834Y463345D01*
X355168Y463345D01*
G54D14*
X335723Y463345D02*
X347390Y463345D01*
X347390Y485568D01*
X335723Y485568D01*
G54D14*
X347390Y474456D02*
X335723Y474456D01*
G54D14*
X327944Y463345D02*
X327944Y485568D01*
X319611Y485568D01*
X316278Y484179D01*
X314611Y481401D01*
X314611Y467512D01*
X316278Y464734D01*
X319611Y463345D01*
X327944Y463345D01*
G54D14*
X298722Y463345D02*
X298722Y485568D01*
X290389Y485568D01*
X287056Y484179D01*
X285389Y481401D01*
X285389Y478623D01*
X287056Y475845D01*
X290389Y474456D01*
X298722Y474456D01*
G54D14*
X277612Y463345D02*
X277612Y485568D01*
G54D14*
X277612Y472234D02*
X275945Y475012D01*
X272612Y475845D01*
X269278Y475012D01*
X267612Y472234D01*
X267612Y463345D01*
G54D14*
X249834Y466679D02*
X249834Y472234D01*
X251500Y475012D01*
X254834Y475845D01*
X258167Y475012D01*
X259834Y472234D01*
X259834Y466679D01*
X258167Y463901D01*
X254834Y463345D01*
X251500Y463901D01*
X249834Y466679D01*
G54D14*
X238722Y485568D02*
X238722Y464734D01*
X237056Y463345D01*
X235389Y463901D01*
G54D14*
X242056Y475845D02*
X235389Y475845D01*
G54D14*
X217610Y466679D02*
X217610Y472234D01*
X219277Y475012D01*
X222610Y475845D01*
X225944Y475012D01*
X227610Y472234D01*
X227610Y466679D01*
X225944Y463901D01*
X222610Y463345D01*
X219277Y463901D01*
X217610Y466679D01*
G54D14*
X209832Y463345D02*
X209832Y475845D01*
G54D14*
X209832Y473068D02*
X206499Y475845D01*
X203166Y475845D01*
G54D14*
X185388Y464734D02*
X188054Y463345D01*
X191388Y463345D01*
X194721Y464734D01*
X195388Y467512D01*
X195388Y472234D01*
X193721Y475012D01*
X190388Y475845D01*
X187054Y475012D01*
X185388Y473068D01*
X185388Y470290D01*
X195388Y470290D01*
G54D14*
X177610Y464734D02*
X174276Y463345D01*
X170943Y463345D01*
X167610Y464734D01*
X167610Y467512D01*
X169276Y468901D01*
X175943Y470290D01*
X177610Y471679D01*
X177610Y474456D01*
X174276Y475845D01*
X170943Y475845D01*
X167610Y474456D01*
G54D14*
X159832Y463345D02*
X159832Y475845D01*
G54D14*
X159832Y480012D02*
X159832Y480012D01*
G54D14*
X152054Y464734D02*
X148720Y463345D01*
X145387Y463345D01*
X142054Y464734D01*
X142054Y467512D01*
X143720Y468901D01*
X150387Y470290D01*
X152054Y471679D01*
X152054Y474456D01*
X148720Y475845D01*
X145387Y475845D01*
X142054Y474456D01*
G54D14*
X130942Y485568D02*
X130942Y464734D01*
X129276Y463345D01*
X127609Y463901D01*
G54D14*
X134276Y475845D02*
X127609Y475845D01*
G54D14*
X105053Y463345D02*
X105053Y485568D01*
G54D14*
X111720Y485568D02*
X98386Y485568D01*
G54D14*
X90608Y463345D02*
X90608Y475845D01*
G54D14*
X90608Y480012D02*
X90608Y480012D01*
G54D14*
X82830Y463345D02*
X82830Y475845D01*
G54D14*
X82830Y473623D02*
X79497Y475845D01*
X76164Y475012D01*
X74497Y473068D01*
X74497Y463345D01*
G54D14*
X74497Y473623D02*
X71164Y475845D01*
X67830Y475012D01*
X66164Y473068D01*
X66164Y463345D01*
G54D14*
X48386Y464734D02*
X51052Y463345D01*
X54386Y463345D01*
X57719Y464734D01*
X58386Y467512D01*
X58386Y472234D01*
X56719Y475012D01*
X53386Y475845D01*
X50052Y475012D01*
X48386Y473068D01*
X48386Y470290D01*
X58386Y470290D01*
G54D14*
X40608Y463345D02*
X40608Y475845D01*
G54D14*
X40608Y473068D02*
X37274Y475845D01*
X33941Y475845D01*
M02*
