%FSLAX34Y34*%
%MOMM*%
%LNCOPPER_BOTTOM*%
G71*
G01*
%ADD10C, 5.30*%
%ADD11C, 1.80*%
%ADD12C, 2.80*%
%ADD13C, 4.80*%
%ADD14C, 3.30*%
%ADD15C, 4.80*%
%ADD16C, 1.50*%
%ADD17C, 7.20*%
%ADD18C, 1.40*%
%ADD19C, 1.20*%
%ADD20C, 1.80*%
%ADD21R, 2.40X2.40*%
%ADD22C, 1.12*%
%ADD23C, 1.40*%
%ADD24C, 1.00*%
%ADD25C, 2.37*%
%ADD26C, 1.01*%
%ADD27C, 1.15*%
%ADD28C, 0.93*%
%ADD29C, 1.11*%
%ADD30C, 1.24*%
%ADD31C, 1.32*%
%ADD32C, 1.13*%
%ADD33C, 1.30*%
%ADD34C, 1.07*%
%ADD35C, 2.13*%
%ADD36C, 0.20*%
%ADD37C, 0.98*%
%ADD38C, 0.84*%
%ADD39C, 4.50*%
%ADD40C, 2.00*%
%ADD41C, 4.00*%
%ADD42C, 2.50*%
%ADD43C, 4.00*%
%ADD44C, 0.70*%
%ADD45C, 6.40*%
%ADD46C, 0.60*%
%ADD47C, 0.40*%
%ADD48R, 1.60X1.60*%
%ADD49C, 0.32*%
%ADD50C, 0.60*%
%LPD*%
G36*
X-18653Y631825D02*
X981347Y631825D01*
X981347Y-18175D01*
X-18653Y-18175D01*
X-18653Y631825D01*
G37*
%LPC*%
X97020Y78004D02*
G54D10*
D03*
X28758Y81179D02*
G54D10*
D03*
X723900Y198562D02*
G54D11*
D03*
X698900Y198562D02*
G54D11*
D03*
X673900Y198563D02*
G54D12*
D03*
X648900Y198562D02*
G54D12*
D03*
X623900Y198562D02*
G54D12*
D03*
X498900Y198562D02*
G54D12*
D03*
X473900Y198562D02*
G54D12*
D03*
X473900Y48562D02*
G54D12*
D03*
X498900Y48562D02*
G54D11*
D03*
X523900Y48562D02*
G54D11*
D03*
X548900Y48562D02*
G54D11*
D03*
X573900Y48562D02*
G54D11*
D03*
X598900Y48562D02*
G54D11*
D03*
X623900Y48562D02*
G54D11*
D03*
X648900Y48562D02*
G54D11*
D03*
X673900Y48562D02*
G54D12*
D03*
X698900Y48562D02*
G54D11*
D03*
X723900Y48562D02*
G54D12*
D03*
X748900Y48562D02*
G54D11*
D03*
G36*
X757900Y189562D02*
X739900Y189562D01*
X739900Y207562D01*
X757900Y207562D01*
X757900Y189562D01*
G37*
X62845Y151107D02*
G54D13*
D03*
X62845Y203107D02*
G54D13*
D03*
X598891Y198562D02*
G54D12*
D03*
X573888Y198562D02*
G54D12*
D03*
X548488Y198562D02*
G54D12*
D03*
X524278Y198562D02*
G54D12*
D03*
X424288Y198166D02*
G54D12*
D03*
X399288Y198165D02*
G54D12*
D03*
X449666Y198166D02*
G54D12*
D03*
X400082Y48562D02*
G54D12*
D03*
X425082Y48562D02*
G54D11*
D03*
X450082Y48562D02*
G54D11*
D03*
X927100Y287462D02*
G54D12*
D03*
X862100Y287462D02*
G54D12*
D03*
X862100Y242462D02*
G54D12*
D03*
X927100Y242462D02*
G54D12*
D03*
X927100Y490662D02*
G54D12*
D03*
X862100Y490662D02*
G54D12*
D03*
X862100Y445662D02*
G54D12*
D03*
X927100Y445662D02*
G54D12*
D03*
X68786Y31168D02*
G54D10*
D03*
X891778Y582591D02*
G54D12*
D03*
X866778Y557591D02*
G54D12*
D03*
X916778Y557590D02*
G54D12*
D03*
X166866Y204093D02*
G54D14*
D03*
X141466Y178693D02*
G54D14*
D03*
X166866Y153293D02*
G54D14*
D03*
X900900Y192212D02*
G54D12*
D03*
X850900Y192212D02*
G54D12*
D03*
X875900Y192212D02*
G54D12*
D03*
X900900Y42212D02*
G54D12*
D03*
X850900Y42212D02*
G54D12*
D03*
X938400Y117212D02*
G54D15*
D03*
X813400Y117212D02*
G54D15*
D03*
X927100Y389062D02*
G54D12*
D03*
X862100Y389062D02*
G54D12*
D03*
X862100Y344062D02*
G54D12*
D03*
X927100Y344062D02*
G54D12*
D03*
X165675Y85428D02*
G54D14*
D03*
X140275Y60028D02*
G54D14*
D03*
X165675Y34628D02*
G54D14*
D03*
X101049Y578179D02*
G54D12*
D03*
X126449Y578180D02*
G54D12*
D03*
X151849Y578180D02*
G54D12*
D03*
X178440Y578180D02*
G54D12*
D03*
X203840Y578179D02*
G54D12*
D03*
X229240Y578180D02*
G54D12*
D03*
X254243Y578180D02*
G54D11*
D03*
X279643Y578180D02*
G54D11*
D03*
X305043Y578180D02*
G54D11*
D03*
X330443Y578180D02*
G54D11*
D03*
X357034Y578180D02*
G54D12*
D03*
X382434Y578180D02*
G54D12*
D03*
X407834Y578180D02*
G54D12*
D03*
X433234Y578180D02*
G54D12*
D03*
X458634Y578179D02*
G54D12*
D03*
X485224Y578179D02*
G54D12*
D03*
X165100Y522412D02*
G54D16*
D03*
X457200Y522809D02*
G54D16*
D03*
X796131Y265510D02*
G54D17*
D03*
X820131Y265510D02*
G54D18*
D03*
X813102Y248539D02*
G54D18*
D03*
X796131Y241510D02*
G54D18*
D03*
X779161Y248539D02*
G54D18*
D03*
X772131Y265510D02*
G54D18*
D03*
X779161Y282480D02*
G54D18*
D03*
X796131Y289510D02*
G54D18*
D03*
X813102Y282480D02*
G54D18*
D03*
X795338Y575469D02*
G54D17*
D03*
X819338Y575469D02*
G54D18*
D03*
X812308Y558498D02*
G54D18*
D03*
X795338Y551469D02*
G54D18*
D03*
X778367Y558498D02*
G54D18*
D03*
X771338Y575469D02*
G54D18*
D03*
X778367Y592440D02*
G54D18*
D03*
X795338Y599469D02*
G54D18*
D03*
X812308Y592440D02*
G54D18*
D03*
X44450Y575469D02*
G54D17*
D03*
X68450Y575469D02*
G54D18*
D03*
X61421Y558498D02*
G54D18*
D03*
X44450Y551469D02*
G54D18*
D03*
X27480Y558498D02*
G54D18*
D03*
X20450Y575469D02*
G54D18*
D03*
X27480Y592440D02*
G54D18*
D03*
X44450Y599469D02*
G54D18*
D03*
X61421Y592440D02*
G54D18*
D03*
X44053Y267097D02*
G54D17*
D03*
X68053Y267097D02*
G54D18*
D03*
X61024Y250127D02*
G54D18*
D03*
X44053Y243097D02*
G54D18*
D03*
X27083Y250127D02*
G54D18*
D03*
X20053Y267097D02*
G54D18*
D03*
X27083Y284068D02*
G54D18*
D03*
X44053Y291097D02*
G54D18*
D03*
X61024Y284068D02*
G54D18*
D03*
G54D19*
X357034Y578180D02*
X356637Y318176D01*
X450850Y223962D01*
X450850Y199350D01*
X449666Y198166D01*
G54D19*
X382434Y578180D02*
X382830Y311032D01*
X476250Y217612D01*
X476250Y200912D01*
X473900Y198562D01*
G54D19*
X407834Y578180D02*
X406246Y306666D01*
X495300Y217612D01*
X495300Y202162D01*
X498900Y198562D01*
G54D19*
X433234Y578180D02*
X433234Y298729D01*
X520700Y211262D01*
X520700Y202140D01*
X524278Y198562D01*
G54D19*
X229240Y578180D02*
X229240Y540823D01*
X241300Y528762D01*
X311150Y528762D01*
X323850Y516062D01*
X323850Y331912D01*
X425450Y230312D01*
X425450Y199328D01*
X424288Y198166D01*
G54D19*
X178440Y578180D02*
X178440Y546776D01*
X215900Y509712D01*
X285750Y509712D01*
X298450Y497012D01*
X298450Y338262D01*
X400050Y236662D01*
X400050Y198928D01*
X399288Y198165D01*
G54D19*
X891778Y582591D02*
X860278Y582591D01*
X800100Y522412D01*
X457200Y522809D01*
G54D19*
X151849Y578180D02*
X151849Y536457D01*
X165100Y522412D01*
G54D19*
X862100Y490662D02*
X584200Y490662D01*
X546100Y452562D01*
X546100Y200950D01*
X548488Y198562D01*
G54D19*
X862100Y389062D02*
X603250Y389062D01*
X571500Y357312D01*
X571500Y200950D01*
X573888Y198562D01*
G54D20*
X165675Y85824D02*
X112382Y85824D01*
X97020Y70463D01*
G54D20*
X62845Y147932D02*
X62845Y116544D01*
X97020Y82369D01*
G54D20*
X141466Y183059D02*
X138932Y183059D01*
X114300Y207691D01*
X63024Y207691D01*
X62845Y207870D01*
G54D19*
X862100Y287462D02*
X862100Y288963D01*
X825500Y325562D01*
X609600Y325562D01*
X596900Y312862D01*
X596900Y200553D01*
X598891Y198562D01*
X243706Y203596D02*
G54D21*
D03*
X215706Y203596D02*
G54D21*
D03*
X138866Y254893D02*
G54D21*
D03*
X166866Y254893D02*
G54D21*
D03*
G54D19*
X166866Y254893D02*
X166866Y204093D01*
G54D19*
X166866Y203300D02*
X215210Y203300D01*
X215706Y202803D01*
G54D19*
X243706Y202803D02*
X304529Y202803D01*
X400050Y107281D01*
X400050Y52562D01*
X400082Y48562D01*
X792916Y459681D02*
G54D21*
D03*
X820916Y459681D02*
G54D21*
D03*
X792916Y415231D02*
G54D21*
D03*
X820916Y415231D02*
G54D21*
D03*
X792916Y358081D02*
G54D21*
D03*
X820916Y358081D02*
G54D21*
D03*
G54D19*
X927100Y490662D02*
X917100Y490662D01*
X894600Y468162D01*
X835748Y468162D01*
X820916Y453331D01*
G54D19*
X820916Y415231D02*
X900932Y415231D01*
X927100Y389062D01*
G54D19*
X820916Y358081D02*
X820916Y349197D01*
X857250Y312862D01*
X901700Y312862D01*
X927100Y287462D01*
G54D22*
X61434Y519587D02*
X57878Y509587D01*
X54322Y519587D01*
G54D22*
X40989Y509587D02*
X48100Y509587D01*
X48100Y510698D01*
X47212Y512921D01*
X41878Y519587D01*
X40989Y521810D01*
X40989Y524032D01*
X41878Y526254D01*
X43656Y527365D01*
X45434Y527365D01*
X47212Y526254D01*
X48100Y524032D01*
G54D22*
X34768Y509587D02*
X34768Y509587D01*
G54D22*
X28546Y520698D02*
X24101Y527365D01*
X24101Y509587D01*
X660400Y160462D02*
G54D21*
D03*
X660400Y132462D02*
G54D21*
D03*
X215900Y104900D02*
G54D21*
D03*
X243900Y104900D02*
G54D21*
D03*
X215900Y60450D02*
G54D21*
D03*
X243900Y60450D02*
G54D21*
D03*
G54D20*
X215900Y104900D02*
X185148Y104900D01*
X165675Y85428D01*
G54D20*
X215900Y60450D02*
X191498Y60450D01*
X165675Y34628D01*
X704850Y160462D02*
G54D21*
D03*
X704850Y132462D02*
G54D21*
D03*
X704850Y236662D02*
G54D21*
D03*
X704850Y264662D02*
G54D21*
D03*
X660400Y265237D02*
G54D21*
D03*
X660400Y237237D02*
G54D21*
D03*
X673900Y86638D02*
G54D16*
D03*
G54D19*
X900900Y42212D02*
X900900Y54503D01*
X879872Y75531D01*
X479822Y75531D01*
X473472Y69181D01*
X473472Y48990D01*
X473900Y48562D01*
G54D19*
X850900Y192212D02*
X800100Y192212D01*
X762000Y230312D01*
X635000Y230312D01*
X622300Y217612D01*
X622300Y200163D01*
X623900Y198562D01*
G54D19*
X900900Y198562D02*
X900900Y181062D01*
X885900Y166062D01*
X661150Y166062D01*
X647700Y179512D01*
X647700Y203712D01*
X648900Y204912D01*
G54D23*
X660400Y135637D02*
X660400Y100137D01*
X673100Y87437D01*
X660803Y299363D02*
G54D16*
D03*
G54D23*
X660400Y265237D02*
X660400Y298563D01*
X661200Y299363D01*
G54D24*
X11510Y617516D02*
X953675Y617516D01*
G54D24*
G75*
G01X11510Y617516D02*
G03X0Y606006I0J-11510D01*
G01*
G54D24*
G75*
G01X965185Y606006D02*
G03X953675Y617516I-11510J0D01*
G01*
G54D24*
X0Y606006D02*
X0Y13090D01*
G54D24*
G75*
G01X953675Y1580D02*
G03X965185Y13090I0J11510D01*
G01*
G54D24*
X965185Y606006D02*
X965185Y13090D01*
G54D24*
G75*
G01X0Y13090D02*
G03X11510Y1580I11510J0D01*
G01*
G54D24*
X953675Y1580D02*
X11510Y1580D01*
%LPD*%
G54D25*
G36*
X16908Y81179D02*
X16908Y108179D01*
X40608Y108179D01*
X40608Y81179D01*
X16908Y81179D01*
G37*
G36*
X28758Y93029D02*
X55758Y93029D01*
X55758Y69329D01*
X28758Y69329D01*
X28758Y93029D01*
G37*
G36*
X40608Y81179D02*
X40608Y54179D01*
X16908Y54179D01*
X16908Y81179D01*
X40608Y81179D01*
G37*
G54D26*
G36*
X678967Y198563D02*
X678967Y184063D01*
X668833Y184063D01*
X668833Y198563D01*
X678967Y198563D01*
G37*
G36*
X668833Y198563D02*
X668833Y213063D01*
X678967Y213063D01*
X678967Y198563D01*
X668833Y198563D01*
G37*
G36*
X673900Y203630D02*
X688400Y203630D01*
X688400Y193496D01*
X673900Y193496D01*
X673900Y203630D01*
G37*
G54D27*
G36*
X729667Y48562D02*
X729667Y34062D01*
X718133Y34062D01*
X718133Y48562D01*
X729667Y48562D01*
G37*
G36*
X723900Y42795D02*
X709400Y42795D01*
X709400Y54329D01*
X723900Y54329D01*
X723900Y42795D01*
G37*
G36*
X718133Y48562D02*
X718133Y63062D01*
X729667Y63062D01*
X729667Y48562D01*
X718133Y48562D01*
G37*
G36*
X723900Y54329D02*
X738400Y54329D01*
X738400Y42795D01*
X723900Y42795D01*
X723900Y54329D01*
G37*
G54D28*
G36*
X921445Y557590D02*
X921445Y543090D01*
X912111Y543090D01*
X912111Y557590D01*
X921445Y557590D01*
G37*
G36*
X916778Y552924D02*
X902278Y552924D01*
X902278Y562257D01*
X916778Y562257D01*
X916778Y552924D01*
G37*
G36*
X912111Y557590D02*
X912111Y572090D01*
X921445Y572090D01*
X921445Y557590D01*
X912111Y557590D01*
G37*
G36*
X916778Y562257D02*
X931278Y562257D01*
X931278Y552924D01*
X916778Y552924D01*
X916778Y562257D01*
G37*
G54D29*
G36*
X166866Y158835D02*
X183866Y158835D01*
X183866Y147751D01*
X166866Y147751D01*
X166866Y158835D01*
G37*
G36*
X172408Y153293D02*
X172408Y136293D01*
X161324Y136293D01*
X161324Y153293D01*
X172408Y153293D01*
G37*
G36*
X166866Y147751D02*
X149866Y147751D01*
X149866Y158835D01*
X166866Y158835D01*
X166866Y147751D01*
G37*
G36*
X161324Y153293D02*
X161324Y170293D01*
X172408Y170293D01*
X172408Y153293D01*
X161324Y153293D01*
G37*
G54D30*
G36*
X882100Y192212D02*
X882100Y177712D01*
X869700Y177712D01*
X869700Y192212D01*
X882100Y192212D01*
G37*
G36*
X869700Y192212D02*
X869700Y206712D01*
X882100Y206712D01*
X882100Y192212D01*
X869700Y192212D01*
G37*
G54D31*
G36*
X857500Y42212D02*
X857500Y27712D01*
X844300Y27712D01*
X844300Y42212D01*
X857500Y42212D01*
G37*
G36*
X850900Y35612D02*
X836400Y35612D01*
X836400Y48812D01*
X850900Y48812D01*
X850900Y35612D01*
G37*
G36*
X844300Y42212D02*
X844300Y56712D01*
X857500Y56712D01*
X857500Y42212D01*
X844300Y42212D01*
G37*
G36*
X850900Y48812D02*
X865400Y48812D01*
X865400Y35612D01*
X850900Y35612D01*
X850900Y48812D01*
G37*
G54D32*
G36*
X140275Y65695D02*
X157275Y65695D01*
X157275Y54362D01*
X140275Y54362D01*
X140275Y65695D01*
G37*
G36*
X145942Y60028D02*
X145942Y43028D01*
X134608Y43028D01*
X134608Y60028D01*
X145942Y60028D01*
G37*
G36*
X140275Y54362D02*
X123275Y54362D01*
X123275Y65695D01*
X140275Y65695D01*
X140275Y54362D01*
G37*
G54D33*
G36*
X94549Y578179D02*
X94549Y592679D01*
X107549Y592679D01*
X107549Y578179D01*
X94549Y578179D01*
G37*
G36*
X107549Y578179D02*
X107549Y563679D01*
X94549Y563679D01*
X94549Y578179D01*
X107549Y578179D01*
G37*
G36*
X101049Y571679D02*
X86549Y571679D01*
X86549Y584679D01*
X101049Y584679D01*
X101049Y571679D01*
G37*
G54D27*
G36*
X198073Y578179D02*
X198073Y592679D01*
X209607Y592679D01*
X209607Y578179D01*
X198073Y578179D01*
G37*
G36*
X209607Y578179D02*
X209607Y563679D01*
X198073Y563679D01*
X198073Y578179D01*
X209607Y578179D01*
G37*
G54D34*
G36*
X479857Y578179D02*
X479857Y592679D01*
X490591Y592679D01*
X490591Y578179D01*
X479857Y578179D01*
G37*
G36*
X485224Y583546D02*
X499724Y583546D01*
X499724Y572813D01*
X485224Y572813D01*
X485224Y583546D01*
G37*
G36*
X490591Y578179D02*
X490591Y563679D01*
X479857Y563679D01*
X479857Y578179D01*
X490591Y578179D01*
G37*
G54D35*
G36*
X785465Y265510D02*
X785465Y302010D01*
X806798Y302010D01*
X806798Y265510D01*
X785465Y265510D01*
G37*
G36*
X796131Y276176D02*
X832631Y276176D01*
X832631Y254843D01*
X796131Y254843D01*
X796131Y276176D01*
G37*
G36*
X806798Y265510D02*
X806798Y229010D01*
X785465Y229010D01*
X785465Y265510D01*
X806798Y265510D01*
G37*
G36*
X796131Y254843D02*
X759631Y254843D01*
X759631Y276176D01*
X796131Y276176D01*
X796131Y254843D01*
G37*
G54D36*
G36*
X819131Y265510D02*
X819131Y273010D01*
X821131Y273010D01*
X821131Y265510D01*
X819131Y265510D01*
G37*
G36*
X820131Y266510D02*
X827631Y266510D01*
X827631Y264510D01*
X820131Y264510D01*
X820131Y266510D01*
G37*
G36*
X821131Y265510D02*
X821131Y258010D01*
X819131Y258010D01*
X819131Y265510D01*
X821131Y265510D01*
G37*
G36*
X820131Y264510D02*
X812631Y264510D01*
X812631Y266510D01*
X820131Y266510D01*
X820131Y264510D01*
G37*
G54D36*
G36*
X812102Y248539D02*
X812102Y256039D01*
X814102Y256039D01*
X814102Y248539D01*
X812102Y248539D01*
G37*
G36*
X813102Y249539D02*
X820602Y249539D01*
X820602Y247539D01*
X813102Y247539D01*
X813102Y249539D01*
G37*
G36*
X814102Y248539D02*
X814102Y241039D01*
X812102Y241039D01*
X812102Y248539D01*
X814102Y248539D01*
G37*
G36*
X813102Y247539D02*
X805602Y247539D01*
X805602Y249539D01*
X813102Y249539D01*
X813102Y247539D01*
G37*
G54D36*
G36*
X795131Y241510D02*
X795131Y249010D01*
X797131Y249010D01*
X797131Y241510D01*
X795131Y241510D01*
G37*
G36*
X796131Y242510D02*
X803631Y242510D01*
X803631Y240510D01*
X796131Y240510D01*
X796131Y242510D01*
G37*
G36*
X797131Y241510D02*
X797131Y234010D01*
X795131Y234010D01*
X795131Y241510D01*
X797131Y241510D01*
G37*
G36*
X796131Y240510D02*
X788631Y240510D01*
X788631Y242510D01*
X796131Y242510D01*
X796131Y240510D01*
G37*
G54D36*
G36*
X778161Y248539D02*
X778161Y256039D01*
X780161Y256039D01*
X780161Y248539D01*
X778161Y248539D01*
G37*
G36*
X779161Y249539D02*
X786661Y249539D01*
X786661Y247539D01*
X779161Y247539D01*
X779161Y249539D01*
G37*
G36*
X780161Y248539D02*
X780161Y241039D01*
X778161Y241039D01*
X778161Y248539D01*
X780161Y248539D01*
G37*
G36*
X779161Y247539D02*
X771661Y247539D01*
X771661Y249539D01*
X779161Y249539D01*
X779161Y247539D01*
G37*
G54D36*
G36*
X771131Y265510D02*
X771131Y273010D01*
X773131Y273010D01*
X773131Y265510D01*
X771131Y265510D01*
G37*
G36*
X772131Y266510D02*
X779631Y266510D01*
X779631Y264510D01*
X772131Y264510D01*
X772131Y266510D01*
G37*
G36*
X773131Y265510D02*
X773131Y258010D01*
X771131Y258010D01*
X771131Y265510D01*
X773131Y265510D01*
G37*
G36*
X772131Y264510D02*
X764631Y264510D01*
X764631Y266510D01*
X772131Y266510D01*
X772131Y264510D01*
G37*
G54D36*
G36*
X778161Y282480D02*
X778161Y289980D01*
X780161Y289980D01*
X780161Y282480D01*
X778161Y282480D01*
G37*
G36*
X779161Y283480D02*
X786661Y283480D01*
X786661Y281480D01*
X779161Y281480D01*
X779161Y283480D01*
G37*
G36*
X780161Y282480D02*
X780161Y274980D01*
X778161Y274980D01*
X778161Y282480D01*
X780161Y282480D01*
G37*
G36*
X779161Y281480D02*
X771661Y281480D01*
X771661Y283480D01*
X779161Y283480D01*
X779161Y281480D01*
G37*
G54D36*
G36*
X795131Y289510D02*
X795131Y297010D01*
X797131Y297010D01*
X797131Y289510D01*
X795131Y289510D01*
G37*
G36*
X796131Y290510D02*
X803631Y290510D01*
X803631Y288510D01*
X796131Y288510D01*
X796131Y290510D01*
G37*
G36*
X797131Y289510D02*
X797131Y282010D01*
X795131Y282010D01*
X795131Y289510D01*
X797131Y289510D01*
G37*
G36*
X796131Y288510D02*
X788631Y288510D01*
X788631Y290510D01*
X796131Y290510D01*
X796131Y288510D01*
G37*
G54D36*
G36*
X812102Y282480D02*
X812102Y289980D01*
X814102Y289980D01*
X814102Y282480D01*
X812102Y282480D01*
G37*
G36*
X813102Y283480D02*
X820602Y283480D01*
X820602Y281480D01*
X813102Y281480D01*
X813102Y283480D01*
G37*
G36*
X814102Y282480D02*
X814102Y274980D01*
X812102Y274980D01*
X812102Y282480D01*
X814102Y282480D01*
G37*
G36*
X813102Y281480D02*
X805602Y281480D01*
X805602Y283480D01*
X813102Y283480D01*
X813102Y281480D01*
G37*
G54D35*
G36*
X784671Y575469D02*
X784671Y611969D01*
X806004Y611969D01*
X806004Y575469D01*
X784671Y575469D01*
G37*
G36*
X795338Y586136D02*
X831838Y586136D01*
X831838Y564802D01*
X795338Y564802D01*
X795338Y586136D01*
G37*
G36*
X806004Y575469D02*
X806004Y538969D01*
X784671Y538969D01*
X784671Y575469D01*
X806004Y575469D01*
G37*
G36*
X795338Y564802D02*
X758838Y564802D01*
X758838Y586136D01*
X795338Y586136D01*
X795338Y564802D01*
G37*
G54D36*
G36*
X818338Y575469D02*
X818338Y582969D01*
X820338Y582969D01*
X820338Y575469D01*
X818338Y575469D01*
G37*
G36*
X819338Y576469D02*
X826838Y576469D01*
X826838Y574469D01*
X819338Y574469D01*
X819338Y576469D01*
G37*
G36*
X820338Y575469D02*
X820338Y567969D01*
X818338Y567969D01*
X818338Y575469D01*
X820338Y575469D01*
G37*
G36*
X819338Y574469D02*
X811838Y574469D01*
X811838Y576469D01*
X819338Y576469D01*
X819338Y574469D01*
G37*
G54D36*
G36*
X811308Y558498D02*
X811308Y565998D01*
X813308Y565998D01*
X813308Y558498D01*
X811308Y558498D01*
G37*
G36*
X812308Y559498D02*
X819808Y559498D01*
X819808Y557498D01*
X812308Y557498D01*
X812308Y559498D01*
G37*
G36*
X813308Y558498D02*
X813308Y550998D01*
X811308Y550998D01*
X811308Y558498D01*
X813308Y558498D01*
G37*
G36*
X812308Y557498D02*
X804808Y557498D01*
X804808Y559498D01*
X812308Y559498D01*
X812308Y557498D01*
G37*
G54D36*
G36*
X794338Y551469D02*
X794338Y558969D01*
X796338Y558969D01*
X796338Y551469D01*
X794338Y551469D01*
G37*
G36*
X795338Y552469D02*
X802838Y552469D01*
X802838Y550469D01*
X795338Y550469D01*
X795338Y552469D01*
G37*
G36*
X796338Y551469D02*
X796338Y543969D01*
X794338Y543969D01*
X794338Y551469D01*
X796338Y551469D01*
G37*
G36*
X795338Y550469D02*
X787838Y550469D01*
X787838Y552469D01*
X795338Y552469D01*
X795338Y550469D01*
G37*
G54D36*
G36*
X777367Y558498D02*
X777367Y565998D01*
X779367Y565998D01*
X779367Y558498D01*
X777367Y558498D01*
G37*
G36*
X778367Y559498D02*
X785867Y559498D01*
X785867Y557498D01*
X778367Y557498D01*
X778367Y559498D01*
G37*
G36*
X779367Y558498D02*
X779367Y550998D01*
X777367Y550998D01*
X777367Y558498D01*
X779367Y558498D01*
G37*
G36*
X778367Y557498D02*
X770867Y557498D01*
X770867Y559498D01*
X778367Y559498D01*
X778367Y557498D01*
G37*
G54D36*
G36*
X770338Y575469D02*
X770338Y582969D01*
X772338Y582969D01*
X772338Y575469D01*
X770338Y575469D01*
G37*
G36*
X771338Y576469D02*
X778838Y576469D01*
X778838Y574469D01*
X771338Y574469D01*
X771338Y576469D01*
G37*
G36*
X772338Y575469D02*
X772338Y567969D01*
X770338Y567969D01*
X770338Y575469D01*
X772338Y575469D01*
G37*
G36*
X771338Y574469D02*
X763838Y574469D01*
X763838Y576469D01*
X771338Y576469D01*
X771338Y574469D01*
G37*
G54D36*
G36*
X777367Y592440D02*
X777367Y599940D01*
X779367Y599940D01*
X779367Y592440D01*
X777367Y592440D01*
G37*
G36*
X778367Y593440D02*
X785867Y593440D01*
X785867Y591440D01*
X778367Y591440D01*
X778367Y593440D01*
G37*
G36*
X779367Y592440D02*
X779367Y584940D01*
X777367Y584940D01*
X777367Y592440D01*
X779367Y592440D01*
G37*
G36*
X778367Y591440D02*
X770867Y591440D01*
X770867Y593440D01*
X778367Y593440D01*
X778367Y591440D01*
G37*
G54D36*
G36*
X794338Y599469D02*
X794338Y606969D01*
X796338Y606969D01*
X796338Y599469D01*
X794338Y599469D01*
G37*
G36*
X795338Y600469D02*
X802838Y600469D01*
X802838Y598469D01*
X795338Y598469D01*
X795338Y600469D01*
G37*
G36*
X796338Y599469D02*
X796338Y591969D01*
X794338Y591969D01*
X794338Y599469D01*
X796338Y599469D01*
G37*
G36*
X795338Y598469D02*
X787838Y598469D01*
X787838Y600469D01*
X795338Y600469D01*
X795338Y598469D01*
G37*
G54D36*
G36*
X811308Y592440D02*
X811308Y599940D01*
X813308Y599940D01*
X813308Y592440D01*
X811308Y592440D01*
G37*
G36*
X812308Y593440D02*
X819808Y593440D01*
X819808Y591440D01*
X812308Y591440D01*
X812308Y593440D01*
G37*
G36*
X813308Y592440D02*
X813308Y584940D01*
X811308Y584940D01*
X811308Y592440D01*
X813308Y592440D01*
G37*
G36*
X812308Y591440D02*
X804808Y591440D01*
X804808Y593440D01*
X812308Y593440D01*
X812308Y591440D01*
G37*
G54D35*
G36*
X33783Y575469D02*
X33783Y611969D01*
X55117Y611969D01*
X55117Y575469D01*
X33783Y575469D01*
G37*
G36*
X44450Y586136D02*
X80950Y586136D01*
X80950Y564802D01*
X44450Y564802D01*
X44450Y586136D01*
G37*
G36*
X55117Y575469D02*
X55117Y538969D01*
X33783Y538969D01*
X33783Y575469D01*
X55117Y575469D01*
G37*
G36*
X44450Y564802D02*
X7950Y564802D01*
X7950Y586136D01*
X44450Y586136D01*
X44450Y564802D01*
G37*
G54D36*
G36*
X67450Y575469D02*
X67450Y582969D01*
X69450Y582969D01*
X69450Y575469D01*
X67450Y575469D01*
G37*
G36*
X68450Y576469D02*
X75950Y576469D01*
X75950Y574469D01*
X68450Y574469D01*
X68450Y576469D01*
G37*
G36*
X69450Y575469D02*
X69450Y567969D01*
X67450Y567969D01*
X67450Y575469D01*
X69450Y575469D01*
G37*
G36*
X68450Y574469D02*
X60950Y574469D01*
X60950Y576469D01*
X68450Y576469D01*
X68450Y574469D01*
G37*
G54D36*
G36*
X60421Y558498D02*
X60421Y565998D01*
X62421Y565998D01*
X62421Y558498D01*
X60421Y558498D01*
G37*
G36*
X61421Y559498D02*
X68921Y559498D01*
X68921Y557498D01*
X61421Y557498D01*
X61421Y559498D01*
G37*
G36*
X62421Y558498D02*
X62421Y550998D01*
X60421Y550998D01*
X60421Y558498D01*
X62421Y558498D01*
G37*
G36*
X61421Y557498D02*
X53921Y557498D01*
X53921Y559498D01*
X61421Y559498D01*
X61421Y557498D01*
G37*
G54D36*
G36*
X43450Y551469D02*
X43450Y558969D01*
X45450Y558969D01*
X45450Y551469D01*
X43450Y551469D01*
G37*
G36*
X44450Y552469D02*
X51950Y552469D01*
X51950Y550469D01*
X44450Y550469D01*
X44450Y552469D01*
G37*
G36*
X45450Y551469D02*
X45450Y543969D01*
X43450Y543969D01*
X43450Y551469D01*
X45450Y551469D01*
G37*
G36*
X44450Y550469D02*
X36950Y550469D01*
X36950Y552469D01*
X44450Y552469D01*
X44450Y550469D01*
G37*
G54D36*
G36*
X26480Y558498D02*
X26480Y565998D01*
X28480Y565998D01*
X28480Y558498D01*
X26480Y558498D01*
G37*
G36*
X27480Y559498D02*
X34980Y559498D01*
X34980Y557498D01*
X27480Y557498D01*
X27480Y559498D01*
G37*
G36*
X28480Y558498D02*
X28480Y550998D01*
X26480Y550998D01*
X26480Y558498D01*
X28480Y558498D01*
G37*
G36*
X27480Y557498D02*
X19980Y557498D01*
X19980Y559498D01*
X27480Y559498D01*
X27480Y557498D01*
G37*
G54D36*
G36*
X19450Y575469D02*
X19450Y582969D01*
X21450Y582969D01*
X21450Y575469D01*
X19450Y575469D01*
G37*
G36*
X20450Y576469D02*
X27950Y576469D01*
X27950Y574469D01*
X20450Y574469D01*
X20450Y576469D01*
G37*
G36*
X21450Y575469D02*
X21450Y567969D01*
X19450Y567969D01*
X19450Y575469D01*
X21450Y575469D01*
G37*
G36*
X20450Y574469D02*
X12950Y574469D01*
X12950Y576469D01*
X20450Y576469D01*
X20450Y574469D01*
G37*
G54D36*
G36*
X26480Y592440D02*
X26480Y599940D01*
X28480Y599940D01*
X28480Y592440D01*
X26480Y592440D01*
G37*
G36*
X27480Y593440D02*
X34980Y593440D01*
X34980Y591440D01*
X27480Y591440D01*
X27480Y593440D01*
G37*
G36*
X28480Y592440D02*
X28480Y584940D01*
X26480Y584940D01*
X26480Y592440D01*
X28480Y592440D01*
G37*
G36*
X27480Y591440D02*
X19980Y591440D01*
X19980Y593440D01*
X27480Y593440D01*
X27480Y591440D01*
G37*
G54D36*
G36*
X43450Y599469D02*
X43450Y606969D01*
X45450Y606969D01*
X45450Y599469D01*
X43450Y599469D01*
G37*
G36*
X44450Y600469D02*
X51950Y600469D01*
X51950Y598469D01*
X44450Y598469D01*
X44450Y600469D01*
G37*
G36*
X45450Y599469D02*
X45450Y591969D01*
X43450Y591969D01*
X43450Y599469D01*
X45450Y599469D01*
G37*
G36*
X44450Y598469D02*
X36950Y598469D01*
X36950Y600469D01*
X44450Y600469D01*
X44450Y598469D01*
G37*
G54D36*
G36*
X60421Y592440D02*
X60421Y599940D01*
X62421Y599940D01*
X62421Y592440D01*
X60421Y592440D01*
G37*
G36*
X61421Y593440D02*
X68921Y593440D01*
X68921Y591440D01*
X61421Y591440D01*
X61421Y593440D01*
G37*
G36*
X62421Y592440D02*
X62421Y584940D01*
X60421Y584940D01*
X60421Y592440D01*
X62421Y592440D01*
G37*
G36*
X61421Y591440D02*
X53921Y591440D01*
X53921Y593440D01*
X61421Y593440D01*
X61421Y591440D01*
G37*
G54D35*
G36*
X33386Y267097D02*
X33386Y303597D01*
X54720Y303597D01*
X54720Y267097D01*
X33386Y267097D01*
G37*
G36*
X44053Y277764D02*
X80553Y277764D01*
X80553Y256431D01*
X44053Y256431D01*
X44053Y277764D01*
G37*
G36*
X54720Y267097D02*
X54720Y230597D01*
X33386Y230597D01*
X33386Y267097D01*
X54720Y267097D01*
G37*
G36*
X44053Y256431D02*
X7553Y256431D01*
X7553Y277764D01*
X44053Y277764D01*
X44053Y256431D01*
G37*
G54D36*
G36*
X67053Y267097D02*
X67053Y274597D01*
X69053Y274597D01*
X69053Y267097D01*
X67053Y267097D01*
G37*
G36*
X68053Y268097D02*
X75553Y268097D01*
X75553Y266097D01*
X68053Y266097D01*
X68053Y268097D01*
G37*
G36*
X69053Y267097D02*
X69053Y259597D01*
X67053Y259597D01*
X67053Y267097D01*
X69053Y267097D01*
G37*
G36*
X68053Y266097D02*
X60553Y266097D01*
X60553Y268097D01*
X68053Y268097D01*
X68053Y266097D01*
G37*
G54D36*
G36*
X60024Y250127D02*
X60024Y257627D01*
X62024Y257627D01*
X62024Y250127D01*
X60024Y250127D01*
G37*
G36*
X61024Y251127D02*
X68524Y251127D01*
X68524Y249127D01*
X61024Y249127D01*
X61024Y251127D01*
G37*
G36*
X62024Y250127D02*
X62024Y242627D01*
X60024Y242627D01*
X60024Y250127D01*
X62024Y250127D01*
G37*
G36*
X61024Y249127D02*
X53524Y249127D01*
X53524Y251127D01*
X61024Y251127D01*
X61024Y249127D01*
G37*
G54D36*
G36*
X43053Y243097D02*
X43053Y250597D01*
X45053Y250597D01*
X45053Y243097D01*
X43053Y243097D01*
G37*
G36*
X44053Y244097D02*
X51553Y244097D01*
X51553Y242097D01*
X44053Y242097D01*
X44053Y244097D01*
G37*
G36*
X45053Y243097D02*
X45053Y235597D01*
X43053Y235597D01*
X43053Y243097D01*
X45053Y243097D01*
G37*
G36*
X44053Y242097D02*
X36553Y242097D01*
X36553Y244097D01*
X44053Y244097D01*
X44053Y242097D01*
G37*
G54D36*
G36*
X26083Y250127D02*
X26083Y257627D01*
X28083Y257627D01*
X28083Y250127D01*
X26083Y250127D01*
G37*
G36*
X27083Y251127D02*
X34583Y251127D01*
X34583Y249127D01*
X27083Y249127D01*
X27083Y251127D01*
G37*
G36*
X28083Y250127D02*
X28083Y242627D01*
X26083Y242627D01*
X26083Y250127D01*
X28083Y250127D01*
G37*
G36*
X27083Y249127D02*
X19583Y249127D01*
X19583Y251127D01*
X27083Y251127D01*
X27083Y249127D01*
G37*
G54D36*
G36*
X19053Y267097D02*
X19053Y274597D01*
X21053Y274597D01*
X21053Y267097D01*
X19053Y267097D01*
G37*
G36*
X20053Y268097D02*
X27553Y268097D01*
X27553Y266097D01*
X20053Y266097D01*
X20053Y268097D01*
G37*
G36*
X21053Y267097D02*
X21053Y259597D01*
X19053Y259597D01*
X19053Y267097D01*
X21053Y267097D01*
G37*
G36*
X20053Y266097D02*
X12553Y266097D01*
X12553Y268097D01*
X20053Y268097D01*
X20053Y266097D01*
G37*
G54D36*
G36*
X26083Y284068D02*
X26083Y291568D01*
X28083Y291568D01*
X28083Y284068D01*
X26083Y284068D01*
G37*
G36*
X27083Y285068D02*
X34583Y285068D01*
X34583Y283068D01*
X27083Y283068D01*
X27083Y285068D01*
G37*
G36*
X28083Y284068D02*
X28083Y276568D01*
X26083Y276568D01*
X26083Y284068D01*
X28083Y284068D01*
G37*
G36*
X27083Y283068D02*
X19583Y283068D01*
X19583Y285068D01*
X27083Y285068D01*
X27083Y283068D01*
G37*
G54D36*
G36*
X43053Y291097D02*
X43053Y298597D01*
X45053Y298597D01*
X45053Y291097D01*
X43053Y291097D01*
G37*
G36*
X44053Y292097D02*
X51553Y292097D01*
X51553Y290097D01*
X44053Y290097D01*
X44053Y292097D01*
G37*
G36*
X45053Y291097D02*
X45053Y283597D01*
X43053Y283597D01*
X43053Y291097D01*
X45053Y291097D01*
G37*
G36*
X44053Y290097D02*
X36553Y290097D01*
X36553Y292097D01*
X44053Y292097D01*
X44053Y290097D01*
G37*
G54D36*
G36*
X60024Y284068D02*
X60024Y291568D01*
X62024Y291568D01*
X62024Y284068D01*
X60024Y284068D01*
G37*
G36*
X61024Y285068D02*
X68524Y285068D01*
X68524Y283068D01*
X61024Y283068D01*
X61024Y285068D01*
G37*
G36*
X62024Y284068D02*
X62024Y276568D01*
X60024Y276568D01*
X60024Y284068D01*
X62024Y284068D01*
G37*
G36*
X61024Y283068D02*
X53524Y283068D01*
X53524Y285068D01*
X61024Y285068D01*
X61024Y283068D01*
G37*
G54D37*
G36*
X133986Y254893D02*
X133986Y267393D01*
X143746Y267393D01*
X143746Y254893D01*
X133986Y254893D01*
G37*
G36*
X138866Y259773D02*
X151366Y259773D01*
X151366Y250013D01*
X138866Y250013D01*
X138866Y259773D01*
G37*
G36*
X143746Y254893D02*
X143746Y242393D01*
X133986Y242393D01*
X133986Y254893D01*
X143746Y254893D01*
G37*
G36*
X138866Y250013D02*
X126366Y250013D01*
X126366Y259773D01*
X138866Y259773D01*
X138866Y250013D01*
G37*
G54D37*
G36*
X788036Y459681D02*
X788036Y472181D01*
X797796Y472181D01*
X797796Y459681D01*
X788036Y459681D01*
G37*
G36*
X792916Y464561D02*
X805416Y464561D01*
X805416Y454801D01*
X792916Y454801D01*
X792916Y464561D01*
G37*
G36*
X797796Y459681D02*
X797796Y447181D01*
X788036Y447181D01*
X788036Y459681D01*
X797796Y459681D01*
G37*
G36*
X792916Y454801D02*
X780416Y454801D01*
X780416Y464561D01*
X792916Y464561D01*
X792916Y454801D01*
G37*
G54D37*
G36*
X788036Y415231D02*
X788036Y427731D01*
X797796Y427731D01*
X797796Y415231D01*
X788036Y415231D01*
G37*
G36*
X792916Y420111D02*
X805416Y420111D01*
X805416Y410351D01*
X792916Y410351D01*
X792916Y420111D01*
G37*
G36*
X797796Y415231D02*
X797796Y402731D01*
X788036Y402731D01*
X788036Y415231D01*
X797796Y415231D01*
G37*
G36*
X792916Y410351D02*
X780416Y410351D01*
X780416Y420111D01*
X792916Y420111D01*
X792916Y410351D01*
G37*
G54D37*
G36*
X788036Y358081D02*
X788036Y370581D01*
X797796Y370581D01*
X797796Y358081D01*
X788036Y358081D01*
G37*
G36*
X792916Y362961D02*
X805416Y362961D01*
X805416Y353201D01*
X792916Y353201D01*
X792916Y362961D01*
G37*
G36*
X797796Y358081D02*
X797796Y345581D01*
X788036Y345581D01*
X788036Y358081D01*
X797796Y358081D01*
G37*
G36*
X792916Y353201D02*
X780416Y353201D01*
X780416Y362961D01*
X792916Y362961D01*
X792916Y353201D01*
G37*
G54D38*
G36*
X239686Y104900D02*
X239686Y117400D01*
X248113Y117400D01*
X248113Y104900D01*
X239686Y104900D01*
G37*
G36*
X243900Y109114D02*
X256400Y109114D01*
X256400Y100686D01*
X243900Y100686D01*
X243900Y109114D01*
G37*
G36*
X248113Y104900D02*
X248113Y92400D01*
X239686Y92400D01*
X239686Y104900D01*
X248113Y104900D01*
G37*
G36*
X243900Y100686D02*
X231400Y100686D01*
X231400Y109114D01*
X243900Y109114D01*
X243900Y100686D01*
G37*
G54D38*
G36*
X239686Y60450D02*
X239686Y72950D01*
X248113Y72950D01*
X248113Y60450D01*
X239686Y60450D01*
G37*
G36*
X243900Y64664D02*
X256400Y64664D01*
X256400Y56236D01*
X243900Y56236D01*
X243900Y64664D01*
G37*
G36*
X248113Y60450D02*
X248113Y47950D01*
X239686Y47950D01*
X239686Y60450D01*
X248113Y60450D01*
G37*
G36*
X243900Y56236D02*
X231400Y56236D01*
X231400Y64664D01*
X243900Y64664D01*
X243900Y56236D01*
G37*
G54D38*
G36*
X704850Y136676D02*
X717350Y136676D01*
X717350Y128249D01*
X704850Y128249D01*
X704850Y136676D01*
G37*
G36*
X709064Y132462D02*
X709064Y119962D01*
X700636Y119962D01*
X700636Y132462D01*
X709064Y132462D01*
G37*
G36*
X704850Y128249D02*
X692350Y128249D01*
X692350Y136676D01*
X704850Y136676D01*
X704850Y128249D01*
G37*
G36*
X700636Y132462D02*
X700636Y144962D01*
X709064Y144962D01*
X709064Y132462D01*
X700636Y132462D01*
G37*
G54D38*
G36*
X704850Y260448D02*
X692350Y260448D01*
X692350Y268876D01*
X704850Y268876D01*
X704850Y260448D01*
G37*
G36*
X700636Y264662D02*
X700636Y277162D01*
X709064Y277162D01*
X709064Y264662D01*
X700636Y264662D01*
G37*
G36*
X704850Y268876D02*
X717350Y268876D01*
X717350Y260448D01*
X704850Y260448D01*
X704850Y268876D01*
G37*
G36*
X709064Y264662D02*
X709064Y252162D01*
X700636Y252162D01*
X700636Y264662D01*
X709064Y264662D01*
G37*
X97020Y78004D02*
G54D39*
D03*
X28758Y81179D02*
G54D39*
D03*
X673900Y198563D02*
G54D40*
D03*
X648900Y198562D02*
G54D40*
D03*
X623900Y198562D02*
G54D40*
D03*
X498900Y198562D02*
G54D40*
D03*
X473900Y198562D02*
G54D40*
D03*
X473900Y48562D02*
G54D40*
D03*
X673900Y48562D02*
G54D40*
D03*
X723900Y48562D02*
G54D40*
D03*
X62845Y151107D02*
G54D41*
D03*
X62845Y203107D02*
G54D41*
D03*
X598891Y198562D02*
G54D40*
D03*
X573888Y198562D02*
G54D40*
D03*
X548488Y198562D02*
G54D40*
D03*
X524278Y198562D02*
G54D40*
D03*
X424288Y198166D02*
G54D40*
D03*
X399288Y198165D02*
G54D40*
D03*
X449666Y198166D02*
G54D40*
D03*
X400082Y48562D02*
G54D40*
D03*
X927100Y287462D02*
G54D40*
D03*
X862100Y287462D02*
G54D40*
D03*
X862100Y242462D02*
G54D40*
D03*
X927100Y242462D02*
G54D40*
D03*
X927100Y490662D02*
G54D40*
D03*
X862100Y490662D02*
G54D40*
D03*
X862100Y445662D02*
G54D40*
D03*
X927100Y445662D02*
G54D40*
D03*
X68786Y31168D02*
G54D39*
D03*
X891778Y582591D02*
G54D40*
D03*
X866778Y557591D02*
G54D40*
D03*
X916778Y557590D02*
G54D40*
D03*
X166866Y204093D02*
G54D42*
D03*
X141466Y178693D02*
G54D42*
D03*
X166866Y153293D02*
G54D42*
D03*
X900900Y192212D02*
G54D40*
D03*
X850900Y192212D02*
G54D40*
D03*
X875900Y192212D02*
G54D40*
D03*
X900900Y42212D02*
G54D40*
D03*
X850900Y42212D02*
G54D40*
D03*
X938400Y117212D02*
G54D43*
D03*
X813400Y117212D02*
G54D43*
D03*
X927100Y389062D02*
G54D40*
D03*
X862100Y389062D02*
G54D40*
D03*
X862100Y344062D02*
G54D40*
D03*
X927100Y344062D02*
G54D40*
D03*
X165675Y85428D02*
G54D42*
D03*
X140275Y60028D02*
G54D42*
D03*
X165675Y34628D02*
G54D42*
D03*
X101049Y578179D02*
G54D40*
D03*
X126449Y578180D02*
G54D40*
D03*
X151849Y578180D02*
G54D40*
D03*
X178440Y578180D02*
G54D40*
D03*
X203840Y578179D02*
G54D40*
D03*
X229240Y578180D02*
G54D40*
D03*
X357034Y578180D02*
G54D40*
D03*
X382434Y578180D02*
G54D40*
D03*
X407834Y578180D02*
G54D40*
D03*
X433234Y578180D02*
G54D40*
D03*
X458634Y578179D02*
G54D40*
D03*
X485224Y578179D02*
G54D40*
D03*
X165100Y522412D02*
G54D44*
D03*
X457200Y522809D02*
G54D44*
D03*
X796131Y265510D02*
G54D45*
D03*
X820131Y265510D02*
G54D46*
D03*
X813102Y248539D02*
G54D46*
D03*
X796131Y241510D02*
G54D46*
D03*
X779161Y248539D02*
G54D46*
D03*
X772131Y265510D02*
G54D46*
D03*
X779161Y282480D02*
G54D46*
D03*
X796131Y289510D02*
G54D46*
D03*
X813102Y282480D02*
G54D46*
D03*
X795338Y575469D02*
G54D45*
D03*
X819338Y575469D02*
G54D46*
D03*
X812308Y558498D02*
G54D46*
D03*
X795338Y551469D02*
G54D46*
D03*
X778367Y558498D02*
G54D46*
D03*
X771338Y575469D02*
G54D46*
D03*
X778367Y592440D02*
G54D46*
D03*
X795338Y599469D02*
G54D46*
D03*
X812308Y592440D02*
G54D46*
D03*
X44450Y575469D02*
G54D45*
D03*
X68450Y575469D02*
G54D46*
D03*
X61421Y558498D02*
G54D46*
D03*
X44450Y551469D02*
G54D46*
D03*
X27480Y558498D02*
G54D46*
D03*
X20450Y575469D02*
G54D46*
D03*
X27480Y592440D02*
G54D46*
D03*
X44450Y599469D02*
G54D46*
D03*
X61421Y592440D02*
G54D46*
D03*
X44053Y267097D02*
G54D45*
D03*
X68053Y267097D02*
G54D46*
D03*
X61024Y250127D02*
G54D46*
D03*
X44053Y243097D02*
G54D46*
D03*
X27083Y250127D02*
G54D46*
D03*
X20053Y267097D02*
G54D46*
D03*
X27083Y284068D02*
G54D46*
D03*
X44053Y291097D02*
G54D46*
D03*
X61024Y284068D02*
G54D46*
D03*
G54D47*
X357034Y578180D02*
X356637Y318176D01*
X450850Y223962D01*
X450850Y199350D01*
X449666Y198166D01*
G54D47*
X382434Y578180D02*
X382830Y311032D01*
X476250Y217612D01*
X476250Y200912D01*
X473900Y198562D01*
G54D47*
X407834Y578180D02*
X406246Y306666D01*
X495300Y217612D01*
X495300Y202162D01*
X498900Y198562D01*
G54D47*
X433234Y578180D02*
X433234Y298729D01*
X520700Y211262D01*
X520700Y202140D01*
X524278Y198562D01*
G54D47*
X229240Y578180D02*
X229240Y540823D01*
X241300Y528762D01*
X311150Y528762D01*
X323850Y516062D01*
X323850Y331912D01*
X425450Y230312D01*
X425450Y199328D01*
X424288Y198166D01*
G54D47*
X178440Y578180D02*
X178440Y546776D01*
X215900Y509712D01*
X285750Y509712D01*
X298450Y497012D01*
X298450Y338262D01*
X400050Y236662D01*
X400050Y198928D01*
X399288Y198165D01*
G54D47*
X891778Y582591D02*
X860278Y582591D01*
X800100Y522412D01*
X457200Y522809D01*
G54D47*
X151849Y578180D02*
X151849Y536457D01*
X165100Y522412D01*
G54D47*
X862100Y490662D02*
X584200Y490662D01*
X546100Y452562D01*
X546100Y200950D01*
X548488Y198562D01*
G54D47*
X862100Y389062D02*
X603250Y389062D01*
X571500Y357312D01*
X571500Y200950D01*
X573888Y198562D01*
G54D24*
X165675Y85824D02*
X112382Y85824D01*
X97020Y70463D01*
G54D24*
X62845Y147932D02*
X62845Y116544D01*
X97020Y82369D01*
G54D24*
X141466Y183059D02*
X138932Y183059D01*
X114300Y207691D01*
X63024Y207691D01*
X62845Y207870D01*
G54D47*
X862100Y287462D02*
X862100Y288963D01*
X825500Y325562D01*
X609600Y325562D01*
X596900Y312862D01*
X596900Y200553D01*
X598891Y198562D01*
X243706Y203596D02*
G54D48*
D03*
X215706Y203596D02*
G54D48*
D03*
X138866Y254893D02*
G54D48*
D03*
X166866Y254893D02*
G54D48*
D03*
G54D47*
X166866Y254893D02*
X166866Y204093D01*
G54D47*
X166866Y203300D02*
X215210Y203300D01*
X215706Y202803D01*
G54D47*
X243706Y202803D02*
X304529Y202803D01*
X400050Y107281D01*
X400050Y52562D01*
X400082Y48562D01*
X792916Y459681D02*
G54D48*
D03*
X820916Y459681D02*
G54D48*
D03*
X792916Y415231D02*
G54D48*
D03*
X820916Y415231D02*
G54D48*
D03*
X792916Y358081D02*
G54D48*
D03*
X820916Y358081D02*
G54D48*
D03*
G54D47*
X927100Y490662D02*
X917100Y490662D01*
X894600Y468162D01*
X835748Y468162D01*
X820916Y453331D01*
G54D47*
X820916Y415231D02*
X900932Y415231D01*
X927100Y389062D01*
G54D47*
X820916Y358081D02*
X820916Y349197D01*
X857250Y312862D01*
X901700Y312862D01*
X927100Y287462D01*
G54D49*
X61434Y519587D02*
X57878Y509587D01*
X54322Y519587D01*
G54D49*
X40989Y509587D02*
X48100Y509587D01*
X48100Y510698D01*
X47212Y512921D01*
X41878Y519587D01*
X40989Y521810D01*
X40989Y524032D01*
X41878Y526254D01*
X43656Y527365D01*
X45434Y527365D01*
X47212Y526254D01*
X48100Y524032D01*
G54D49*
X34768Y509587D02*
X34768Y509587D01*
G54D49*
X28546Y520698D02*
X24101Y527365D01*
X24101Y509587D01*
X660400Y160462D02*
G54D48*
D03*
X660400Y132462D02*
G54D48*
D03*
X215900Y104900D02*
G54D48*
D03*
X243900Y104900D02*
G54D48*
D03*
X215900Y60450D02*
G54D48*
D03*
X243900Y60450D02*
G54D48*
D03*
G54D24*
X215900Y104900D02*
X185148Y104900D01*
X165675Y85428D01*
G54D24*
X215900Y60450D02*
X191498Y60450D01*
X165675Y34628D01*
X704850Y160462D02*
G54D48*
D03*
X704850Y132462D02*
G54D48*
D03*
X704850Y236662D02*
G54D48*
D03*
X704850Y264662D02*
G54D48*
D03*
X660400Y265237D02*
G54D48*
D03*
X660400Y237237D02*
G54D48*
D03*
X673900Y86638D02*
G54D44*
D03*
G54D47*
X900900Y42212D02*
X900900Y54503D01*
X879872Y75531D01*
X479822Y75531D01*
X473472Y69181D01*
X473472Y48990D01*
X473900Y48562D01*
G54D47*
X850900Y192212D02*
X800100Y192212D01*
X762000Y230312D01*
X635000Y230312D01*
X622300Y217612D01*
X622300Y200163D01*
X623900Y198562D01*
G54D47*
X900900Y198562D02*
X900900Y181062D01*
X885900Y166062D01*
X661150Y166062D01*
X647700Y179512D01*
X647700Y203712D01*
X648900Y204912D01*
G54D50*
X660400Y135637D02*
X660400Y100137D01*
X673100Y87437D01*
X660803Y299363D02*
G54D44*
D03*
G54D50*
X660400Y265237D02*
X660400Y298563D01*
X661200Y299363D01*
G54D36*
X11510Y617516D02*
X953675Y617516D01*
G54D36*
G75*
G01X11510Y617516D02*
G03X0Y606006I0J-11510D01*
G01*
G54D36*
G75*
G01X965185Y606006D02*
G03X953675Y617516I-11510J0D01*
G01*
G54D36*
X0Y606006D02*
X0Y13090D01*
G54D36*
G75*
G01X953675Y1580D02*
G03X965185Y13090I0J11510D01*
G01*
G54D36*
X965185Y606006D02*
X965185Y13090D01*
G54D36*
G75*
G01X0Y13090D02*
G03X11510Y1580I11510J0D01*
G01*
G54D36*
X953675Y1580D02*
X11510Y1580D01*
M02*
